<svg xmlns="http://www.w3.org/2000/svg" viewBox="0 0 1920 1009"><defs><style>.cls-1{isolation:isolate;}.cls-2{mix-blend-mode:screen;}.cls-3{fill:#fff;}</style></defs><title>map</title><g class="cls-1"><g id="Layer_1" data-name="Layer 1"><g class="cls-2"><path class="cls-3" d="M118.71,232.38a16.66,16.66,0,1,1-16.66-16.65,16.66,16.66,0,0,1,16.66,16.65"/><path class="cls-3" d="M118.71,232.38a16.66,16.66,0,1,1-16.66-16.65A16.66,16.66,0,0,1,118.71,232.38Z"/><path class="cls-3" d="M160,232.38a16.66,16.66,0,1,1-16.65-16.65A16.65,16.65,0,0,1,160,232.38"/><path class="cls-3" d="M160,232.38a16.66,16.66,0,1,1-16.65-16.65A16.65,16.65,0,0,1,160,232.38Z"/><path class="cls-3" d="M201.37,232.38a16.66,16.66,0,1,1-16.65-16.65,16.65,16.65,0,0,1,16.65,16.65"/><path class="cls-3" d="M201.37,232.38a16.66,16.66,0,1,1-16.65-16.65A16.65,16.65,0,0,1,201.37,232.38Z"/><path class="cls-3" d="M242.69,232.38a16.65,16.65,0,1,1-16.64-16.65,16.64,16.64,0,0,1,16.64,16.65"/><path class="cls-3" d="M242.69,232.38a16.65,16.65,0,1,1-16.64-16.65A16.64,16.64,0,0,1,242.69,232.38Z"/><path class="cls-3" d="M284,232.38a16.66,16.66,0,1,1-16.66-16.65A16.65,16.65,0,0,1,284,232.38"/><path class="cls-3" d="M284,232.38a16.66,16.66,0,1,1-16.66-16.65A16.65,16.65,0,0,1,284,232.38Z"/><path class="cls-3" d="M325.37,232.38a16.66,16.66,0,1,1-16.65-16.65,16.65,16.65,0,0,1,16.65,16.65"/><path class="cls-3" d="M325.37,232.38a16.66,16.66,0,1,1-16.65-16.65A16.65,16.65,0,0,1,325.37,232.38Z"/><path class="cls-3" d="M366.7,232.38a16.66,16.66,0,1,1-16.65-16.65,16.65,16.65,0,0,1,16.65,16.65"/><path class="cls-3" d="M366.7,232.38a16.66,16.66,0,1,1-16.65-16.65A16.65,16.65,0,0,1,366.7,232.38Z"/><path class="cls-3" d="M408,232.38a16.65,16.65,0,1,1-16.66-16.65A16.64,16.64,0,0,1,408,232.38"/><path class="cls-3" d="M408,232.38a16.65,16.65,0,1,1-16.66-16.65A16.64,16.64,0,0,1,408,232.38Z"/><path class="cls-3" d="M449.36,232.38a16.65,16.65,0,1,1-16.65-16.65,16.65,16.65,0,0,1,16.65,16.65"/><path class="cls-3" d="M449.36,232.38a16.65,16.65,0,1,1-16.65-16.65A16.65,16.65,0,0,1,449.36,232.38Z"/><path class="cls-3" d="M490.7,232.38a16.66,16.66,0,1,1-16.65-16.65,16.65,16.65,0,0,1,16.65,16.65"/><path class="cls-3" d="M490.7,232.38a16.66,16.66,0,1,1-16.65-16.65A16.65,16.65,0,0,1,490.7,232.38Z"/><path class="cls-3" d="M532,232.38a16.66,16.66,0,1,1-16.65-16.65A16.65,16.65,0,0,1,532,232.38"/><path class="cls-3" d="M532,232.38a16.66,16.66,0,1,1-16.65-16.65A16.65,16.65,0,0,1,532,232.38Z"/><path class="cls-3" d="M573.36,232.38a16.66,16.66,0,1,1-16.65-16.65,16.65,16.65,0,0,1,16.65,16.65"/><path class="cls-3" d="M573.36,232.38a16.66,16.66,0,1,1-16.65-16.65A16.65,16.65,0,0,1,573.36,232.38Z"/><path class="cls-3" d="M614.69,232.38A16.65,16.65,0,1,1,598,215.73a16.65,16.65,0,0,1,16.65,16.65"/><path class="cls-3" d="M614.69,232.38A16.65,16.65,0,1,1,598,215.73,16.65,16.65,0,0,1,614.69,232.38Z"/><path class="cls-3" d="M697.35,232.38a16.65,16.65,0,1,1-16.65-16.65,16.64,16.64,0,0,1,16.65,16.65"/><path class="cls-3" d="M697.35,232.38a16.65,16.65,0,1,1-16.65-16.65A16.64,16.64,0,0,1,697.35,232.38Z"/><path class="cls-3" d="M738.69,232.38A16.66,16.66,0,1,1,722,215.73a16.65,16.65,0,0,1,16.65,16.65"/><path class="cls-3" d="M738.69,232.38A16.66,16.66,0,1,1,722,215.73,16.65,16.65,0,0,1,738.69,232.38Z"/><path class="cls-3" d="M780,232.38a16.66,16.66,0,1,1-16.66-16.65A16.65,16.65,0,0,1,780,232.38"/><path class="cls-3" d="M780,232.38a16.66,16.66,0,1,1-16.66-16.65A16.65,16.65,0,0,1,780,232.38Z"/><path class="cls-3" d="M821.36,232.38a16.66,16.66,0,1,1-16.66-16.65,16.65,16.65,0,0,1,16.66,16.65"/><path class="cls-3" d="M821.36,232.38a16.66,16.66,0,1,1-16.66-16.65A16.65,16.65,0,0,1,821.36,232.38Z"/><path class="cls-3" d="M862.69,232.38A16.66,16.66,0,1,1,846,215.73a16.65,16.65,0,0,1,16.65,16.65"/><path class="cls-3" d="M862.69,232.38A16.66,16.66,0,1,1,846,215.73,16.65,16.65,0,0,1,862.69,232.38Z"/><path class="cls-3" d="M1028,232.38a16.66,16.66,0,1,1-16.65-16.65A16.65,16.65,0,0,1,1028,232.38"/><path class="cls-3" d="M1028,232.38a16.66,16.66,0,1,1-16.65-16.65A16.65,16.65,0,0,1,1028,232.38Z"/><path class="cls-3" d="M1069.35,232.38a16.65,16.65,0,1,1-16.65-16.65,16.65,16.65,0,0,1,16.65,16.65"/><path class="cls-3" d="M1069.35,232.38a16.65,16.65,0,1,1-16.65-16.65A16.65,16.65,0,0,1,1069.35,232.38Z"/><path class="cls-3" d="M1110.68,232.38A16.65,16.65,0,1,1,1094,215.73a16.65,16.65,0,0,1,16.65,16.65"/><path class="cls-3" d="M1110.68,232.38A16.65,16.65,0,1,1,1094,215.73,16.65,16.65,0,0,1,1110.68,232.38Z"/><path class="cls-3" d="M1152,232.38a16.65,16.65,0,1,1-16.66-16.65A16.65,16.65,0,0,1,1152,232.38"/><path class="cls-3" d="M1152,232.38a16.65,16.65,0,1,1-16.66-16.65A16.65,16.65,0,0,1,1152,232.38Z"/><path class="cls-3" d="M1193.35,232.38a16.65,16.65,0,1,1-16.65-16.65,16.65,16.65,0,0,1,16.65,16.65"/><path class="cls-3" d="M1193.35,232.38a16.65,16.65,0,1,1-16.65-16.65A16.65,16.65,0,0,1,1193.35,232.38Z"/><path class="cls-3" d="M1234.69,232.38A16.66,16.66,0,1,1,1218,215.73a16.65,16.65,0,0,1,16.66,16.65"/><path class="cls-3" d="M1234.69,232.38A16.66,16.66,0,1,1,1218,215.73,16.65,16.65,0,0,1,1234.69,232.38Z"/><path class="cls-3" d="M1276,232.38a16.65,16.65,0,1,1-16.65-16.65A16.65,16.65,0,0,1,1276,232.38"/><path class="cls-3" d="M1276,232.38a16.65,16.65,0,1,1-16.65-16.65A16.65,16.65,0,0,1,1276,232.38Z"/><path class="cls-3" d="M1317.35,232.38a16.66,16.66,0,1,1-16.65-16.65,16.65,16.65,0,0,1,16.65,16.65"/><path class="cls-3" d="M1317.35,232.38a16.66,16.66,0,1,1-16.65-16.65A16.65,16.65,0,0,1,1317.35,232.38Z"/><path class="cls-3" d="M1358.69,232.38A16.66,16.66,0,1,1,1342,215.73a16.65,16.65,0,0,1,16.66,16.65"/><path class="cls-3" d="M1358.69,232.38A16.66,16.66,0,1,1,1342,215.73,16.65,16.65,0,0,1,1358.69,232.38Z"/><path class="cls-3" d="M1400,232.38a16.66,16.66,0,1,1-16.66-16.65A16.66,16.66,0,0,1,1400,232.38"/><path class="cls-3" d="M1400,232.38a16.66,16.66,0,1,1-16.66-16.65A16.66,16.66,0,0,1,1400,232.38Z"/><path class="cls-3" d="M1441.35,232.38a16.66,16.66,0,1,1-16.66-16.65,16.65,16.65,0,0,1,16.66,16.65"/><path class="cls-3" d="M1441.35,232.38a16.66,16.66,0,1,1-16.66-16.65A16.65,16.65,0,0,1,1441.35,232.38Z"/><path class="cls-3" d="M1482.68,232.38A16.66,16.66,0,1,1,1466,215.73a16.65,16.65,0,0,1,16.66,16.65"/><path class="cls-3" d="M1482.68,232.38A16.66,16.66,0,1,1,1466,215.73,16.65,16.65,0,0,1,1482.68,232.38Z"/><path class="cls-3" d="M1524,232.38a16.65,16.65,0,1,1-16.65-16.65A16.65,16.65,0,0,1,1524,232.38"/><path class="cls-3" d="M1524,232.38a16.65,16.65,0,1,1-16.65-16.65A16.65,16.65,0,0,1,1524,232.38Z"/><path class="cls-3" d="M1565.34,232.38a16.65,16.65,0,1,1-16.66-16.65,16.65,16.65,0,0,1,16.66,16.65"/><path class="cls-3" d="M1565.34,232.38a16.65,16.65,0,1,1-16.66-16.65A16.65,16.65,0,0,1,1565.34,232.38Z"/><path class="cls-3" d="M1606.67,232.38A16.66,16.66,0,1,1,1590,215.73a16.65,16.65,0,0,1,16.64,16.65"/><path class="cls-3" d="M1606.67,232.38A16.66,16.66,0,1,1,1590,215.73,16.65,16.65,0,0,1,1606.67,232.38Z"/><path class="cls-3" d="M1648,232.38a16.65,16.65,0,1,1-16.65-16.65A16.65,16.65,0,0,1,1648,232.38"/><path class="cls-3" d="M1648,232.38a16.65,16.65,0,1,1-16.65-16.65A16.65,16.65,0,0,1,1648,232.38Z"/><path class="cls-3" d="M1689.34,232.38a16.65,16.65,0,1,1-16.65-16.65,16.65,16.65,0,0,1,16.65,16.65"/><path class="cls-3" d="M1689.34,232.38a16.65,16.65,0,1,1-16.65-16.65A16.65,16.65,0,0,1,1689.34,232.38Z"/><path class="cls-3" d="M1730.67,232.38A16.65,16.65,0,1,1,1714,215.73a16.65,16.65,0,0,1,16.65,16.65"/><path class="cls-3" d="M1730.67,232.38A16.65,16.65,0,1,1,1714,215.73,16.65,16.65,0,0,1,1730.67,232.38Z"/><path class="cls-3" d="M1772,232.38a16.66,16.66,0,1,1-16.66-16.65A16.65,16.65,0,0,1,1772,232.38"/><path class="cls-3" d="M1772,232.38a16.66,16.66,0,1,1-16.66-16.65A16.65,16.65,0,0,1,1772,232.38Z"/><path class="cls-3" d="M1813.35,232.38a16.66,16.66,0,1,1-16.66-16.65,16.66,16.66,0,0,1,16.66,16.65"/><path class="cls-3" d="M1813.35,232.38a16.66,16.66,0,1,1-16.66-16.65A16.66,16.66,0,0,1,1813.35,232.38Z"/><path class="cls-3" d="M1854.67,232.38A16.65,16.65,0,1,1,1838,215.73a16.65,16.65,0,0,1,16.66,16.65"/><path class="cls-3" d="M1854.67,232.38A16.65,16.65,0,1,1,1838,215.73,16.65,16.65,0,0,1,1854.67,232.38Z"/><path class="cls-3" d="M1896,232.38a16.65,16.65,0,1,1-16.64-16.65A16.64,16.64,0,0,1,1896,232.38"/><path class="cls-3" d="M1896,232.38a16.65,16.65,0,1,1-16.64-16.65A16.64,16.64,0,0,1,1896,232.38Z"/><path class="cls-3" d="M118.71,190.81a16.66,16.66,0,1,1-16.66-16.65,16.67,16.67,0,0,1,16.66,16.65"/><path class="cls-3" d="M118.71,190.81a16.66,16.66,0,1,1-16.66-16.65A16.67,16.67,0,0,1,118.71,190.81Z"/><path class="cls-3" d="M160,190.81a16.66,16.66,0,1,1-16.65-16.65A16.66,16.66,0,0,1,160,190.81"/><path class="cls-3" d="M160,190.81a16.66,16.66,0,1,1-16.65-16.65A16.66,16.66,0,0,1,160,190.81Z"/><path class="cls-3" d="M201.37,190.81a16.66,16.66,0,1,1-16.65-16.65,16.66,16.66,0,0,1,16.65,16.65"/><path class="cls-3" d="M201.37,190.81a16.66,16.66,0,1,1-16.65-16.65A16.66,16.66,0,0,1,201.37,190.81Z"/><path class="cls-3" d="M284,190.81a16.66,16.66,0,1,1-16.66-16.65A16.66,16.66,0,0,1,284,190.81"/><path class="cls-3" d="M284,190.81a16.66,16.66,0,1,1-16.66-16.65A16.66,16.66,0,0,1,284,190.81Z"/><path class="cls-3" d="M325.37,190.81a16.66,16.66,0,1,1-16.65-16.65,16.66,16.66,0,0,1,16.65,16.65"/><path class="cls-3" d="M325.37,190.81a16.66,16.66,0,1,1-16.65-16.65A16.66,16.66,0,0,1,325.37,190.81Z"/><path class="cls-3" d="M366.7,190.81a16.66,16.66,0,1,1-16.65-16.65,16.66,16.66,0,0,1,16.65,16.65"/><path class="cls-3" d="M366.7,190.81a16.66,16.66,0,1,1-16.65-16.65A16.66,16.66,0,0,1,366.7,190.81Z"/><path class="cls-3" d="M408,190.81a16.65,16.65,0,1,1-16.66-16.65A16.65,16.65,0,0,1,408,190.81"/><path class="cls-3" d="M408,190.81a16.65,16.65,0,1,1-16.66-16.65A16.65,16.65,0,0,1,408,190.81Z"/><path class="cls-3" d="M449.36,190.81a16.65,16.65,0,1,1-16.65-16.65,16.65,16.65,0,0,1,16.65,16.65"/><path class="cls-3" d="M449.36,190.81a16.65,16.65,0,1,1-16.65-16.65A16.65,16.65,0,0,1,449.36,190.81Z"/><path class="cls-3" d="M490.7,190.81a16.66,16.66,0,1,1-16.65-16.65,16.66,16.66,0,0,1,16.65,16.65"/><path class="cls-3" d="M490.7,190.81a16.66,16.66,0,1,1-16.65-16.65A16.66,16.66,0,0,1,490.7,190.81Z"/><path class="cls-3" d="M532,190.81a16.66,16.66,0,1,1-16.65-16.65A16.65,16.65,0,0,1,532,190.81"/><path class="cls-3" d="M532,190.81a16.66,16.66,0,1,1-16.65-16.65A16.65,16.65,0,0,1,532,190.81Z"/><path class="cls-3" d="M573.36,190.81a16.66,16.66,0,1,1-16.65-16.65,16.65,16.65,0,0,1,16.65,16.65"/><path class="cls-3" d="M573.36,190.81a16.66,16.66,0,1,1-16.65-16.65A16.65,16.65,0,0,1,573.36,190.81Z"/><path class="cls-3" d="M697.35,190.81a16.65,16.65,0,1,1-16.65-16.65,16.65,16.65,0,0,1,16.65,16.65"/><path class="cls-3" d="M697.35,190.81a16.65,16.65,0,1,1-16.65-16.65A16.65,16.65,0,0,1,697.35,190.81Z"/><path class="cls-3" d="M738.69,190.81A16.66,16.66,0,1,1,722,174.16a16.65,16.65,0,0,1,16.65,16.65"/><path class="cls-3" d="M738.69,190.81A16.66,16.66,0,1,1,722,174.16,16.65,16.65,0,0,1,738.69,190.81Z"/><path class="cls-3" d="M780,190.81a16.66,16.66,0,1,1-16.66-16.65A16.66,16.66,0,0,1,780,190.81"/><path class="cls-3" d="M780,190.81a16.66,16.66,0,1,1-16.66-16.65A16.66,16.66,0,0,1,780,190.81Z"/><path class="cls-3" d="M821.36,190.81a16.66,16.66,0,1,1-16.66-16.65,16.66,16.66,0,0,1,16.66,16.65"/><path class="cls-3" d="M821.36,190.81a16.66,16.66,0,1,1-16.66-16.65A16.66,16.66,0,0,1,821.36,190.81Z"/><path class="cls-3" d="M1069.35,190.81a16.65,16.65,0,1,1-16.65-16.65,16.66,16.66,0,0,1,16.65,16.65"/><path class="cls-3" d="M1069.35,190.81a16.65,16.65,0,1,1-16.65-16.65A16.66,16.66,0,0,1,1069.35,190.81Z"/><path class="cls-3" d="M1110.68,190.81A16.65,16.65,0,1,1,1094,174.16a16.66,16.66,0,0,1,16.65,16.65"/><path class="cls-3" d="M1110.68,190.81A16.65,16.65,0,1,1,1094,174.16,16.66,16.66,0,0,1,1110.68,190.81Z"/><path class="cls-3" d="M1234.69,190.81A16.66,16.66,0,1,1,1218,174.16a16.66,16.66,0,0,1,16.66,16.65"/><path class="cls-3" d="M1234.69,190.81A16.66,16.66,0,1,1,1218,174.16,16.66,16.66,0,0,1,1234.69,190.81Z"/><path class="cls-3" d="M1317.35,190.81a16.66,16.66,0,1,1-16.65-16.65,16.65,16.65,0,0,1,16.65,16.65"/><path class="cls-3" d="M1317.35,190.81a16.66,16.66,0,1,1-16.65-16.65A16.65,16.65,0,0,1,1317.35,190.81Z"/><path class="cls-3" d="M1358.69,190.81A16.66,16.66,0,1,1,1342,174.16a16.66,16.66,0,0,1,16.66,16.65"/><path class="cls-3" d="M1358.69,190.81A16.66,16.66,0,1,1,1342,174.16,16.66,16.66,0,0,1,1358.69,190.81Z"/><path class="cls-3" d="M1400,190.81a16.66,16.66,0,1,1-16.66-16.65A16.67,16.67,0,0,1,1400,190.81"/><path class="cls-3" d="M1400,190.81a16.66,16.66,0,1,1-16.66-16.65A16.67,16.67,0,0,1,1400,190.81Z"/><path class="cls-3" d="M1441.35,190.81a16.66,16.66,0,1,1-16.66-16.65,16.66,16.66,0,0,1,16.66,16.65"/><path class="cls-3" d="M1441.35,190.81a16.66,16.66,0,1,1-16.66-16.65A16.66,16.66,0,0,1,1441.35,190.81Z"/><path class="cls-3" d="M1482.68,190.81A16.66,16.66,0,1,1,1466,174.16a16.66,16.66,0,0,1,16.66,16.65"/><path class="cls-3" d="M1482.68,190.81A16.66,16.66,0,1,1,1466,174.16,16.66,16.66,0,0,1,1482.68,190.81Z"/><path class="cls-3" d="M1524,190.81a16.65,16.65,0,1,1-16.65-16.65A16.65,16.65,0,0,1,1524,190.81"/><path class="cls-3" d="M1524,190.81a16.65,16.65,0,1,1-16.65-16.65A16.65,16.65,0,0,1,1524,190.81Z"/><path class="cls-3" d="M1565.34,190.81a16.65,16.65,0,1,1-16.66-16.65,16.65,16.65,0,0,1,16.66,16.65"/><path class="cls-3" d="M1565.34,190.81a16.65,16.65,0,1,1-16.66-16.65A16.65,16.65,0,0,1,1565.34,190.81Z"/><path class="cls-3" d="M1606.67,190.81A16.66,16.66,0,1,1,1590,174.16a16.66,16.66,0,0,1,16.64,16.65"/><path class="cls-3" d="M1606.67,190.81A16.66,16.66,0,1,1,1590,174.16,16.66,16.66,0,0,1,1606.67,190.81Z"/><path class="cls-3" d="M1648,190.81a16.65,16.65,0,1,1-16.65-16.65A16.65,16.65,0,0,1,1648,190.81"/><path class="cls-3" d="M1648,190.81a16.65,16.65,0,1,1-16.65-16.65A16.65,16.65,0,0,1,1648,190.81Z"/><path class="cls-3" d="M1689.34,190.81a16.65,16.65,0,1,1-16.65-16.65,16.65,16.65,0,0,1,16.65,16.65"/><path class="cls-3" d="M1689.34,190.81a16.65,16.65,0,1,1-16.65-16.65A16.65,16.65,0,0,1,1689.34,190.81Z"/><path class="cls-3" d="M1730.67,190.81A16.65,16.65,0,1,1,1714,174.16a16.65,16.65,0,0,1,16.65,16.65"/><path class="cls-3" d="M1730.67,190.81A16.65,16.65,0,1,1,1714,174.16,16.65,16.65,0,0,1,1730.67,190.81Z"/><path class="cls-3" d="M1772,190.81a16.66,16.66,0,1,1-16.66-16.65A16.66,16.66,0,0,1,1772,190.81"/><path class="cls-3" d="M1772,190.81a16.66,16.66,0,1,1-16.66-16.65A16.66,16.66,0,0,1,1772,190.81Z"/><path class="cls-3" d="M1813.35,190.81a16.66,16.66,0,1,1-16.66-16.65,16.67,16.67,0,0,1,16.66,16.65"/><path class="cls-3" d="M1813.35,190.81a16.66,16.66,0,1,1-16.66-16.65A16.67,16.67,0,0,1,1813.35,190.81Z"/><path class="cls-3" d="M325.37,149.25a16.66,16.66,0,1,1-16.65-16.66,16.66,16.66,0,0,1,16.65,16.66"/><path class="cls-3" d="M325.37,149.25a16.66,16.66,0,1,1-16.65-16.66A16.66,16.66,0,0,1,325.37,149.25Z"/><path class="cls-3" d="M366.7,149.25a16.66,16.66,0,1,1-16.65-16.66,16.66,16.66,0,0,1,16.65,16.66"/><path class="cls-3" d="M366.7,149.25a16.66,16.66,0,1,1-16.65-16.66A16.66,16.66,0,0,1,366.7,149.25Z"/><path class="cls-3" d="M449.36,149.25a16.65,16.65,0,1,1-16.65-16.66,16.65,16.65,0,0,1,16.65,16.66"/><path class="cls-3" d="M449.36,149.25a16.65,16.65,0,1,1-16.65-16.66A16.65,16.65,0,0,1,449.36,149.25Z"/><path class="cls-3" d="M532,149.25a16.66,16.66,0,1,1-16.65-16.66A16.65,16.65,0,0,1,532,149.25"/><path class="cls-3" d="M532,149.25a16.66,16.66,0,1,1-16.65-16.66A16.65,16.65,0,0,1,532,149.25Z"/><path class="cls-3" d="M656,149.25a16.66,16.66,0,1,1-16.66-16.66A16.65,16.65,0,0,1,656,149.25"/><path class="cls-3" d="M656,149.25a16.66,16.66,0,1,1-16.66-16.66A16.65,16.65,0,0,1,656,149.25Z"/><path class="cls-3" d="M697.35,149.25a16.65,16.65,0,1,1-16.65-16.66,16.64,16.64,0,0,1,16.65,16.66"/><path class="cls-3" d="M697.35,149.25a16.65,16.65,0,1,1-16.65-16.66A16.64,16.64,0,0,1,697.35,149.25Z"/><path class="cls-3" d="M738.69,149.25A16.66,16.66,0,1,1,722,132.59a16.65,16.65,0,0,1,16.65,16.66"/><path class="cls-3" d="M738.69,149.25A16.66,16.66,0,1,1,722,132.59,16.65,16.65,0,0,1,738.69,149.25Z"/><path class="cls-3" d="M780,149.25a16.66,16.66,0,1,1-16.66-16.66A16.66,16.66,0,0,1,780,149.25"/><path class="cls-3" d="M780,149.25a16.66,16.66,0,1,1-16.66-16.66A16.66,16.66,0,0,1,780,149.25Z"/><path class="cls-3" d="M821.36,149.25a16.66,16.66,0,1,1-16.66-16.66,16.66,16.66,0,0,1,16.66,16.66"/><path class="cls-3" d="M821.36,149.25a16.66,16.66,0,1,1-16.66-16.66A16.66,16.66,0,0,1,821.36,149.25Z"/><path class="cls-3" d="M1193.35,149.25a16.65,16.65,0,1,1-16.65-16.66,16.66,16.66,0,0,1,16.65,16.66"/><path class="cls-3" d="M1193.35,149.25a16.65,16.65,0,1,1-16.65-16.66A16.66,16.66,0,0,1,1193.35,149.25Z"/><path class="cls-3" d="M1234.69,149.25A16.66,16.66,0,1,1,1218,132.59a16.66,16.66,0,0,1,16.66,16.66"/><path class="cls-3" d="M1234.69,149.25A16.66,16.66,0,1,1,1218,132.59,16.66,16.66,0,0,1,1234.69,149.25Z"/><path class="cls-3" d="M1276,149.25a16.65,16.65,0,1,1-16.65-16.66A16.65,16.65,0,0,1,1276,149.25"/><path class="cls-3" d="M1276,149.25a16.65,16.65,0,1,1-16.65-16.66A16.65,16.65,0,0,1,1276,149.25Z"/><path class="cls-3" d="M1317.35,149.25a16.66,16.66,0,1,1-16.65-16.66,16.65,16.65,0,0,1,16.65,16.66"/><path class="cls-3" d="M1317.35,149.25a16.66,16.66,0,1,1-16.65-16.66A16.65,16.65,0,0,1,1317.35,149.25Z"/><path class="cls-3" d="M1400,149.25a16.66,16.66,0,1,1-16.66-16.66A16.67,16.67,0,0,1,1400,149.25"/><path class="cls-3" d="M1400,149.25a16.66,16.66,0,1,1-16.66-16.66A16.67,16.67,0,0,1,1400,149.25Z"/><path class="cls-3" d="M1441.35,149.25a16.66,16.66,0,1,1-16.66-16.66,16.66,16.66,0,0,1,16.66,16.66"/><path class="cls-3" d="M1441.35,149.25a16.66,16.66,0,1,1-16.66-16.66A16.66,16.66,0,0,1,1441.35,149.25Z"/><path class="cls-3" d="M1482.68,149.25A16.66,16.66,0,1,1,1466,132.59a16.66,16.66,0,0,1,16.66,16.66"/><path class="cls-3" d="M1482.68,149.25A16.66,16.66,0,1,1,1466,132.59,16.66,16.66,0,0,1,1482.68,149.25Z"/><path class="cls-3" d="M1524,149.25a16.65,16.65,0,1,1-16.65-16.66A16.65,16.65,0,0,1,1524,149.25"/><path class="cls-3" d="M1524,149.25a16.65,16.65,0,1,1-16.65-16.66A16.65,16.65,0,0,1,1524,149.25Z"/><path class="cls-3" d="M1565.34,149.25a16.65,16.65,0,1,1-16.66-16.66,16.65,16.65,0,0,1,16.66,16.66"/><path class="cls-3" d="M1565.34,149.25a16.65,16.65,0,1,1-16.66-16.66A16.65,16.65,0,0,1,1565.34,149.25Z"/><path class="cls-3" d="M1648,149.25a16.65,16.65,0,1,1-16.65-16.66A16.65,16.65,0,0,1,1648,149.25"/><path class="cls-3" d="M1648,149.25a16.65,16.65,0,1,1-16.65-16.66A16.65,16.65,0,0,1,1648,149.25Z"/><path class="cls-3" d="M366.7,107.68A16.66,16.66,0,1,1,350.05,91a16.65,16.65,0,0,1,16.65,16.65"/><path class="cls-3" d="M366.7,107.68A16.66,16.66,0,1,1,350.05,91,16.65,16.65,0,0,1,366.7,107.68Z"/><path class="cls-3" d="M449.36,107.68A16.65,16.65,0,1,1,432.71,91a16.64,16.64,0,0,1,16.65,16.65"/><path class="cls-3" d="M449.36,107.68A16.65,16.65,0,1,1,432.71,91,16.64,16.64,0,0,1,449.36,107.68Z"/><path class="cls-3" d="M490.7,107.68A16.66,16.66,0,1,1,474.05,91a16.65,16.65,0,0,1,16.65,16.65"/><path class="cls-3" d="M490.7,107.68A16.66,16.66,0,1,1,474.05,91,16.65,16.65,0,0,1,490.7,107.68Z"/><path class="cls-3" d="M532,107.68A16.66,16.66,0,1,1,515.38,91,16.64,16.64,0,0,1,532,107.68"/><path class="cls-3" d="M532,107.68A16.66,16.66,0,1,1,515.38,91,16.64,16.64,0,0,1,532,107.68Z"/><path class="cls-3" d="M614.69,107.68A16.65,16.65,0,1,1,598,91a16.64,16.64,0,0,1,16.65,16.65"/><path class="cls-3" d="M614.69,107.68A16.65,16.65,0,1,1,598,91,16.64,16.64,0,0,1,614.69,107.68Z"/><path class="cls-3" d="M656,107.68A16.66,16.66,0,1,1,639.37,91,16.65,16.65,0,0,1,656,107.68"/><path class="cls-3" d="M656,107.68A16.66,16.66,0,1,1,639.37,91,16.65,16.65,0,0,1,656,107.68Z"/><path class="cls-3" d="M697.35,107.68A16.65,16.65,0,1,1,680.7,91a16.64,16.64,0,0,1,16.65,16.65"/><path class="cls-3" d="M697.35,107.68A16.65,16.65,0,1,1,680.7,91,16.64,16.64,0,0,1,697.35,107.68Z"/><path class="cls-3" d="M738.69,107.68A16.66,16.66,0,1,1,722,91a16.64,16.64,0,0,1,16.65,16.65"/><path class="cls-3" d="M738.69,107.68A16.66,16.66,0,1,1,722,91,16.64,16.64,0,0,1,738.69,107.68Z"/><path class="cls-3" d="M780,107.68A16.66,16.66,0,1,1,763.37,91,16.65,16.65,0,0,1,780,107.68"/><path class="cls-3" d="M780,107.68A16.66,16.66,0,1,1,763.37,91,16.65,16.65,0,0,1,780,107.68Z"/><path class="cls-3" d="M821.36,107.68A16.66,16.66,0,1,1,804.7,91a16.65,16.65,0,0,1,16.66,16.65"/><path class="cls-3" d="M821.36,107.68A16.66,16.66,0,1,1,804.7,91,16.65,16.65,0,0,1,821.36,107.68Z"/><path class="cls-3" d="M986.68,107.68A16.65,16.65,0,1,1,970,91a16.64,16.64,0,0,1,16.65,16.65"/><path class="cls-3" d="M986.68,107.68A16.65,16.65,0,1,1,970,91,16.64,16.64,0,0,1,986.68,107.68Z"/><path class="cls-3" d="M1028,107.68A16.66,16.66,0,1,1,1011.37,91,16.65,16.65,0,0,1,1028,107.68"/><path class="cls-3" d="M1028,107.68A16.66,16.66,0,1,1,1011.37,91,16.65,16.65,0,0,1,1028,107.68Z"/><path class="cls-3" d="M1276,107.68A16.65,16.65,0,1,1,1259.36,91,16.64,16.64,0,0,1,1276,107.68"/><path class="cls-3" d="M1276,107.68A16.65,16.65,0,1,1,1259.36,91,16.64,16.64,0,0,1,1276,107.68Z"/><path class="cls-3" d="M1441.35,107.68A16.66,16.66,0,1,1,1424.69,91a16.65,16.65,0,0,1,16.66,16.65"/><path class="cls-3" d="M1441.35,107.68A16.66,16.66,0,1,1,1424.69,91,16.65,16.65,0,0,1,1441.35,107.68Z"/><path class="cls-3" d="M1482.68,107.68A16.66,16.66,0,1,1,1466,91a16.65,16.65,0,0,1,16.66,16.65"/><path class="cls-3" d="M1482.68,107.68A16.66,16.66,0,1,1,1466,91,16.65,16.65,0,0,1,1482.68,107.68Z"/><path class="cls-3" d="M490.7,66.1a16.66,16.66,0,1,1-16.65-16.64A16.66,16.66,0,0,1,490.7,66.1"/><path class="cls-3" d="M490.7,66.1a16.66,16.66,0,1,1-16.65-16.64A16.66,16.66,0,0,1,490.7,66.1Z"/><path class="cls-3" d="M532,66.1a16.66,16.66,0,1,1-16.65-16.64A16.65,16.65,0,0,1,532,66.1"/><path class="cls-3" d="M532,66.1a16.66,16.66,0,1,1-16.65-16.64A16.65,16.65,0,0,1,532,66.1Z"/><path class="cls-3" d="M573.36,66.1a16.66,16.66,0,1,1-16.65-16.64A16.65,16.65,0,0,1,573.36,66.1"/><path class="cls-3" d="M573.36,66.1a16.66,16.66,0,1,1-16.65-16.64A16.65,16.65,0,0,1,573.36,66.1Z"/><path class="cls-3" d="M614.69,66.1A16.65,16.65,0,1,1,598,49.46,16.65,16.65,0,0,1,614.69,66.1"/><path class="cls-3" d="M614.69,66.1A16.65,16.65,0,1,1,598,49.46,16.65,16.65,0,0,1,614.69,66.1Z"/><path class="cls-3" d="M697.35,66.1A16.65,16.65,0,1,1,680.7,49.46,16.65,16.65,0,0,1,697.35,66.1"/><path class="cls-3" d="M697.35,66.1A16.65,16.65,0,1,1,680.7,49.46,16.65,16.65,0,0,1,697.35,66.1Z"/><path class="cls-3" d="M738.69,66.1A16.66,16.66,0,1,1,722,49.46,16.65,16.65,0,0,1,738.69,66.1"/><path class="cls-3" d="M738.69,66.1A16.66,16.66,0,1,1,722,49.46,16.65,16.65,0,0,1,738.69,66.1Z"/><path class="cls-3" d="M780,66.1a16.66,16.66,0,1,1-16.66-16.64A16.66,16.66,0,0,1,780,66.1"/><path class="cls-3" d="M780,66.1a16.66,16.66,0,1,1-16.66-16.64A16.66,16.66,0,0,1,780,66.1Z"/><path class="cls-3" d="M821.36,66.1A16.66,16.66,0,1,1,804.7,49.46,16.66,16.66,0,0,1,821.36,66.1"/><path class="cls-3" d="M821.36,66.1A16.66,16.66,0,1,1,804.7,49.46,16.66,16.66,0,0,1,821.36,66.1Z"/><path class="cls-3" d="M862.69,66.1A16.66,16.66,0,1,1,846,49.46,16.66,16.66,0,0,1,862.69,66.1"/><path class="cls-3" d="M862.69,66.1A16.66,16.66,0,1,1,846,49.46,16.66,16.66,0,0,1,862.69,66.1Z"/><path class="cls-3" d="M986.68,66.1A16.65,16.65,0,1,1,970,49.46,16.65,16.65,0,0,1,986.68,66.1"/><path class="cls-3" d="M986.68,66.1A16.65,16.65,0,1,1,970,49.46,16.65,16.65,0,0,1,986.68,66.1Z"/><path class="cls-3" d="M1234.69,66.1A16.66,16.66,0,1,1,1218,49.46a16.66,16.66,0,0,1,16.66,16.64"/><path class="cls-3" d="M1234.69,66.1A16.66,16.66,0,1,1,1218,49.46,16.66,16.66,0,0,1,1234.69,66.1Z"/><path class="cls-3" d="M1400,66.1a16.66,16.66,0,1,1-16.66-16.64A16.67,16.67,0,0,1,1400,66.1"/><path class="cls-3" d="M1400,66.1a16.66,16.66,0,1,1-16.66-16.64A16.67,16.67,0,0,1,1400,66.1Z"/><path class="cls-3" d="M1441.35,66.1a16.66,16.66,0,1,1-16.66-16.64,16.66,16.66,0,0,1,16.66,16.64"/><path class="cls-3" d="M1441.35,66.1a16.66,16.66,0,1,1-16.66-16.64A16.66,16.66,0,0,1,1441.35,66.1Z"/><path class="cls-3" d="M325.37,440.22a16.66,16.66,0,1,1-16.65-16.65,16.65,16.65,0,0,1,16.65,16.65"/><path class="cls-3" d="M325.37,440.22a16.66,16.66,0,1,1-16.65-16.65A16.65,16.65,0,0,1,325.37,440.22Z"/><path class="cls-3" d="M366.7,440.22a16.66,16.66,0,1,1-16.65-16.65,16.65,16.65,0,0,1,16.65,16.65"/><path class="cls-3" d="M366.7,440.22a16.66,16.66,0,1,1-16.65-16.65A16.65,16.65,0,0,1,366.7,440.22Z"/><path class="cls-3" d="M408,440.22a16.65,16.65,0,1,1-16.66-16.65A16.64,16.64,0,0,1,408,440.22"/><path class="cls-3" d="M408,440.22a16.65,16.65,0,1,1-16.66-16.65A16.64,16.64,0,0,1,408,440.22Z"/><path class="cls-3" d="M449.36,440.22a16.65,16.65,0,1,1-16.65-16.65,16.64,16.64,0,0,1,16.65,16.65"/><path class="cls-3" d="M449.36,440.22a16.65,16.65,0,1,1-16.65-16.65A16.64,16.64,0,0,1,449.36,440.22Z"/><path class="cls-3" d="M490.7,440.22a16.66,16.66,0,1,1-16.65-16.65,16.65,16.65,0,0,1,16.65,16.65"/><path class="cls-3" d="M490.7,440.22a16.66,16.66,0,1,1-16.65-16.65A16.65,16.65,0,0,1,490.7,440.22Z"/><path class="cls-3" d="M532,440.22a16.66,16.66,0,1,1-16.65-16.65A16.64,16.64,0,0,1,532,440.22"/><path class="cls-3" d="M532,440.22a16.66,16.66,0,1,1-16.65-16.65A16.64,16.64,0,0,1,532,440.22Z"/><path class="cls-3" d="M904,440.22a16.65,16.65,0,1,1-16.63-16.65A16.63,16.63,0,0,1,904,440.22"/><path class="cls-3" d="M904,440.22a16.65,16.65,0,1,1-16.63-16.65A16.63,16.63,0,0,1,904,440.22Z"/><path class="cls-3" d="M1110.68,440.22A16.65,16.65,0,1,1,1094,423.57a16.65,16.65,0,0,1,16.65,16.65"/><path class="cls-3" d="M1110.68,440.22A16.65,16.65,0,1,1,1094,423.57,16.65,16.65,0,0,1,1110.68,440.22Z"/><path class="cls-3" d="M1152,440.22a16.65,16.65,0,1,1-16.66-16.65A16.65,16.65,0,0,1,1152,440.22"/><path class="cls-3" d="M1152,440.22a16.65,16.65,0,1,1-16.66-16.65A16.65,16.65,0,0,1,1152,440.22Z"/><path class="cls-3" d="M1193.35,440.22a16.65,16.65,0,1,1-16.65-16.65,16.65,16.65,0,0,1,16.65,16.65"/><path class="cls-3" d="M1193.35,440.22a16.65,16.65,0,1,1-16.65-16.65A16.65,16.65,0,0,1,1193.35,440.22Z"/><path class="cls-3" d="M1234.69,440.22A16.66,16.66,0,1,1,1218,423.57a16.65,16.65,0,0,1,16.66,16.65"/><path class="cls-3" d="M1234.69,440.22A16.66,16.66,0,1,1,1218,423.57,16.65,16.65,0,0,1,1234.69,440.22Z"/><path class="cls-3" d="M1276,440.22a16.65,16.65,0,1,1-16.65-16.65A16.64,16.64,0,0,1,1276,440.22"/><path class="cls-3" d="M1276,440.22a16.65,16.65,0,1,1-16.65-16.65A16.64,16.64,0,0,1,1276,440.22Z"/><path class="cls-3" d="M1317.35,440.22a16.66,16.66,0,1,1-16.65-16.65,16.64,16.64,0,0,1,16.65,16.65"/><path class="cls-3" d="M1317.35,440.22a16.66,16.66,0,1,1-16.65-16.65A16.64,16.64,0,0,1,1317.35,440.22Z"/><path class="cls-3" d="M1358.69,440.22A16.66,16.66,0,1,1,1342,423.57a16.65,16.65,0,0,1,16.66,16.65"/><path class="cls-3" d="M1358.69,440.22A16.66,16.66,0,1,1,1342,423.57,16.65,16.65,0,0,1,1358.69,440.22Z"/><path class="cls-3" d="M1400,440.22a16.66,16.66,0,1,1-16.66-16.65A16.66,16.66,0,0,1,1400,440.22"/><path class="cls-3" d="M1400,440.22a16.66,16.66,0,1,1-16.66-16.65A16.66,16.66,0,0,1,1400,440.22Z"/><path class="cls-3" d="M1441.35,440.22a16.66,16.66,0,1,1-16.66-16.65,16.65,16.65,0,0,1,16.66,16.65"/><path class="cls-3" d="M1441.35,440.22a16.66,16.66,0,1,1-16.66-16.65A16.65,16.65,0,0,1,1441.35,440.22Z"/><path class="cls-3" d="M1482.68,440.22A16.66,16.66,0,1,1,1466,423.57a16.65,16.65,0,0,1,16.66,16.65"/><path class="cls-3" d="M1482.68,440.22A16.66,16.66,0,1,1,1466,423.57,16.65,16.65,0,0,1,1482.68,440.22Z"/><path class="cls-3" d="M1524,440.22a16.65,16.65,0,1,1-16.65-16.65A16.64,16.64,0,0,1,1524,440.22"/><path class="cls-3" d="M1524,440.22a16.65,16.65,0,1,1-16.65-16.65A16.64,16.64,0,0,1,1524,440.22Z"/><path class="cls-3" d="M1565.34,440.22a16.65,16.65,0,1,1-16.66-16.65,16.65,16.65,0,0,1,16.66,16.65"/><path class="cls-3" d="M1565.34,440.22a16.65,16.65,0,1,1-16.66-16.65A16.65,16.65,0,0,1,1565.34,440.22Z"/><path class="cls-3" d="M1606.67,440.22A16.66,16.66,0,1,1,1590,423.57a16.65,16.65,0,0,1,16.64,16.65"/><path class="cls-3" d="M1606.67,440.22A16.66,16.66,0,1,1,1590,423.57,16.65,16.65,0,0,1,1606.67,440.22Z"/><path class="cls-3" d="M1648,440.22a16.65,16.65,0,1,1-16.65-16.65A16.64,16.64,0,0,1,1648,440.22"/><path class="cls-3" d="M1648,440.22a16.65,16.65,0,1,1-16.65-16.65A16.64,16.64,0,0,1,1648,440.22Z"/><path class="cls-3" d="M366.7,481.78a16.66,16.66,0,1,1-16.65-16.65,16.67,16.67,0,0,1,16.65,16.65"/><path class="cls-3" d="M366.7,481.78a16.66,16.66,0,1,1-16.65-16.65A16.67,16.67,0,0,1,366.7,481.78Z"/><path class="cls-3" d="M408,481.78a16.65,16.65,0,1,1-16.66-16.65A16.66,16.66,0,0,1,408,481.78"/><path class="cls-3" d="M408,481.78a16.65,16.65,0,1,1-16.66-16.65A16.66,16.66,0,0,1,408,481.78Z"/><path class="cls-3" d="M449.36,481.78a16.65,16.65,0,1,1-16.65-16.65,16.66,16.66,0,0,1,16.65,16.65"/><path class="cls-3" d="M449.36,481.78a16.65,16.65,0,1,1-16.65-16.65A16.66,16.66,0,0,1,449.36,481.78Z"/><path class="cls-3" d="M532,481.78a16.66,16.66,0,1,1-16.65-16.65A16.66,16.66,0,0,1,532,481.78"/><path class="cls-3" d="M532,481.78a16.66,16.66,0,1,1-16.65-16.65A16.66,16.66,0,0,1,532,481.78Z"/><path class="cls-3" d="M904,481.78a16.65,16.65,0,1,1-16.63-16.65A16.65,16.65,0,0,1,904,481.78"/><path class="cls-3" d="M904,481.78a16.65,16.65,0,1,1-16.63-16.65A16.65,16.65,0,0,1,904,481.78Z"/><path class="cls-3" d="M945.36,481.78a16.66,16.66,0,1,1-16.65-16.65,16.67,16.67,0,0,1,16.65,16.65"/><path class="cls-3" d="M945.36,481.78a16.66,16.66,0,1,1-16.65-16.65A16.67,16.67,0,0,1,945.36,481.78Z"/><path class="cls-3" d="M986.68,481.78A16.65,16.65,0,1,1,970,465.13a16.66,16.66,0,0,1,16.65,16.65"/><path class="cls-3" d="M986.68,481.78A16.65,16.65,0,1,1,970,465.13,16.66,16.66,0,0,1,986.68,481.78Z"/><path class="cls-3" d="M1028,481.78a16.66,16.66,0,1,1-16.65-16.65A16.67,16.67,0,0,1,1028,481.78"/><path class="cls-3" d="M1028,481.78a16.66,16.66,0,1,1-16.65-16.65A16.67,16.67,0,0,1,1028,481.78Z"/><path class="cls-3" d="M1069.35,481.78a16.65,16.65,0,1,1-16.65-16.65,16.67,16.67,0,0,1,16.65,16.65"/><path class="cls-3" d="M1069.35,481.78a16.65,16.65,0,1,1-16.65-16.65A16.67,16.67,0,0,1,1069.35,481.78Z"/><path class="cls-3" d="M1110.68,481.78A16.65,16.65,0,1,1,1094,465.13a16.67,16.67,0,0,1,16.65,16.65"/><path class="cls-3" d="M1110.68,481.78A16.65,16.65,0,1,1,1094,465.13,16.67,16.67,0,0,1,1110.68,481.78Z"/><path class="cls-3" d="M1152,481.78a16.65,16.65,0,1,1-16.66-16.65A16.67,16.67,0,0,1,1152,481.78"/><path class="cls-3" d="M1152,481.78a16.65,16.65,0,1,1-16.66-16.65A16.67,16.67,0,0,1,1152,481.78Z"/><path class="cls-3" d="M1193.35,481.78a16.65,16.65,0,1,1-16.65-16.65,16.67,16.67,0,0,1,16.65,16.65"/><path class="cls-3" d="M1193.35,481.78a16.65,16.65,0,1,1-16.65-16.65A16.67,16.67,0,0,1,1193.35,481.78Z"/><path class="cls-3" d="M1234.69,481.78A16.66,16.66,0,1,1,1218,465.13a16.67,16.67,0,0,1,16.66,16.65"/><path class="cls-3" d="M1234.69,481.78A16.66,16.66,0,1,1,1218,465.13,16.67,16.67,0,0,1,1234.69,481.78Z"/><path class="cls-3" d="M1276,481.78a16.65,16.65,0,1,1-16.65-16.65A16.66,16.66,0,0,1,1276,481.78"/><path class="cls-3" d="M1276,481.78a16.65,16.65,0,1,1-16.65-16.65A16.66,16.66,0,0,1,1276,481.78Z"/><path class="cls-3" d="M1317.35,481.78a16.66,16.66,0,1,1-16.65-16.65,16.66,16.66,0,0,1,16.65,16.65"/><path class="cls-3" d="M1317.35,481.78a16.66,16.66,0,1,1-16.65-16.65A16.66,16.66,0,0,1,1317.35,481.78Z"/><path class="cls-3" d="M1358.69,481.78A16.66,16.66,0,1,1,1342,465.13a16.67,16.67,0,0,1,16.66,16.65"/><path class="cls-3" d="M1358.69,481.78A16.66,16.66,0,1,1,1342,465.13,16.67,16.67,0,0,1,1358.69,481.78Z"/><path class="cls-3" d="M1400,481.78a16.66,16.66,0,1,1-16.66-16.65A16.68,16.68,0,0,1,1400,481.78"/><path class="cls-3" d="M1400,481.78a16.66,16.66,0,1,1-16.66-16.65A16.68,16.68,0,0,1,1400,481.78Z"/><path class="cls-3" d="M1441.35,481.78a16.66,16.66,0,1,1-16.66-16.65,16.67,16.67,0,0,1,16.66,16.65"/><path class="cls-3" d="M1441.35,481.78a16.66,16.66,0,1,1-16.66-16.65A16.67,16.67,0,0,1,1441.35,481.78Z"/><path class="cls-3" d="M1482.68,481.78A16.66,16.66,0,1,1,1466,465.13a16.67,16.67,0,0,1,16.66,16.65"/><path class="cls-3" d="M1482.68,481.78A16.66,16.66,0,1,1,1466,465.13,16.67,16.67,0,0,1,1482.68,481.78Z"/><path class="cls-3" d="M1524,481.78a16.65,16.65,0,1,1-16.65-16.65A16.66,16.66,0,0,1,1524,481.78"/><path class="cls-3" d="M1524,481.78a16.65,16.65,0,1,1-16.65-16.65A16.66,16.66,0,0,1,1524,481.78Z"/><path class="cls-3" d="M1565.34,481.78a16.65,16.65,0,1,1-16.66-16.65,16.66,16.66,0,0,1,16.66,16.65"/><path class="cls-3" d="M1565.34,481.78a16.65,16.65,0,1,1-16.66-16.65A16.66,16.66,0,0,1,1565.34,481.78Z"/><path class="cls-3" d="M408,523.35a16.65,16.65,0,1,1-16.66-16.65A16.65,16.65,0,0,1,408,523.35"/><path class="cls-3" d="M408,523.35a16.65,16.65,0,1,1-16.66-16.65A16.65,16.65,0,0,1,408,523.35Z"/><path class="cls-3" d="M449.36,523.35a16.65,16.65,0,1,1-16.65-16.65,16.65,16.65,0,0,1,16.65,16.65"/><path class="cls-3" d="M449.36,523.35a16.65,16.65,0,1,1-16.65-16.65A16.65,16.65,0,0,1,449.36,523.35Z"/><path class="cls-3" d="M532,523.35a16.66,16.66,0,1,1-16.65-16.65A16.65,16.65,0,0,1,532,523.35"/><path class="cls-3" d="M532,523.35a16.66,16.66,0,1,1-16.65-16.65A16.65,16.65,0,0,1,532,523.35Z"/><path class="cls-3" d="M573.36,523.35a16.66,16.66,0,1,1-16.65-16.65,16.65,16.65,0,0,1,16.65,16.65"/><path class="cls-3" d="M573.36,523.35a16.66,16.66,0,1,1-16.65-16.65A16.65,16.65,0,0,1,573.36,523.35Z"/><path class="cls-3" d="M862.69,523.35A16.66,16.66,0,1,1,846,506.7a16.66,16.66,0,0,1,16.65,16.65"/><path class="cls-3" d="M862.69,523.35A16.66,16.66,0,1,1,846,506.7,16.66,16.66,0,0,1,862.69,523.35Z"/><path class="cls-3" d="M904,523.35a16.65,16.65,0,1,1-16.63-16.65A16.64,16.64,0,0,1,904,523.35"/><path class="cls-3" d="M904,523.35a16.65,16.65,0,1,1-16.63-16.65A16.64,16.64,0,0,1,904,523.35Z"/><path class="cls-3" d="M945.36,523.35a16.66,16.66,0,1,1-16.65-16.65,16.67,16.67,0,0,1,16.65,16.65"/><path class="cls-3" d="M945.36,523.35a16.66,16.66,0,1,1-16.65-16.65A16.67,16.67,0,0,1,945.36,523.35Z"/><path class="cls-3" d="M986.68,523.35A16.65,16.65,0,1,1,970,506.7a16.65,16.65,0,0,1,16.65,16.65"/><path class="cls-3" d="M986.68,523.35A16.65,16.65,0,1,1,970,506.7,16.65,16.65,0,0,1,986.68,523.35Z"/><path class="cls-3" d="M1028,523.35a16.66,16.66,0,1,1-16.65-16.65A16.66,16.66,0,0,1,1028,523.35"/><path class="cls-3" d="M1028,523.35a16.66,16.66,0,1,1-16.65-16.65A16.66,16.66,0,0,1,1028,523.35Z"/><path class="cls-3" d="M1069.35,523.35a16.65,16.65,0,1,1-16.65-16.65,16.66,16.66,0,0,1,16.65,16.65"/><path class="cls-3" d="M1069.35,523.35a16.65,16.65,0,1,1-16.65-16.65A16.66,16.66,0,0,1,1069.35,523.35Z"/><path class="cls-3" d="M1110.68,523.35A16.65,16.65,0,1,1,1094,506.7a16.66,16.66,0,0,1,16.65,16.65"/><path class="cls-3" d="M1110.68,523.35A16.65,16.65,0,1,1,1094,506.7,16.66,16.66,0,0,1,1110.68,523.35Z"/><path class="cls-3" d="M1152,523.35a16.65,16.65,0,1,1-16.66-16.65A16.66,16.66,0,0,1,1152,523.35"/><path class="cls-3" d="M1152,523.35a16.65,16.65,0,1,1-16.66-16.65A16.66,16.66,0,0,1,1152,523.35Z"/><path class="cls-3" d="M1193.35,523.35a16.65,16.65,0,1,1-16.65-16.65,16.66,16.66,0,0,1,16.65,16.65"/><path class="cls-3" d="M1193.35,523.35a16.65,16.65,0,1,1-16.65-16.65A16.66,16.66,0,0,1,1193.35,523.35Z"/><path class="cls-3" d="M1234.69,523.35A16.66,16.66,0,1,1,1218,506.7a16.66,16.66,0,0,1,16.66,16.65"/><path class="cls-3" d="M1234.69,523.35A16.66,16.66,0,1,1,1218,506.7,16.66,16.66,0,0,1,1234.69,523.35Z"/><path class="cls-3" d="M1317.35,523.35a16.66,16.66,0,1,1-16.65-16.65,16.65,16.65,0,0,1,16.65,16.65"/><path class="cls-3" d="M1317.35,523.35a16.66,16.66,0,1,1-16.65-16.65A16.65,16.65,0,0,1,1317.35,523.35Z"/><path class="cls-3" d="M1358.69,523.35A16.66,16.66,0,1,1,1342,506.7a16.66,16.66,0,0,1,16.66,16.65"/><path class="cls-3" d="M1358.69,523.35A16.66,16.66,0,1,1,1342,506.7,16.66,16.66,0,0,1,1358.69,523.35Z"/><path class="cls-3" d="M1400,523.35a16.66,16.66,0,1,1-16.66-16.65A16.67,16.67,0,0,1,1400,523.35"/><path class="cls-3" d="M1400,523.35a16.66,16.66,0,1,1-16.66-16.65A16.67,16.67,0,0,1,1400,523.35Z"/><path class="cls-3" d="M1441.35,523.35a16.66,16.66,0,1,1-16.66-16.65,16.66,16.66,0,0,1,16.66,16.65"/><path class="cls-3" d="M1441.35,523.35a16.66,16.66,0,1,1-16.66-16.65A16.66,16.66,0,0,1,1441.35,523.35Z"/><path class="cls-3" d="M1482.68,523.35A16.66,16.66,0,1,1,1466,506.7a16.66,16.66,0,0,1,16.66,16.65"/><circle class="cls-3" cx="1466.02" cy="523.35" r="16.66" transform="translate(936.99 1987.34) rotate(-89.78)"/><path class="cls-3" d="M1524,523.35a16.65,16.65,0,1,1-16.65-16.65A16.65,16.65,0,0,1,1524,523.35"/><path class="cls-3" d="M1524,523.35a16.65,16.65,0,1,1-16.65-16.65A16.65,16.65,0,0,1,1524,523.35Z"/><path class="cls-3" d="M490.7,564.92a16.66,16.66,0,1,1-16.65-16.66,16.66,16.66,0,0,1,16.65,16.66"/><path class="cls-3" d="M490.7,564.92a16.66,16.66,0,1,1-16.65-16.66A16.66,16.66,0,0,1,490.7,564.92Z"/><path class="cls-3" d="M573.36,564.92a16.66,16.66,0,1,1-16.65-16.66,16.65,16.65,0,0,1,16.65,16.66"/><path class="cls-3" d="M573.36,564.92a16.66,16.66,0,1,1-16.65-16.66A16.65,16.65,0,0,1,573.36,564.92Z"/><path class="cls-3" d="M862.69,564.92A16.66,16.66,0,1,1,846,548.26a16.66,16.66,0,0,1,16.65,16.66"/><path class="cls-3" d="M862.69,564.92A16.66,16.66,0,1,1,846,548.26,16.66,16.66,0,0,1,862.69,564.92Z"/><path class="cls-3" d="M904,564.92a16.65,16.65,0,1,1-16.63-16.66A16.64,16.64,0,0,1,904,564.92"/><path class="cls-3" d="M904,564.92a16.65,16.65,0,1,1-16.63-16.66A16.64,16.64,0,0,1,904,564.92Z"/><path class="cls-3" d="M945.36,564.92a16.66,16.66,0,1,1-16.65-16.66,16.66,16.66,0,0,1,16.65,16.66"/><path class="cls-3" d="M945.36,564.92a16.66,16.66,0,1,1-16.65-16.66A16.66,16.66,0,0,1,945.36,564.92Z"/><path class="cls-3" d="M986.68,564.92A16.65,16.65,0,1,1,970,548.26a16.65,16.65,0,0,1,16.65,16.66"/><path class="cls-3" d="M986.68,564.92A16.65,16.65,0,1,1,970,548.26,16.65,16.65,0,0,1,986.68,564.92Z"/><path class="cls-3" d="M1028,564.92a16.66,16.66,0,1,1-16.65-16.66A16.66,16.66,0,0,1,1028,564.92"/><path class="cls-3" d="M1028,564.92a16.66,16.66,0,1,1-16.65-16.66A16.66,16.66,0,0,1,1028,564.92Z"/><path class="cls-3" d="M1069.35,564.92a16.65,16.65,0,1,1-16.65-16.66,16.66,16.66,0,0,1,16.65,16.66"/><path class="cls-3" d="M1069.35,564.92a16.65,16.65,0,1,1-16.65-16.66A16.66,16.66,0,0,1,1069.35,564.92Z"/><path class="cls-3" d="M1110.68,564.92A16.65,16.65,0,1,1,1094,548.26a16.66,16.66,0,0,1,16.65,16.66"/><path class="cls-3" d="M1110.68,564.92A16.65,16.65,0,1,1,1094,548.26,16.66,16.66,0,0,1,1110.68,564.92Z"/><path class="cls-3" d="M1152,564.92a16.65,16.65,0,1,1-16.66-16.66A16.66,16.66,0,0,1,1152,564.92"/><path class="cls-3" d="M1152,564.92a16.65,16.65,0,1,1-16.66-16.66A16.66,16.66,0,0,1,1152,564.92Z"/><path class="cls-3" d="M1193.35,564.92a16.65,16.65,0,1,1-16.65-16.66,16.66,16.66,0,0,1,16.65,16.66"/><path class="cls-3" d="M1193.35,564.92a16.65,16.65,0,1,1-16.65-16.66A16.66,16.66,0,0,1,1193.35,564.92Z"/><path class="cls-3" d="M1317.35,564.92a16.66,16.66,0,1,1-16.65-16.66,16.65,16.65,0,0,1,16.65,16.66"/><path class="cls-3" d="M1317.35,564.92a16.66,16.66,0,1,1-16.65-16.66A16.65,16.65,0,0,1,1317.35,564.92Z"/><path class="cls-3" d="M1358.69,564.92A16.66,16.66,0,1,1,1342,548.26a16.66,16.66,0,0,1,16.66,16.66"/><path class="cls-3" d="M1358.69,564.92A16.66,16.66,0,1,1,1342,548.26,16.66,16.66,0,0,1,1358.69,564.92Z"/><path class="cls-3" d="M1441.35,564.92a16.66,16.66,0,1,1-16.66-16.66,16.66,16.66,0,0,1,16.66,16.66"/><path class="cls-3" d="M1441.35,564.92a16.66,16.66,0,1,1-16.66-16.66A16.66,16.66,0,0,1,1441.35,564.92Z"/><path class="cls-3" d="M1482.68,564.92A16.66,16.66,0,1,1,1466,548.26a16.66,16.66,0,0,1,16.66,16.66"/><path class="cls-3" d="M1482.68,564.92A16.66,16.66,0,1,1,1466,548.26,16.66,16.66,0,0,1,1482.68,564.92Z"/><path class="cls-3" d="M1565.34,564.92a16.65,16.65,0,1,1-16.66-16.66,16.65,16.65,0,0,1,16.66,16.66"/><path class="cls-3" d="M1565.34,564.92a16.65,16.65,0,1,1-16.66-16.66A16.65,16.65,0,0,1,1565.34,564.92Z"/><path class="cls-3" d="M532,606.49a16.66,16.66,0,1,1-16.65-16.66A16.65,16.65,0,0,1,532,606.49"/><path class="cls-3" d="M532,606.49a16.66,16.66,0,1,1-16.65-16.66A16.65,16.65,0,0,1,532,606.49Z"/><path class="cls-3" d="M573.36,606.49a16.66,16.66,0,1,1-16.65-16.66,16.65,16.65,0,0,1,16.65,16.66"/><path class="cls-3" d="M573.36,606.49a16.66,16.66,0,1,1-16.65-16.66A16.65,16.65,0,0,1,573.36,606.49Z"/><path class="cls-3" d="M614.69,606.49A16.65,16.65,0,1,1,598,589.83a16.65,16.65,0,0,1,16.65,16.66"/><path class="cls-3" d="M614.69,606.49A16.65,16.65,0,1,1,598,589.83,16.65,16.65,0,0,1,614.69,606.49Z"/><path class="cls-3" d="M656,606.49a16.66,16.66,0,1,1-16.66-16.66A16.65,16.65,0,0,1,656,606.49"/><path class="cls-3" d="M656,606.49a16.66,16.66,0,1,1-16.66-16.66A16.65,16.65,0,0,1,656,606.49Z"/><path class="cls-3" d="M904,606.49a16.65,16.65,0,1,1-16.63-16.66A16.64,16.64,0,0,1,904,606.49"/><path class="cls-3" d="M904,606.49a16.65,16.65,0,1,1-16.63-16.66A16.64,16.64,0,0,1,904,606.49Z"/><path class="cls-3" d="M945.36,606.49a16.66,16.66,0,1,1-16.65-16.66,16.66,16.66,0,0,1,16.65,16.66"/><path class="cls-3" d="M945.36,606.49a16.66,16.66,0,1,1-16.65-16.66A16.66,16.66,0,0,1,945.36,606.49Z"/><path class="cls-3" d="M986.68,606.49A16.65,16.65,0,1,1,970,589.83a16.65,16.65,0,0,1,16.65,16.66"/><path class="cls-3" d="M986.68,606.49A16.65,16.65,0,1,1,970,589.83,16.65,16.65,0,0,1,986.68,606.49Z"/><path class="cls-3" d="M1028,606.49a16.66,16.66,0,1,1-16.65-16.66A16.66,16.66,0,0,1,1028,606.49"/><path class="cls-3" d="M1028,606.49a16.66,16.66,0,1,1-16.65-16.66A16.66,16.66,0,0,1,1028,606.49Z"/><path class="cls-3" d="M1069.35,606.49a16.65,16.65,0,1,1-16.65-16.66,16.66,16.66,0,0,1,16.65,16.66"/><path class="cls-3" d="M1069.35,606.49a16.65,16.65,0,1,1-16.65-16.66A16.66,16.66,0,0,1,1069.35,606.49Z"/><path class="cls-3" d="M1110.68,606.49A16.65,16.65,0,1,1,1094,589.83a16.66,16.66,0,0,1,16.65,16.66"/><path class="cls-3" d="M1110.68,606.49A16.65,16.65,0,1,1,1094,589.83,16.66,16.66,0,0,1,1110.68,606.49Z"/><path class="cls-3" d="M1152,606.49a16.65,16.65,0,1,1-16.66-16.66A16.66,16.66,0,0,1,1152,606.49"/><path class="cls-3" d="M1152,606.49a16.65,16.65,0,1,1-16.66-16.66A16.66,16.66,0,0,1,1152,606.49Z"/><path class="cls-3" d="M1193.35,606.49a16.65,16.65,0,1,1-16.65-16.66,16.66,16.66,0,0,1,16.65,16.66"/><path class="cls-3" d="M1193.35,606.49a16.65,16.65,0,1,1-16.65-16.66A16.66,16.66,0,0,1,1193.35,606.49Z"/><path class="cls-3" d="M1358.69,606.49A16.66,16.66,0,1,1,1342,589.83a16.66,16.66,0,0,1,16.66,16.66"/><path class="cls-3" d="M1358.69,606.49A16.66,16.66,0,1,1,1342,589.83,16.66,16.66,0,0,1,1358.69,606.49Z"/><path class="cls-3" d="M1441.35,606.49a16.66,16.66,0,1,1-16.66-16.66,16.66,16.66,0,0,1,16.66,16.66"/><path class="cls-3" d="M1441.35,606.49a16.66,16.66,0,1,1-16.66-16.66A16.66,16.66,0,0,1,1441.35,606.49Z"/><path class="cls-3" d="M532,648.05a16.66,16.66,0,1,1-16.65-16.64A16.65,16.65,0,0,1,532,648.05"/><path class="cls-3" d="M532,648.05a16.66,16.66,0,1,1-16.65-16.64A16.65,16.65,0,0,1,532,648.05Z"/><path class="cls-3" d="M573.36,648.05a16.66,16.66,0,1,1-16.65-16.64,16.65,16.65,0,0,1,16.65,16.64"/><path class="cls-3" d="M573.36,648.05a16.66,16.66,0,1,1-16.65-16.64A16.65,16.65,0,0,1,573.36,648.05Z"/><path class="cls-3" d="M614.69,648.05A16.65,16.65,0,1,1,598,631.41a16.65,16.65,0,0,1,16.65,16.64"/><path class="cls-3" d="M614.69,648.05A16.65,16.65,0,1,1,598,631.41,16.65,16.65,0,0,1,614.69,648.05Z"/><path class="cls-3" d="M656,648.05a16.66,16.66,0,1,1-16.66-16.64A16.65,16.65,0,0,1,656,648.05"/><path class="cls-3" d="M656,648.05a16.66,16.66,0,1,1-16.66-16.64A16.65,16.65,0,0,1,656,648.05Z"/><path class="cls-3" d="M697.35,648.05a16.65,16.65,0,1,1-16.65-16.64,16.64,16.64,0,0,1,16.65,16.64"/><path class="cls-3" d="M697.35,648.05a16.65,16.65,0,1,1-16.65-16.64A16.64,16.64,0,0,1,697.35,648.05Z"/><path class="cls-3" d="M738.69,648.05A16.66,16.66,0,1,1,722,631.41a16.65,16.65,0,0,1,16.65,16.64"/><path class="cls-3" d="M738.69,648.05A16.66,16.66,0,1,1,722,631.41,16.65,16.65,0,0,1,738.69,648.05Z"/><path class="cls-3" d="M986.68,648.05A16.65,16.65,0,1,1,970,631.41a16.65,16.65,0,0,1,16.65,16.64"/><path class="cls-3" d="M986.68,648.05A16.65,16.65,0,1,1,970,631.41,16.65,16.65,0,0,1,986.68,648.05Z"/><path class="cls-3" d="M1028,648.05a16.66,16.66,0,1,1-16.65-16.64A16.65,16.65,0,0,1,1028,648.05"/><path class="cls-3" d="M1028,648.05a16.66,16.66,0,1,1-16.65-16.64A16.65,16.65,0,0,1,1028,648.05Z"/><path class="cls-3" d="M1069.35,648.05a16.65,16.65,0,1,1-16.65-16.64,16.65,16.65,0,0,1,16.65,16.64"/><path class="cls-3" d="M1069.35,648.05a16.65,16.65,0,1,1-16.65-16.64A16.65,16.65,0,0,1,1069.35,648.05Z"/><path class="cls-3" d="M1110.68,648.05A16.65,16.65,0,1,1,1094,631.41a16.65,16.65,0,0,1,16.65,16.64"/><path class="cls-3" d="M1110.68,648.05A16.65,16.65,0,1,1,1094,631.41,16.65,16.65,0,0,1,1110.68,648.05Z"/><path class="cls-3" d="M1152,648.05a16.65,16.65,0,1,1-16.66-16.64A16.65,16.65,0,0,1,1152,648.05"/><path class="cls-3" d="M1152,648.05a16.65,16.65,0,1,1-16.66-16.64A16.65,16.65,0,0,1,1152,648.05Z"/><path class="cls-3" d="M1482.68,648.05A16.66,16.66,0,1,1,1466,631.41a16.65,16.65,0,0,1,16.66,16.64"/><path class="cls-3" d="M1482.68,648.05A16.66,16.66,0,1,1,1466,631.41,16.65,16.65,0,0,1,1482.68,648.05Z"/><path class="cls-3" d="M1524,648.05a16.65,16.65,0,1,1-16.65-16.64A16.65,16.65,0,0,1,1524,648.05"/><path class="cls-3" d="M1524,648.05a16.65,16.65,0,1,1-16.65-16.64A16.65,16.65,0,0,1,1524,648.05Z"/><path class="cls-3" d="M1565.34,648.05a16.65,16.65,0,1,1-16.66-16.64,16.65,16.65,0,0,1,16.66,16.64"/><path class="cls-3" d="M1565.34,648.05a16.65,16.65,0,1,1-16.66-16.64A16.65,16.65,0,0,1,1565.34,648.05Z"/><path class="cls-3" d="M1648,648.05a16.65,16.65,0,1,1-16.65-16.64A16.65,16.65,0,0,1,1648,648.05"/><path class="cls-3" d="M1648,648.05a16.65,16.65,0,1,1-16.65-16.64A16.65,16.65,0,0,1,1648,648.05Z"/><path class="cls-3" d="M1689.34,648.05a16.65,16.65,0,1,1-16.65-16.64,16.65,16.65,0,0,1,16.65,16.64"/><path class="cls-3" d="M1689.34,648.05a16.65,16.65,0,1,1-16.65-16.64A16.65,16.65,0,0,1,1689.34,648.05Z"/><path class="cls-3" d="M532,689.62A16.66,16.66,0,1,1,515.38,673,16.65,16.65,0,0,1,532,689.62"/><path class="cls-3" d="M532,689.62A16.66,16.66,0,1,1,515.38,673,16.65,16.65,0,0,1,532,689.62Z"/><path class="cls-3" d="M573.36,689.62A16.66,16.66,0,1,1,556.71,673a16.65,16.65,0,0,1,16.65,16.65"/><path class="cls-3" d="M573.36,689.62A16.66,16.66,0,1,1,556.71,673,16.65,16.65,0,0,1,573.36,689.62Z"/><path class="cls-3" d="M614.69,689.62A16.65,16.65,0,1,1,598,673a16.65,16.65,0,0,1,16.65,16.65"/><path class="cls-3" d="M614.69,689.62A16.65,16.65,0,1,1,598,673,16.65,16.65,0,0,1,614.69,689.62Z"/><path class="cls-3" d="M656,689.62A16.66,16.66,0,1,1,639.37,673,16.65,16.65,0,0,1,656,689.62"/><path class="cls-3" d="M656,689.62A16.66,16.66,0,1,1,639.37,673,16.65,16.65,0,0,1,656,689.62Z"/><path class="cls-3" d="M697.35,689.62A16.65,16.65,0,1,1,680.7,673a16.65,16.65,0,0,1,16.65,16.65"/><path class="cls-3" d="M697.35,689.62A16.65,16.65,0,1,1,680.7,673,16.65,16.65,0,0,1,697.35,689.62Z"/><path class="cls-3" d="M738.69,689.62A16.66,16.66,0,1,1,722,673a16.65,16.65,0,0,1,16.65,16.65"/><path class="cls-3" d="M738.69,689.62A16.66,16.66,0,1,1,722,673,16.65,16.65,0,0,1,738.69,689.62Z"/><path class="cls-3" d="M1028,689.62A16.66,16.66,0,1,1,1011.37,673,16.66,16.66,0,0,1,1028,689.62"/><path class="cls-3" d="M1028,689.62A16.66,16.66,0,1,1,1011.37,673,16.66,16.66,0,0,1,1028,689.62Z"/><path class="cls-3" d="M1069.35,689.62A16.65,16.65,0,1,1,1052.7,673a16.66,16.66,0,0,1,16.65,16.65"/><path class="cls-3" d="M1069.35,689.62A16.65,16.65,0,1,1,1052.7,673,16.66,16.66,0,0,1,1069.35,689.62Z"/><path class="cls-3" d="M1110.68,689.62A16.65,16.65,0,1,1,1094,673a16.66,16.66,0,0,1,16.65,16.65"/><path class="cls-3" d="M1110.68,689.62A16.65,16.65,0,1,1,1094,673,16.66,16.66,0,0,1,1110.68,689.62Z"/><path class="cls-3" d="M1152,689.62A16.65,16.65,0,1,1,1135.36,673,16.66,16.66,0,0,1,1152,689.62"/><path class="cls-3" d="M1152,689.62A16.65,16.65,0,1,1,1135.36,673,16.66,16.66,0,0,1,1152,689.62Z"/><path class="cls-3" d="M1648,689.62A16.65,16.65,0,1,1,1631.36,673,16.65,16.65,0,0,1,1648,689.62"/><path class="cls-3" d="M1648,689.62A16.65,16.65,0,1,1,1631.36,673,16.65,16.65,0,0,1,1648,689.62Z"/><path class="cls-3" d="M573.36,731.19a16.66,16.66,0,1,1-16.65-16.64,16.64,16.64,0,0,1,16.65,16.64"/><path class="cls-3" d="M573.36,731.19a16.66,16.66,0,1,1-16.65-16.64A16.64,16.64,0,0,1,573.36,731.19Z"/><path class="cls-3" d="M614.69,731.19A16.65,16.65,0,1,1,598,714.55a16.64,16.64,0,0,1,16.65,16.64"/><path class="cls-3" d="M614.69,731.19A16.65,16.65,0,1,1,598,714.55,16.64,16.64,0,0,1,614.69,731.19Z"/><path class="cls-3" d="M656,731.19a16.66,16.66,0,1,1-16.66-16.64A16.65,16.65,0,0,1,656,731.19"/><path class="cls-3" d="M656,731.19a16.66,16.66,0,1,1-16.66-16.64A16.65,16.65,0,0,1,656,731.19Z"/><path class="cls-3" d="M697.35,731.19a16.65,16.65,0,1,1-16.65-16.64,16.64,16.64,0,0,1,16.65,16.64"/><path class="cls-3" d="M697.35,731.19a16.65,16.65,0,1,1-16.65-16.64A16.64,16.64,0,0,1,697.35,731.19Z"/><path class="cls-3" d="M738.69,731.19A16.66,16.66,0,1,1,722,714.55a16.64,16.64,0,0,1,16.65,16.64"/><path class="cls-3" d="M738.69,731.19A16.66,16.66,0,1,1,722,714.55,16.64,16.64,0,0,1,738.69,731.19Z"/><path class="cls-3" d="M1028,731.19a16.66,16.66,0,1,1-16.65-16.64A16.65,16.65,0,0,1,1028,731.19"/><path class="cls-3" d="M1028,731.19a16.66,16.66,0,1,1-16.65-16.64A16.65,16.65,0,0,1,1028,731.19Z"/><path class="cls-3" d="M1069.35,731.19a16.65,16.65,0,1,1-16.65-16.64,16.65,16.65,0,0,1,16.65,16.64"/><path class="cls-3" d="M1069.35,731.19a16.65,16.65,0,1,1-16.65-16.64A16.65,16.65,0,0,1,1069.35,731.19Z"/><path class="cls-3" d="M1110.68,731.19A16.65,16.65,0,1,1,1094,714.55a16.65,16.65,0,0,1,16.65,16.64"/><path class="cls-3" d="M1110.68,731.19A16.65,16.65,0,1,1,1094,714.55,16.65,16.65,0,0,1,1110.68,731.19Z"/><path class="cls-3" d="M1193.35,731.19a16.65,16.65,0,1,1-16.65-16.64,16.65,16.65,0,0,1,16.65,16.64"/><path class="cls-3" d="M1193.35,731.19a16.65,16.65,0,1,1-16.65-16.64A16.65,16.65,0,0,1,1193.35,731.19Z"/><path class="cls-3" d="M1565.34,731.19a16.65,16.65,0,1,1-16.66-16.64,16.65,16.65,0,0,1,16.66,16.64"/><path class="cls-3" d="M1565.34,731.19a16.65,16.65,0,1,1-16.66-16.64A16.65,16.65,0,0,1,1565.34,731.19Z"/><path class="cls-3" d="M1606.67,731.19A16.66,16.66,0,1,1,1590,714.55a16.65,16.65,0,0,1,16.64,16.64"/><path class="cls-3" d="M1606.67,731.19A16.66,16.66,0,1,1,1590,714.55,16.65,16.65,0,0,1,1606.67,731.19Z"/><path class="cls-3" d="M1648,731.19a16.65,16.65,0,1,1-16.65-16.64A16.64,16.64,0,0,1,1648,731.19"/><path class="cls-3" d="M1648,731.19a16.65,16.65,0,1,1-16.65-16.64A16.64,16.64,0,0,1,1648,731.19Z"/><path class="cls-3" d="M1689.34,731.19a16.65,16.65,0,1,1-16.65-16.64,16.64,16.64,0,0,1,16.65,16.64"/><path class="cls-3" d="M1689.34,731.19a16.65,16.65,0,1,1-16.65-16.64A16.64,16.64,0,0,1,1689.34,731.19Z"/><path class="cls-3" d="M614.69,772.75A16.65,16.65,0,1,1,598,756.1a16.65,16.65,0,0,1,16.65,16.65"/><path class="cls-3" d="M614.69,772.75A16.65,16.65,0,1,1,598,756.1,16.65,16.65,0,0,1,614.69,772.75Z"/><path class="cls-3" d="M656,772.75a16.66,16.66,0,1,1-16.66-16.65A16.65,16.65,0,0,1,656,772.75"/><path class="cls-3" d="M656,772.75a16.66,16.66,0,1,1-16.66-16.65A16.65,16.65,0,0,1,656,772.75Z"/><path class="cls-3" d="M697.35,772.75A16.65,16.65,0,1,1,680.7,756.1a16.65,16.65,0,0,1,16.65,16.65"/><path class="cls-3" d="M697.35,772.75A16.65,16.65,0,1,1,680.7,756.1,16.65,16.65,0,0,1,697.35,772.75Z"/><path class="cls-3" d="M1028,772.75a16.66,16.66,0,1,1-16.65-16.65A16.66,16.66,0,0,1,1028,772.75"/><path class="cls-3" d="M1028,772.75a16.66,16.66,0,1,1-16.65-16.65A16.66,16.66,0,0,1,1028,772.75Z"/><path class="cls-3" d="M1069.35,772.75a16.65,16.65,0,1,1-16.65-16.65,16.66,16.66,0,0,1,16.65,16.65"/><path class="cls-3" d="M1069.35,772.75a16.65,16.65,0,1,1-16.65-16.65A16.66,16.66,0,0,1,1069.35,772.75Z"/><path class="cls-3" d="M1110.68,772.75A16.65,16.65,0,1,1,1094,756.1a16.66,16.66,0,0,1,16.65,16.65"/><path class="cls-3" d="M1110.68,772.75A16.65,16.65,0,1,1,1094,756.1,16.66,16.66,0,0,1,1110.68,772.75Z"/><path class="cls-3" d="M1152,772.75a16.65,16.65,0,1,1-16.66-16.65A16.66,16.66,0,0,1,1152,772.75"/><path class="cls-3" d="M1152,772.75a16.65,16.65,0,1,1-16.66-16.65A16.66,16.66,0,0,1,1152,772.75Z"/><path class="cls-3" d="M1524,772.75a16.65,16.65,0,1,1-16.65-16.65A16.65,16.65,0,0,1,1524,772.75"/><path class="cls-3" d="M1524,772.75a16.65,16.65,0,1,1-16.65-16.65A16.65,16.65,0,0,1,1524,772.75Z"/><path class="cls-3" d="M1565.34,772.75a16.65,16.65,0,1,1-16.66-16.65,16.65,16.65,0,0,1,16.66,16.65"/><path class="cls-3" d="M1565.34,772.75a16.65,16.65,0,1,1-16.66-16.65A16.65,16.65,0,0,1,1565.34,772.75Z"/><path class="cls-3" d="M1606.67,772.75A16.66,16.66,0,1,1,1590,756.1a16.66,16.66,0,0,1,16.64,16.65"/><path class="cls-3" d="M1606.67,772.75A16.66,16.66,0,1,1,1590,756.1,16.66,16.66,0,0,1,1606.67,772.75Z"/><path class="cls-3" d="M1648,772.75a16.65,16.65,0,1,1-16.65-16.65A16.65,16.65,0,0,1,1648,772.75"/><path class="cls-3" d="M1648,772.75a16.65,16.65,0,1,1-16.65-16.65A16.65,16.65,0,0,1,1648,772.75Z"/><path class="cls-3" d="M1689.34,772.75a16.65,16.65,0,1,1-16.65-16.65,16.65,16.65,0,0,1,16.65,16.65"/><path class="cls-3" d="M1689.34,772.75a16.65,16.65,0,1,1-16.65-16.65A16.65,16.65,0,0,1,1689.34,772.75Z"/><path class="cls-3" d="M1730.67,772.75A16.65,16.65,0,1,1,1714,756.1a16.65,16.65,0,0,1,16.65,16.65"/><path class="cls-3" d="M1730.67,772.75A16.65,16.65,0,1,1,1714,756.1,16.65,16.65,0,0,1,1730.67,772.75Z"/><path class="cls-3" d="M614.69,814.33A16.65,16.65,0,1,1,598,797.67a16.65,16.65,0,0,1,16.65,16.66"/><path class="cls-3" d="M614.69,814.33A16.65,16.65,0,1,1,598,797.67,16.65,16.65,0,0,1,614.69,814.33Z"/><path class="cls-3" d="M656,814.33a16.66,16.66,0,1,1-16.66-16.66A16.65,16.65,0,0,1,656,814.33"/><path class="cls-3" d="M656,814.33a16.66,16.66,0,1,1-16.66-16.66A16.65,16.65,0,0,1,656,814.33Z"/><path class="cls-3" d="M1028,814.33a16.66,16.66,0,1,1-16.65-16.66A16.66,16.66,0,0,1,1028,814.33"/><path class="cls-3" d="M1028,814.33a16.66,16.66,0,1,1-16.65-16.66A16.66,16.66,0,0,1,1028,814.33Z"/><path class="cls-3" d="M1069.35,814.33a16.65,16.65,0,1,1-16.65-16.66,16.66,16.66,0,0,1,16.65,16.66"/><path class="cls-3" d="M1069.35,814.33a16.65,16.65,0,1,1-16.65-16.66A16.66,16.66,0,0,1,1069.35,814.33Z"/><path class="cls-3" d="M1524,814.33a16.65,16.65,0,1,1-16.65-16.66A16.65,16.65,0,0,1,1524,814.33"/><path class="cls-3" d="M1524,814.33a16.65,16.65,0,1,1-16.65-16.66A16.65,16.65,0,0,1,1524,814.33Z"/><path class="cls-3" d="M1565.34,814.33a16.65,16.65,0,1,1-16.66-16.66,16.65,16.65,0,0,1,16.66,16.66"/><path class="cls-3" d="M1565.34,814.33a16.65,16.65,0,1,1-16.66-16.66A16.65,16.65,0,0,1,1565.34,814.33Z"/><path class="cls-3" d="M1606.67,814.33A16.66,16.66,0,1,1,1590,797.67a16.65,16.65,0,0,1,16.64,16.66"/><path class="cls-3" d="M1606.67,814.33A16.66,16.66,0,1,1,1590,797.67,16.65,16.65,0,0,1,1606.67,814.33Z"/><path class="cls-3" d="M1648,814.33a16.65,16.65,0,1,1-16.65-16.66A16.65,16.65,0,0,1,1648,814.33"/><path class="cls-3" d="M1648,814.33a16.65,16.65,0,1,1-16.65-16.66A16.65,16.65,0,0,1,1648,814.33Z"/><path class="cls-3" d="M1689.34,814.33a16.65,16.65,0,1,1-16.65-16.66,16.65,16.65,0,0,1,16.65,16.66"/><path class="cls-3" d="M1689.34,814.33a16.65,16.65,0,1,1-16.65-16.66A16.65,16.65,0,0,1,1689.34,814.33Z"/><path class="cls-3" d="M1813.35,814.33a16.66,16.66,0,1,1-16.66-16.66,16.67,16.67,0,0,1,16.66,16.66"/><path class="cls-3" d="M1813.35,814.33a16.66,16.66,0,1,1-16.66-16.66A16.67,16.67,0,0,1,1813.35,814.33Z"/><path class="cls-3" d="M573.36,855.89a16.66,16.66,0,1,1-16.65-16.65,16.64,16.64,0,0,1,16.65,16.65"/><path class="cls-3" d="M573.36,855.89a16.66,16.66,0,1,1-16.65-16.65A16.64,16.64,0,0,1,573.36,855.89Z"/><path class="cls-3" d="M614.69,855.89A16.65,16.65,0,1,1,598,839.24a16.64,16.64,0,0,1,16.65,16.65"/><path class="cls-3" d="M614.69,855.89A16.65,16.65,0,1,1,598,839.24,16.64,16.64,0,0,1,614.69,855.89Z"/><path class="cls-3" d="M1648,855.89a16.65,16.65,0,1,1-16.65-16.65A16.64,16.64,0,0,1,1648,855.89"/><path class="cls-3" d="M1648,855.89a16.65,16.65,0,1,1-16.65-16.65A16.64,16.64,0,0,1,1648,855.89Z"/><path class="cls-3" d="M1689.34,855.89a16.65,16.65,0,1,1-16.65-16.65,16.64,16.64,0,0,1,16.65,16.65"/><path class="cls-3" d="M1689.34,855.89a16.65,16.65,0,1,1-16.65-16.65A16.64,16.64,0,0,1,1689.34,855.89Z"/><path class="cls-3" d="M1813.35,855.89a16.66,16.66,0,1,1-16.66-16.65,16.66,16.66,0,0,1,16.66,16.65"/><path class="cls-3" d="M1813.35,855.89a16.66,16.66,0,1,1-16.66-16.65A16.66,16.66,0,0,1,1813.35,855.89Z"/><path class="cls-3" d="M573.36,897.46a16.66,16.66,0,1,1-16.65-16.65,16.65,16.65,0,0,1,16.65,16.65"/><path class="cls-3" d="M573.36,897.46a16.66,16.66,0,1,1-16.65-16.65A16.65,16.65,0,0,1,573.36,897.46Z"/><path class="cls-3" d="M614.69,897.46A16.65,16.65,0,1,1,598,880.81a16.65,16.65,0,0,1,16.65,16.65"/><path class="cls-3" d="M614.69,897.46A16.65,16.65,0,1,1,598,880.81,16.65,16.65,0,0,1,614.69,897.46Z"/><path class="cls-3" d="M1772,897.46a16.66,16.66,0,1,1-16.66-16.65A16.66,16.66,0,0,1,1772,897.46"/><path class="cls-3" d="M1772,897.46a16.66,16.66,0,1,1-16.66-16.65A16.66,16.66,0,0,1,1772,897.46Z"/><path class="cls-3" d="M573.36,939a16.66,16.66,0,1,1-16.65-16.65A16.65,16.65,0,0,1,573.36,939"/><path class="cls-3" d="M573.36,939a16.66,16.66,0,1,1-16.65-16.65A16.65,16.65,0,0,1,573.36,939Z"/><path class="cls-3" d="M325.37,398.65A16.66,16.66,0,1,1,308.72,382a16.67,16.67,0,0,1,16.65,16.65"/><path class="cls-3" d="M325.37,398.65A16.66,16.66,0,1,1,308.72,382,16.67,16.67,0,0,1,325.37,398.65Z"/><path class="cls-3" d="M366.7,398.65A16.66,16.66,0,1,1,350.05,382a16.67,16.67,0,0,1,16.65,16.65"/><path class="cls-3" d="M366.7,398.65A16.66,16.66,0,1,1,350.05,382,16.67,16.67,0,0,1,366.7,398.65Z"/><path class="cls-3" d="M408,398.65A16.65,16.65,0,1,1,391.37,382,16.65,16.65,0,0,1,408,398.65"/><path class="cls-3" d="M408,398.65A16.65,16.65,0,1,1,391.37,382,16.65,16.65,0,0,1,408,398.65Z"/><path class="cls-3" d="M449.36,398.65A16.65,16.65,0,1,1,432.71,382a16.66,16.66,0,0,1,16.65,16.65"/><path class="cls-3" d="M449.36,398.65A16.65,16.65,0,1,1,432.71,382,16.66,16.66,0,0,1,449.36,398.65Z"/><path class="cls-3" d="M490.7,398.65A16.66,16.66,0,1,1,474.05,382a16.67,16.67,0,0,1,16.65,16.65"/><path class="cls-3" d="M490.7,398.65A16.66,16.66,0,1,1,474.05,382,16.67,16.67,0,0,1,490.7,398.65Z"/><path class="cls-3" d="M532,398.65A16.66,16.66,0,1,1,515.38,382,16.66,16.66,0,0,1,532,398.65"/><path class="cls-3" d="M532,398.65A16.66,16.66,0,1,1,515.38,382,16.66,16.66,0,0,1,532,398.65Z"/><path class="cls-3" d="M573.36,398.65A16.66,16.66,0,1,1,556.71,382a16.66,16.66,0,0,1,16.65,16.65"/><path class="cls-3" d="M573.36,398.65A16.66,16.66,0,1,1,556.71,382,16.66,16.66,0,0,1,573.36,398.65Z"/><path class="cls-3" d="M904,398.65A16.65,16.65,0,1,1,887.38,382,16.65,16.65,0,0,1,904,398.65"/><path class="cls-3" d="M904,398.65A16.65,16.65,0,1,1,887.38,382,16.65,16.65,0,0,1,904,398.65Z"/><path class="cls-3" d="M945.36,398.65A16.66,16.66,0,1,1,928.71,382a16.67,16.67,0,0,1,16.65,16.65"/><path class="cls-3" d="M945.36,398.65A16.66,16.66,0,1,1,928.71,382,16.67,16.67,0,0,1,945.36,398.65Z"/><path class="cls-3" d="M986.68,398.65A16.65,16.65,0,1,1,970,382a16.66,16.66,0,0,1,16.65,16.65"/><path class="cls-3" d="M986.68,398.65A16.65,16.65,0,1,1,970,382,16.66,16.66,0,0,1,986.68,398.65Z"/><path class="cls-3" d="M1028,398.65A16.66,16.66,0,1,1,1011.37,382,16.67,16.67,0,0,1,1028,398.65"/><path class="cls-3" d="M1028,398.65A16.66,16.66,0,1,1,1011.37,382,16.67,16.67,0,0,1,1028,398.65Z"/><path class="cls-3" d="M1069.35,398.65A16.65,16.65,0,1,1,1052.7,382a16.67,16.67,0,0,1,16.65,16.65"/><path class="cls-3" d="M1069.35,398.65A16.65,16.65,0,1,1,1052.7,382,16.67,16.67,0,0,1,1069.35,398.65Z"/><path class="cls-3" d="M1152,398.65A16.65,16.65,0,1,1,1135.36,382,16.67,16.67,0,0,1,1152,398.65"/><path class="cls-3" d="M1152,398.65A16.65,16.65,0,1,1,1135.36,382,16.67,16.67,0,0,1,1152,398.65Z"/><path class="cls-3" d="M1234.69,398.65A16.66,16.66,0,1,1,1218,382a16.67,16.67,0,0,1,16.66,16.65"/><path class="cls-3" d="M1234.69,398.65A16.66,16.66,0,1,1,1218,382,16.67,16.67,0,0,1,1234.69,398.65Z"/><path class="cls-3" d="M1276,398.65A16.65,16.65,0,1,1,1259.36,382,16.66,16.66,0,0,1,1276,398.65"/><path class="cls-3" d="M1276,398.65A16.65,16.65,0,1,1,1259.36,382,16.66,16.66,0,0,1,1276,398.65Z"/><path class="cls-3" d="M1317.35,398.65A16.66,16.66,0,1,1,1300.7,382a16.66,16.66,0,0,1,16.65,16.65"/><path class="cls-3" d="M1317.35,398.65A16.66,16.66,0,1,1,1300.7,382,16.66,16.66,0,0,1,1317.35,398.65Z"/><path class="cls-3" d="M1358.69,398.65A16.66,16.66,0,1,1,1342,382a16.67,16.67,0,0,1,16.66,16.65"/><path class="cls-3" d="M1358.69,398.65A16.66,16.66,0,1,1,1342,382,16.67,16.67,0,0,1,1358.69,398.65Z"/><path class="cls-3" d="M1400,398.65A16.66,16.66,0,1,1,1383.36,382,16.67,16.67,0,0,1,1400,398.65"/><path class="cls-3" d="M1400,398.65A16.66,16.66,0,1,1,1383.36,382,16.67,16.67,0,0,1,1400,398.65Z"/><path class="cls-3" d="M1441.35,398.65A16.66,16.66,0,1,1,1424.69,382a16.67,16.67,0,0,1,16.66,16.65"/><path class="cls-3" d="M1441.35,398.65A16.66,16.66,0,1,1,1424.69,382,16.67,16.67,0,0,1,1441.35,398.65Z"/><path class="cls-3" d="M1482.68,398.65A16.66,16.66,0,1,1,1466,382a16.67,16.67,0,0,1,16.66,16.65"/><path class="cls-3" d="M1482.68,398.65A16.66,16.66,0,1,1,1466,382,16.67,16.67,0,0,1,1482.68,398.65Z"/><path class="cls-3" d="M1524,398.65A16.65,16.65,0,1,1,1507.36,382,16.66,16.66,0,0,1,1524,398.65"/><path class="cls-3" d="M1524,398.65A16.65,16.65,0,1,1,1507.36,382,16.66,16.66,0,0,1,1524,398.65Z"/><path class="cls-3" d="M1565.34,398.65A16.65,16.65,0,1,1,1548.68,382a16.66,16.66,0,0,1,16.66,16.65"/><path class="cls-3" d="M1565.34,398.65A16.65,16.65,0,1,1,1548.68,382,16.66,16.66,0,0,1,1565.34,398.65Z"/><path class="cls-3" d="M1606.67,398.65A16.66,16.66,0,1,1,1590,382a16.66,16.66,0,0,1,16.64,16.65"/><path class="cls-3" d="M1606.67,398.65A16.66,16.66,0,1,1,1590,382,16.66,16.66,0,0,1,1606.67,398.65Z"/><path class="cls-3" d="M1689.34,398.65A16.65,16.65,0,1,1,1672.69,382a16.66,16.66,0,0,1,16.65,16.65"/><path class="cls-3" d="M1689.34,398.65A16.65,16.65,0,1,1,1672.69,382,16.66,16.66,0,0,1,1689.34,398.65Z"/><path class="cls-3" d="M325.37,357.08a16.66,16.66,0,1,1-16.65-16.66,16.65,16.65,0,0,1,16.65,16.66"/><path class="cls-3" d="M325.37,357.08a16.66,16.66,0,1,1-16.65-16.66A16.65,16.65,0,0,1,325.37,357.08Z"/><path class="cls-3" d="M366.7,357.08a16.66,16.66,0,1,1-16.65-16.66,16.65,16.65,0,0,1,16.65,16.66"/><path class="cls-3" d="M366.7,357.08a16.66,16.66,0,1,1-16.65-16.66A16.65,16.65,0,0,1,366.7,357.08Z"/><path class="cls-3" d="M408,357.08a16.65,16.65,0,1,1-16.66-16.66A16.64,16.64,0,0,1,408,357.08"/><path class="cls-3" d="M408,357.08a16.65,16.65,0,1,1-16.66-16.66A16.64,16.64,0,0,1,408,357.08Z"/><path class="cls-3" d="M449.36,357.08a16.65,16.65,0,1,1-16.65-16.66,16.64,16.64,0,0,1,16.65,16.66"/><path class="cls-3" d="M449.36,357.08a16.65,16.65,0,1,1-16.65-16.66A16.64,16.64,0,0,1,449.36,357.08Z"/><path class="cls-3" d="M490.7,357.08a16.66,16.66,0,1,1-16.65-16.66,16.65,16.65,0,0,1,16.65,16.66"/><path class="cls-3" d="M490.7,357.08a16.66,16.66,0,1,1-16.65-16.66A16.65,16.65,0,0,1,490.7,357.08Z"/><path class="cls-3" d="M532,357.08a16.66,16.66,0,1,1-16.65-16.66A16.64,16.64,0,0,1,532,357.08"/><path class="cls-3" d="M532,357.08a16.66,16.66,0,1,1-16.65-16.66A16.64,16.64,0,0,1,532,357.08Z"/><path class="cls-3" d="M573.36,357.08a16.66,16.66,0,1,1-16.65-16.66,16.64,16.64,0,0,1,16.65,16.66"/><path class="cls-3" d="M573.36,357.08a16.66,16.66,0,1,1-16.65-16.66A16.64,16.64,0,0,1,573.36,357.08Z"/><path class="cls-3" d="M614.69,357.08A16.65,16.65,0,1,1,598,340.42a16.64,16.64,0,0,1,16.65,16.66"/><path class="cls-3" d="M614.69,357.08A16.65,16.65,0,1,1,598,340.42,16.64,16.64,0,0,1,614.69,357.08Z"/><path class="cls-3" d="M656,357.08a16.66,16.66,0,1,1-16.66-16.66A16.65,16.65,0,0,1,656,357.08"/><path class="cls-3" d="M656,357.08a16.66,16.66,0,1,1-16.66-16.66A16.65,16.65,0,0,1,656,357.08Z"/><path class="cls-3" d="M945.36,357.08a16.66,16.66,0,1,1-16.65-16.66,16.66,16.66,0,0,1,16.65,16.66"/><path class="cls-3" d="M945.36,357.08a16.66,16.66,0,1,1-16.65-16.66A16.66,16.66,0,0,1,945.36,357.08Z"/><path class="cls-3" d="M986.68,357.08A16.65,16.65,0,1,1,970,340.42a16.64,16.64,0,0,1,16.65,16.66"/><path class="cls-3" d="M986.68,357.08A16.65,16.65,0,1,1,970,340.42,16.64,16.64,0,0,1,986.68,357.08Z"/><path class="cls-3" d="M1028,357.08a16.66,16.66,0,1,1-16.65-16.66A16.65,16.65,0,0,1,1028,357.08"/><path class="cls-3" d="M1028,357.08a16.66,16.66,0,1,1-16.65-16.66A16.65,16.65,0,0,1,1028,357.08Z"/><path class="cls-3" d="M1069.35,357.08a16.65,16.65,0,1,1-16.65-16.66,16.65,16.65,0,0,1,16.65,16.66"/><path class="cls-3" d="M1069.35,357.08a16.65,16.65,0,1,1-16.65-16.66A16.65,16.65,0,0,1,1069.35,357.08Z"/><path class="cls-3" d="M1110.68,357.08A16.65,16.65,0,1,1,1094,340.42a16.65,16.65,0,0,1,16.65,16.66"/><path class="cls-3" d="M1110.68,357.08A16.65,16.65,0,1,1,1094,340.42,16.65,16.65,0,0,1,1110.68,357.08Z"/><path class="cls-3" d="M1152,357.08a16.65,16.65,0,1,1-16.66-16.66A16.65,16.65,0,0,1,1152,357.08"/><path class="cls-3" d="M1152,357.08a16.65,16.65,0,1,1-16.66-16.66A16.65,16.65,0,0,1,1152,357.08Z"/><path class="cls-3" d="M1193.35,357.08a16.65,16.65,0,1,1-16.65-16.66,16.65,16.65,0,0,1,16.65,16.66"/><path class="cls-3" d="M1193.35,357.08a16.65,16.65,0,1,1-16.65-16.66A16.65,16.65,0,0,1,1193.35,357.08Z"/><path class="cls-3" d="M1234.69,357.08A16.66,16.66,0,1,1,1218,340.42a16.65,16.65,0,0,1,16.66,16.66"/><path class="cls-3" d="M1234.69,357.08A16.66,16.66,0,1,1,1218,340.42,16.65,16.65,0,0,1,1234.69,357.08Z"/><path class="cls-3" d="M1276,357.08a16.65,16.65,0,1,1-16.65-16.66A16.64,16.64,0,0,1,1276,357.08"/><path class="cls-3" d="M1276,357.08a16.65,16.65,0,1,1-16.65-16.66A16.64,16.64,0,0,1,1276,357.08Z"/><path class="cls-3" d="M1317.35,357.08a16.66,16.66,0,1,1-16.65-16.66,16.64,16.64,0,0,1,16.65,16.66"/><path class="cls-3" d="M1317.35,357.08a16.66,16.66,0,1,1-16.65-16.66A16.64,16.64,0,0,1,1317.35,357.08Z"/><path class="cls-3" d="M1358.69,357.08A16.66,16.66,0,1,1,1342,340.42a16.65,16.65,0,0,1,16.66,16.66"/><path class="cls-3" d="M1358.69,357.08A16.66,16.66,0,1,1,1342,340.42,16.65,16.65,0,0,1,1358.69,357.08Z"/><path class="cls-3" d="M1400,357.08a16.66,16.66,0,1,1-16.66-16.66A16.66,16.66,0,0,1,1400,357.08"/><path class="cls-3" d="M1400,357.08a16.66,16.66,0,1,1-16.66-16.66A16.66,16.66,0,0,1,1400,357.08Z"/><path class="cls-3" d="M1441.35,357.08a16.66,16.66,0,1,1-16.66-16.66,16.65,16.65,0,0,1,16.66,16.66"/><path class="cls-3" d="M1441.35,357.08a16.66,16.66,0,1,1-16.66-16.66A16.65,16.65,0,0,1,1441.35,357.08Z"/><path class="cls-3" d="M1482.68,357.08A16.66,16.66,0,1,1,1466,340.42a16.65,16.65,0,0,1,16.66,16.66"/><path class="cls-3" d="M1482.68,357.08A16.66,16.66,0,1,1,1466,340.42,16.65,16.65,0,0,1,1482.68,357.08Z"/><path class="cls-3" d="M1524,357.08a16.65,16.65,0,1,1-16.65-16.66A16.64,16.64,0,0,1,1524,357.08"/><path class="cls-3" d="M1524,357.08a16.65,16.65,0,1,1-16.65-16.66A16.64,16.64,0,0,1,1524,357.08Z"/><path class="cls-3" d="M1565.34,357.08a16.65,16.65,0,1,1-16.66-16.66,16.65,16.65,0,0,1,16.66,16.66"/><path class="cls-3" d="M1565.34,357.08a16.65,16.65,0,1,1-16.66-16.66A16.65,16.65,0,0,1,1565.34,357.08Z"/><path class="cls-3" d="M1606.67,357.08A16.66,16.66,0,1,1,1590,340.42a16.65,16.65,0,0,1,16.64,16.66"/><path class="cls-3" d="M1606.67,357.08A16.66,16.66,0,1,1,1590,340.42,16.65,16.65,0,0,1,1606.67,357.08Z"/><path class="cls-3" d="M1648,357.08a16.65,16.65,0,1,1-16.65-16.66A16.64,16.64,0,0,1,1648,357.08"/><path class="cls-3" d="M1648,357.08a16.65,16.65,0,1,1-16.65-16.66A16.64,16.64,0,0,1,1648,357.08Z"/><path class="cls-3" d="M1730.67,357.08A16.65,16.65,0,1,1,1714,340.42a16.64,16.64,0,0,1,16.65,16.66"/><path class="cls-3" d="M1730.67,357.08A16.65,16.65,0,1,1,1714,340.42,16.64,16.64,0,0,1,1730.67,357.08Z"/><path class="cls-3" d="M118.71,315.52a16.66,16.66,0,1,1-16.66-16.66,16.67,16.67,0,0,1,16.66,16.66"/><path class="cls-3" d="M118.71,315.52a16.66,16.66,0,1,1-16.66-16.66A16.67,16.67,0,0,1,118.71,315.52Z"/><path class="cls-3" d="M284,315.52a16.66,16.66,0,1,1-16.66-16.66A16.66,16.66,0,0,1,284,315.52"/><path class="cls-3" d="M284,315.52a16.66,16.66,0,1,1-16.66-16.66A16.66,16.66,0,0,1,284,315.52Z"/><path class="cls-3" d="M325.37,315.52a16.66,16.66,0,1,1-16.65-16.66,16.66,16.66,0,0,1,16.65,16.66"/><path class="cls-3" d="M325.37,315.52a16.66,16.66,0,1,1-16.65-16.66A16.66,16.66,0,0,1,325.37,315.52Z"/><path class="cls-3" d="M366.7,315.52a16.66,16.66,0,1,1-16.65-16.66,16.66,16.66,0,0,1,16.65,16.66"/><path class="cls-3" d="M366.7,315.52a16.66,16.66,0,1,1-16.65-16.66A16.66,16.66,0,0,1,366.7,315.52Z"/><path class="cls-3" d="M408,315.52a16.65,16.65,0,1,1-16.66-16.66A16.65,16.65,0,0,1,408,315.52"/><path class="cls-3" d="M408,315.52a16.65,16.65,0,1,1-16.66-16.66A16.65,16.65,0,0,1,408,315.52Z"/><path class="cls-3" d="M449.36,315.52a16.65,16.65,0,1,1-16.65-16.66,16.65,16.65,0,0,1,16.65,16.66"/><path class="cls-3" d="M449.36,315.52a16.65,16.65,0,1,1-16.65-16.66A16.65,16.65,0,0,1,449.36,315.52Z"/><path class="cls-3" d="M490.7,315.52a16.66,16.66,0,1,1-16.65-16.66,16.66,16.66,0,0,1,16.65,16.66"/><path class="cls-3" d="M490.7,315.52a16.66,16.66,0,1,1-16.65-16.66A16.66,16.66,0,0,1,490.7,315.52Z"/><path class="cls-3" d="M532,315.52a16.66,16.66,0,1,1-16.65-16.66A16.65,16.65,0,0,1,532,315.52"/><path class="cls-3" d="M532,315.52a16.66,16.66,0,1,1-16.65-16.66A16.65,16.65,0,0,1,532,315.52Z"/><path class="cls-3" d="M573.36,315.52a16.66,16.66,0,1,1-16.65-16.66,16.65,16.65,0,0,1,16.65,16.66"/><path class="cls-3" d="M573.36,315.52a16.66,16.66,0,1,1-16.65-16.66A16.65,16.65,0,0,1,573.36,315.52Z"/><path class="cls-3" d="M614.69,315.52A16.65,16.65,0,1,1,598,298.86a16.65,16.65,0,0,1,16.65,16.66"/><path class="cls-3" d="M614.69,315.52A16.65,16.65,0,1,1,598,298.86,16.65,16.65,0,0,1,614.69,315.52Z"/><path class="cls-3" d="M656,315.52a16.66,16.66,0,1,1-16.66-16.66A16.65,16.65,0,0,1,656,315.52"/><path class="cls-3" d="M656,315.52a16.66,16.66,0,1,1-16.66-16.66A16.65,16.65,0,0,1,656,315.52Z"/><path class="cls-3" d="M904,315.52a16.65,16.65,0,1,1-16.63-16.66A16.64,16.64,0,0,1,904,315.52"/><path class="cls-3" d="M904,315.52a16.65,16.65,0,1,1-16.63-16.66A16.64,16.64,0,0,1,904,315.52Z"/><path class="cls-3" d="M945.36,315.52a16.66,16.66,0,1,1-16.65-16.66,16.66,16.66,0,0,1,16.65,16.66"/><path class="cls-3" d="M945.36,315.52a16.66,16.66,0,1,1-16.65-16.66A16.66,16.66,0,0,1,945.36,315.52Z"/><path class="cls-3" d="M986.68,315.52A16.65,16.65,0,1,1,970,298.86a16.65,16.65,0,0,1,16.65,16.66"/><path class="cls-3" d="M986.68,315.52A16.65,16.65,0,1,1,970,298.86,16.65,16.65,0,0,1,986.68,315.52Z"/><path class="cls-3" d="M1028,315.52a16.66,16.66,0,1,1-16.65-16.66A16.66,16.66,0,0,1,1028,315.52"/><path class="cls-3" d="M1028,315.52a16.66,16.66,0,1,1-16.65-16.66A16.66,16.66,0,0,1,1028,315.52Z"/><path class="cls-3" d="M1069.35,315.52a16.65,16.65,0,1,1-16.65-16.66,16.66,16.66,0,0,1,16.65,16.66"/><path class="cls-3" d="M1069.35,315.52a16.65,16.65,0,1,1-16.65-16.66A16.66,16.66,0,0,1,1069.35,315.52Z"/><path class="cls-3" d="M1110.68,315.52A16.65,16.65,0,1,1,1094,298.86a16.66,16.66,0,0,1,16.65,16.66"/><path class="cls-3" d="M1110.68,315.52A16.65,16.65,0,1,1,1094,298.86,16.66,16.66,0,0,1,1110.68,315.52Z"/><path class="cls-3" d="M1152,315.52a16.65,16.65,0,1,1-16.66-16.66A16.66,16.66,0,0,1,1152,315.52"/><path class="cls-3" d="M1152,315.52a16.65,16.65,0,1,1-16.66-16.66A16.66,16.66,0,0,1,1152,315.52Z"/><path class="cls-3" d="M1193.35,315.52a16.65,16.65,0,1,1-16.65-16.66,16.66,16.66,0,0,1,16.65,16.66"/><path class="cls-3" d="M1193.35,315.52a16.65,16.65,0,1,1-16.65-16.66A16.66,16.66,0,0,1,1193.35,315.52Z"/><path class="cls-3" d="M1234.69,315.52A16.66,16.66,0,1,1,1218,298.86a16.66,16.66,0,0,1,16.66,16.66"/><path class="cls-3" d="M1234.69,315.52A16.66,16.66,0,1,1,1218,298.86,16.66,16.66,0,0,1,1234.69,315.52Z"/><path class="cls-3" d="M1276,315.52a16.65,16.65,0,1,1-16.65-16.66A16.65,16.65,0,0,1,1276,315.52"/><path class="cls-3" d="M1276,315.52a16.65,16.65,0,1,1-16.65-16.66A16.65,16.65,0,0,1,1276,315.52Z"/><path class="cls-3" d="M1317.35,315.52a16.66,16.66,0,1,1-16.65-16.66,16.65,16.65,0,0,1,16.65,16.66"/><path class="cls-3" d="M1317.35,315.52a16.66,16.66,0,1,1-16.65-16.66A16.65,16.65,0,0,1,1317.35,315.52Z"/><path class="cls-3" d="M1358.69,315.52A16.66,16.66,0,1,1,1342,298.86a16.66,16.66,0,0,1,16.66,16.66"/><path class="cls-3" d="M1358.69,315.52A16.66,16.66,0,1,1,1342,298.86,16.66,16.66,0,0,1,1358.69,315.52Z"/><path class="cls-3" d="M1400,315.52a16.66,16.66,0,1,1-16.66-16.66A16.67,16.67,0,0,1,1400,315.52"/><path class="cls-3" d="M1400,315.52a16.66,16.66,0,1,1-16.66-16.66A16.67,16.67,0,0,1,1400,315.52Z"/><path class="cls-3" d="M1441.35,315.52a16.66,16.66,0,1,1-16.66-16.66,16.66,16.66,0,0,1,16.66,16.66"/><path class="cls-3" d="M1441.35,315.52a16.66,16.66,0,1,1-16.66-16.66A16.66,16.66,0,0,1,1441.35,315.52Z"/><path class="cls-3" d="M1482.68,315.52A16.66,16.66,0,1,1,1466,298.86a16.66,16.66,0,0,1,16.66,16.66"/><path class="cls-3" d="M1482.68,315.52A16.66,16.66,0,1,1,1466,298.86,16.66,16.66,0,0,1,1482.68,315.52Z"/><path class="cls-3" d="M1524,315.52a16.65,16.65,0,1,1-16.65-16.66A16.65,16.65,0,0,1,1524,315.52"/><path class="cls-3" d="M1524,315.52a16.65,16.65,0,1,1-16.65-16.66A16.65,16.65,0,0,1,1524,315.52Z"/><path class="cls-3" d="M1565.34,315.52a16.65,16.65,0,1,1-16.66-16.66,16.65,16.65,0,0,1,16.66,16.66"/><path class="cls-3" d="M1565.34,315.52a16.65,16.65,0,1,1-16.66-16.66A16.65,16.65,0,0,1,1565.34,315.52Z"/><path class="cls-3" d="M1606.67,315.52A16.66,16.66,0,1,1,1590,298.86a16.65,16.65,0,0,1,16.64,16.66"/><path class="cls-3" d="M1606.67,315.52A16.66,16.66,0,1,1,1590,298.86,16.65,16.65,0,0,1,1606.67,315.52Z"/><path class="cls-3" d="M1648,315.52a16.65,16.65,0,1,1-16.65-16.66A16.65,16.65,0,0,1,1648,315.52"/><path class="cls-3" d="M1648,315.52a16.65,16.65,0,1,1-16.65-16.66A16.65,16.65,0,0,1,1648,315.52Z"/><path class="cls-3" d="M1730.67,315.52A16.65,16.65,0,1,1,1714,298.86a16.65,16.65,0,0,1,16.65,16.66"/><path class="cls-3" d="M1730.67,315.52A16.65,16.65,0,1,1,1714,298.86,16.65,16.65,0,0,1,1730.67,315.52Z"/><path class="cls-3" d="M1772,315.52a16.66,16.66,0,1,1-16.66-16.66A16.66,16.66,0,0,1,1772,315.52"/><path class="cls-3" d="M1772,315.52a16.66,16.66,0,1,1-16.66-16.66A16.66,16.66,0,0,1,1772,315.52Z"/><path class="cls-3" d="M118.71,273.94a16.66,16.66,0,1,1-16.66-16.64,16.67,16.67,0,0,1,16.66,16.64"/><path class="cls-3" d="M118.71,273.94a16.66,16.66,0,1,1-16.66-16.64A16.67,16.67,0,0,1,118.71,273.94Z"/><path class="cls-3" d="M160,273.94a16.66,16.66,0,1,1-16.65-16.64A16.66,16.66,0,0,1,160,273.94"/><path class="cls-3" d="M160,273.94a16.66,16.66,0,1,1-16.65-16.64A16.66,16.66,0,0,1,160,273.94Z"/><path class="cls-3" d="M201.37,273.94a16.66,16.66,0,1,1-16.65-16.64,16.66,16.66,0,0,1,16.65,16.64"/><path class="cls-3" d="M201.37,273.94a16.66,16.66,0,1,1-16.65-16.64A16.66,16.66,0,0,1,201.37,273.94Z"/><path class="cls-3" d="M242.69,273.94a16.65,16.65,0,1,1-16.64-16.64,16.64,16.64,0,0,1,16.64,16.64"/><path class="cls-3" d="M242.69,273.94a16.65,16.65,0,1,1-16.64-16.64A16.64,16.64,0,0,1,242.69,273.94Z"/><path class="cls-3" d="M284,273.94a16.66,16.66,0,1,1-16.66-16.64A16.66,16.66,0,0,1,284,273.94"/><path class="cls-3" d="M284,273.94a16.66,16.66,0,1,1-16.66-16.64A16.66,16.66,0,0,1,284,273.94Z"/><path class="cls-3" d="M325.37,273.94a16.66,16.66,0,1,1-16.65-16.64,16.66,16.66,0,0,1,16.65,16.64"/><path class="cls-3" d="M325.37,273.94a16.66,16.66,0,1,1-16.65-16.64A16.66,16.66,0,0,1,325.37,273.94Z"/><path class="cls-3" d="M366.7,273.94a16.66,16.66,0,1,1-16.65-16.64,16.66,16.66,0,0,1,16.65,16.64"/><path class="cls-3" d="M366.7,273.94a16.66,16.66,0,1,1-16.65-16.64A16.66,16.66,0,0,1,366.7,273.94Z"/><path class="cls-3" d="M408,273.94a16.65,16.65,0,1,1-16.66-16.64A16.65,16.65,0,0,1,408,273.94"/><path class="cls-3" d="M408,273.94a16.65,16.65,0,1,1-16.66-16.64A16.65,16.65,0,0,1,408,273.94Z"/><path class="cls-3" d="M449.36,273.94a16.65,16.65,0,1,1-16.65-16.64,16.65,16.65,0,0,1,16.65,16.64"/><path class="cls-3" d="M449.36,273.94a16.65,16.65,0,1,1-16.65-16.64A16.65,16.65,0,0,1,449.36,273.94Z"/><path class="cls-3" d="M573.36,273.94a16.66,16.66,0,1,1-16.65-16.64,16.65,16.65,0,0,1,16.65,16.64"/><path class="cls-3" d="M573.36,273.94a16.66,16.66,0,1,1-16.65-16.64A16.65,16.65,0,0,1,573.36,273.94Z"/><path class="cls-3" d="M614.69,273.94A16.65,16.65,0,1,1,598,257.3a16.65,16.65,0,0,1,16.65,16.64"/><path class="cls-3" d="M614.69,273.94A16.65,16.65,0,1,1,598,257.3,16.65,16.65,0,0,1,614.69,273.94Z"/><path class="cls-3" d="M697.35,273.94A16.65,16.65,0,1,1,680.7,257.3a16.65,16.65,0,0,1,16.65,16.64"/><path class="cls-3" d="M697.35,273.94A16.65,16.65,0,1,1,680.7,257.3,16.65,16.65,0,0,1,697.35,273.94Z"/><path class="cls-3" d="M738.69,273.94A16.66,16.66,0,1,1,722,257.3a16.65,16.65,0,0,1,16.65,16.64"/><path class="cls-3" d="M738.69,273.94A16.66,16.66,0,1,1,722,257.3,16.65,16.65,0,0,1,738.69,273.94Z"/><path class="cls-3" d="M986.68,273.94A16.65,16.65,0,1,1,970,257.3a16.65,16.65,0,0,1,16.65,16.64"/><path class="cls-3" d="M986.68,273.94A16.65,16.65,0,1,1,970,257.3,16.65,16.65,0,0,1,986.68,273.94Z"/><path class="cls-3" d="M1028,273.94a16.66,16.66,0,1,1-16.65-16.64A16.66,16.66,0,0,1,1028,273.94"/><path class="cls-3" d="M1028,273.94a16.66,16.66,0,1,1-16.65-16.64A16.66,16.66,0,0,1,1028,273.94Z"/><path class="cls-3" d="M1110.68,273.94A16.65,16.65,0,1,1,1094,257.3a16.66,16.66,0,0,1,16.65,16.64"/><path class="cls-3" d="M1110.68,273.94A16.65,16.65,0,1,1,1094,257.3,16.66,16.66,0,0,1,1110.68,273.94Z"/><path class="cls-3" d="M1152,273.94a16.65,16.65,0,1,1-16.66-16.64A16.66,16.66,0,0,1,1152,273.94"/><path class="cls-3" d="M1152,273.94a16.65,16.65,0,1,1-16.66-16.64A16.66,16.66,0,0,1,1152,273.94Z"/><path class="cls-3" d="M1193.35,273.94a16.65,16.65,0,1,1-16.65-16.64,16.66,16.66,0,0,1,16.65,16.64"/><path class="cls-3" d="M1193.35,273.94a16.65,16.65,0,1,1-16.65-16.64A16.66,16.66,0,0,1,1193.35,273.94Z"/><path class="cls-3" d="M1234.69,273.94A16.66,16.66,0,1,1,1218,257.3a16.66,16.66,0,0,1,16.66,16.64"/><path class="cls-3" d="M1234.69,273.94A16.66,16.66,0,1,1,1218,257.3,16.66,16.66,0,0,1,1234.69,273.94Z"/><path class="cls-3" d="M1276,273.94a16.65,16.65,0,1,1-16.65-16.64A16.65,16.65,0,0,1,1276,273.94"/><path class="cls-3" d="M1276,273.94a16.65,16.65,0,1,1-16.65-16.64A16.65,16.65,0,0,1,1276,273.94Z"/><path class="cls-3" d="M1317.35,273.94a16.66,16.66,0,1,1-16.65-16.64,16.65,16.65,0,0,1,16.65,16.64"/><path class="cls-3" d="M1317.35,273.94a16.66,16.66,0,1,1-16.65-16.64A16.65,16.65,0,0,1,1317.35,273.94Z"/><path class="cls-3" d="M1358.69,273.94A16.66,16.66,0,1,1,1342,257.3a16.66,16.66,0,0,1,16.66,16.64"/><path class="cls-3" d="M1358.69,273.94A16.66,16.66,0,1,1,1342,257.3,16.66,16.66,0,0,1,1358.69,273.94Z"/><path class="cls-3" d="M1400,273.94a16.66,16.66,0,1,1-16.66-16.64A16.67,16.67,0,0,1,1400,273.94"/><path class="cls-3" d="M1400,273.94a16.66,16.66,0,1,1-16.66-16.64A16.67,16.67,0,0,1,1400,273.94Z"/><path class="cls-3" d="M1441.35,273.94a16.66,16.66,0,1,1-16.66-16.64,16.66,16.66,0,0,1,16.66,16.64"/><path class="cls-3" d="M1441.35,273.94a16.66,16.66,0,1,1-16.66-16.64A16.66,16.66,0,0,1,1441.35,273.94Z"/><path class="cls-3" d="M1482.68,273.94A16.66,16.66,0,1,1,1466,257.3a16.66,16.66,0,0,1,16.66,16.64"/><path class="cls-3" d="M1482.68,273.94A16.66,16.66,0,1,1,1466,257.3,16.66,16.66,0,0,1,1482.68,273.94Z"/><path class="cls-3" d="M1524,273.94a16.65,16.65,0,1,1-16.65-16.64A16.65,16.65,0,0,1,1524,273.94"/><path class="cls-3" d="M1524,273.94a16.65,16.65,0,1,1-16.65-16.64A16.65,16.65,0,0,1,1524,273.94Z"/><path class="cls-3" d="M1565.34,273.94a16.65,16.65,0,1,1-16.66-16.64,16.65,16.65,0,0,1,16.66,16.64"/><path class="cls-3" d="M1565.34,273.94a16.65,16.65,0,1,1-16.66-16.64A16.65,16.65,0,0,1,1565.34,273.94Z"/><path class="cls-3" d="M1606.67,273.94A16.66,16.66,0,1,1,1590,257.3a16.66,16.66,0,0,1,16.64,16.64"/><path class="cls-3" d="M1606.67,273.94A16.66,16.66,0,1,1,1590,257.3,16.66,16.66,0,0,1,1606.67,273.94Z"/><path class="cls-3" d="M1648,273.94a16.65,16.65,0,1,1-16.65-16.64A16.65,16.65,0,0,1,1648,273.94"/><path class="cls-3" d="M1648,273.94a16.65,16.65,0,1,1-16.65-16.64A16.65,16.65,0,0,1,1648,273.94Z"/><path class="cls-3" d="M1689.34,273.94a16.65,16.65,0,1,1-16.65-16.64,16.65,16.65,0,0,1,16.65,16.64"/><path class="cls-3" d="M1689.34,273.94a16.65,16.65,0,1,1-16.65-16.64A16.65,16.65,0,0,1,1689.34,273.94Z"/><path class="cls-3" d="M1730.67,273.94A16.65,16.65,0,1,1,1714,257.3a16.65,16.65,0,0,1,16.65,16.64"/><path class="cls-3" d="M1730.67,273.94A16.65,16.65,0,1,1,1714,257.3,16.65,16.65,0,0,1,1730.67,273.94Z"/><path class="cls-3" d="M1772,273.94a16.66,16.66,0,1,1-16.66-16.64A16.66,16.66,0,0,1,1772,273.94"/><path class="cls-3" d="M1772,273.94a16.66,16.66,0,1,1-16.66-16.64A16.66,16.66,0,0,1,1772,273.94Z"/><path class="cls-3" d="M1813.35,273.94a16.66,16.66,0,1,1-16.66-16.64,16.67,16.67,0,0,1,16.66,16.64"/><path class="cls-3" d="M1813.35,273.94a16.66,16.66,0,1,1-16.66-16.64A16.67,16.67,0,0,1,1813.35,273.94Z"/></g></g></g></svg>