<svg>
<g>
	<g>
		<g class="st0">
			<g>
				<path d="M15.6,88.1c-3.5,0-6.3,2.8-6.3,6.3c0,3.5,2.8,6.3,6.3,6.3c3.5,0,6.3-2.8,6.3-6.3C21.9,91,19.1,88.1,15.6,88.1z"/>
				<path d="M35.4,88.1c-3.5,0-6.3,2.8-6.3,6.3c0,3.5,2.8,6.3,6.3,6.3c3.5,0,6.3-2.8,6.3-6.3C41.7,91,38.9,88.1,35.4,88.1z"/>
				<path d="M55.2,88.1c-3.5,0-6.3,2.8-6.3,6.3c0,3.5,2.8,6.3,6.3,6.3c3.5,0,6.3-2.8,6.3-6.3C61.5,91,58.6,88.1,55.2,88.1z"/>
				<path d="M74.9,88.1c-3.5,0-6.3,2.8-6.3,6.3c0,3.5,2.8,6.3,6.3,6.3c3.5,0,6.3-2.8,6.3-6.3C81.2,91,78.4,88.1,74.9,88.1z"/>
				<path d="M94.7,88.1c-3.5,0-6.3,2.8-6.3,6.3c0,3.5,2.8,6.3,6.3,6.3c3.5,0,6.3-2.8,6.3-6.3C101,91,98.2,88.1,94.7,88.1z"/>
				<path d="M114.5,88.1c-3.5,0-6.3,2.8-6.3,6.3c0,3.5,2.8,6.3,6.3,6.3c3.5,0,6.3-2.8,6.3-6.3C120.8,91,117.9,88.1,114.5,88.1z"/>
				<path d="M134.2,88.1c-3.5,0-6.3,2.8-6.3,6.3c0,3.5,2.8,6.3,6.3,6.3c3.5,0,6.3-2.8,6.3-6.3C140.5,91,137.7,88.1,134.2,88.1z"/>
				<path d="M154,88.1c-3.5,0-6.3,2.8-6.3,6.3c0,3.5,2.8,6.3,6.3,6.3c3.5,0,6.3-2.8,6.3-6.3C160.3,91,157.5,88.1,154,88.1z"/>
				<path d="M173.8,88.1c-3.5,0-6.3,2.8-6.3,6.3c0,3.5,2.8,6.3,6.3,6.3c3.5,0,6.3-2.8,6.3-6.3C180.1,91,177.2,88.1,173.8,88.1z"/>
				<path d="M193.5,88.1c-3.5,0-6.3,2.8-6.3,6.3c0,3.5,2.8,6.3,6.3,6.3c3.5,0,6.3-2.8,6.3-6.3C199.8,91,197,88.1,193.5,88.1z"/>
				<path d="M213.3,88.1c-3.5,0-6.3,2.8-6.3,6.3c0,3.5,2.8,6.3,6.3,6.3c3.5,0,6.3-2.8,6.3-6.3C219.6,91,216.8,88.1,213.3,88.1z"/>
				<path d="M233.1,88.1c-3.5,0-6.3,2.8-6.3,6.3c0,3.5,2.8,6.3,6.3,6.3c3.5,0,6.3-2.8,6.3-6.3C239.4,91,236.5,88.1,233.1,88.1z"/>
				<path d="M252.8,88.1c-3.5,0-6.3,2.8-6.3,6.3c0,3.5,2.8,6.3,6.3,6.3c3.5,0,6.3-2.8,6.3-6.3C259.1,91,256.3,88.1,252.8,88.1z"/>
				<path d="M292.3,88.1c-3.5,0-6.3,2.8-6.3,6.3c0,3.5,2.8,6.3,6.3,6.3s6.3-2.8,6.3-6.3C298.6,91,295.8,88.1,292.3,88.1z"/>
				<path d="M312.1,88.1c-3.5,0-6.3,2.8-6.3,6.3c0,3.5,2.8,6.3,6.3,6.3c3.5,0,6.3-2.8,6.3-6.3C318.4,91,315.6,88.1,312.1,88.1z"/>
				<path d="M331.9,88.1c-3.5,0-6.3,2.8-6.3,6.3c0,3.5,2.8,6.3,6.3,6.3s6.3-2.8,6.3-6.3C338.2,91,335.4,88.1,331.9,88.1z"/>
				<path d="M351.6,88.1c-3.5,0-6.3,2.8-6.3,6.3c0,3.5,2.8,6.3,6.3,6.3c3.5,0,6.3-2.8,6.3-6.3C357.9,91,355.1,88.1,351.6,88.1z"/>
				<path d="M371.4,88.1c-3.5,0-6.3,2.8-6.3,6.3c0,3.5,2.8,6.3,6.3,6.3c3.5,0,6.3-2.8,6.3-6.3C377.7,91,374.9,88.1,371.4,88.1z"/>
				<path d="M450.5,88.1c-3.5,0-6.3,2.8-6.3,6.3c0,3.5,2.8,6.3,6.3,6.3c3.5,0,6.3-2.8,6.3-6.3C456.8,91,454,88.1,450.5,88.1z"/>
				<path d="M470.2,88.1c-3.5,0-6.3,2.8-6.3,6.3c0,3.5,2.8,6.3,6.3,6.3c3.5,0,6.3-2.8,6.3-6.3C476.5,91,473.7,88.1,470.2,88.1z"/>
				<path d="M490,88.1c-3.5,0-6.3,2.8-6.3,6.3c0,3.5,2.8,6.3,6.3,6.3c3.5,0,6.3-2.8,6.3-6.3C496.3,91,493.5,88.1,490,88.1z"/>
				<path d="M509.8,88.1c-3.5,0-6.3,2.8-6.3,6.3c0,3.5,2.8,6.3,6.3,6.3c3.5,0,6.3-2.8,6.3-6.3C516.1,91,513.2,88.1,509.8,88.1z"/>
				<path d="M529.5,88.1c-3.5,0-6.3,2.8-6.3,6.3c0,3.5,2.8,6.3,6.3,6.3c3.5,0,6.3-2.8,6.3-6.3C535.8,91,533,88.1,529.5,88.1z"/>
				<path d="M549.3,88.1c-3.5,0-6.3,2.8-6.3,6.3c0,3.5,2.8,6.3,6.3,6.3s6.3-2.8,6.3-6.3C555.6,91,552.8,88.1,549.3,88.1z"/>
				<path d="M569.1,88.1c-3.5,0-6.3,2.8-6.3,6.3c0,3.5,2.8,6.3,6.3,6.3c3.5,0,6.3-2.8,6.3-6.3C575.4,91,572.5,88.1,569.1,88.1z"/>
				<path d="M588.8,88.1c-3.5,0-6.3,2.8-6.3,6.3c0,3.5,2.8,6.3,6.3,6.3c3.5,0,6.3-2.8,6.3-6.3C595.1,91,592.3,88.1,588.8,88.1z"/>
				<path d="M608.6,88.1c-3.5,0-6.3,2.8-6.3,6.3c0,3.5,2.8,6.3,6.3,6.3s6.3-2.8,6.3-6.3C614.9,91,612.1,88.1,608.6,88.1z"/>
				<path d="M628.4,88.1c-3.5,0-6.3,2.8-6.3,6.3c0,3.5,2.8,6.3,6.3,6.3s6.3-2.8,6.3-6.3C634.7,91,631.8,88.1,628.4,88.1z"/>
				<path d="M648.1,88.1c-3.5,0-6.3,2.8-6.3,6.3c0,3.5,2.8,6.3,6.3,6.3c3.5,0,6.3-2.8,6.3-6.3C654.4,91,651.6,88.1,648.1,88.1z"/>
				<path d="M667.9,88.1c-3.5,0-6.3,2.8-6.3,6.3c0,3.5,2.8,6.3,6.3,6.3c3.5,0,6.3-2.8,6.3-6.3C674.2,91,671.4,88.1,667.9,88.1z"/>
				<path d="M687.7,88.1c-3.5,0-6.3,2.8-6.3,6.3c0,3.5,2.8,6.3,6.3,6.3c3.5,0,6.3-2.8,6.3-6.3C694,91,691.1,88.1,687.7,88.1z"/>
				<path d="M707.4,88.1c-3.5,0-6.3,2.8-6.3,6.3c0,3.5,2.8,6.3,6.3,6.3c3.5,0,6.3-2.8,6.3-6.3C713.7,91,710.9,88.1,707.4,88.1z"/>
				<path d="M727.2,88.1c-3.5,0-6.3,2.8-6.3,6.3c0,3.5,2.8,6.3,6.3,6.3c3.5,0,6.3-2.8,6.3-6.3C733.5,91,730.7,88.1,727.2,88.1z"/>
				<path d="M747,88.1c-3.5,0-6.3,2.8-6.3,6.3c0,3.5,2.8,6.3,6.3,6.3s6.3-2.8,6.3-6.3C753.3,91,750.4,88.1,747,88.1z"/>
				<path d="M766.7,88.1c-3.5,0-6.3,2.8-6.3,6.3c0,3.5,2.8,6.3,6.3,6.3c3.5,0,6.3-2.8,6.3-6.3C773,91,770.2,88.1,766.7,88.1z"/>
				<path d="M786.5,88.1c-3.5,0-6.3,2.8-6.3,6.3c0,3.5,2.8,6.3,6.3,6.3c3.5,0,6.3-2.8,6.3-6.3C792.8,91,790,88.1,786.5,88.1z"/>
				<path d="M806.3,88.1c-3.5,0-6.3,2.8-6.3,6.3c0,3.5,2.8,6.3,6.3,6.3c3.5,0,6.3-2.8,6.3-6.3C812.6,91,809.7,88.1,806.3,88.1z"/>
				<path d="M826,88.1c-3.5,0-6.3,2.8-6.3,6.3c0,3.5,2.8,6.3,6.3,6.3c3.5,0,6.3-2.8,6.3-6.3C832.3,91,829.5,88.1,826,88.1z"/>
				<path d="M845.8,88.1c-3.5,0-6.3,2.8-6.3,6.3c0,3.5,2.8,6.3,6.3,6.3c3.5,0,6.3-2.8,6.3-6.3C852.1,91,849.3,88.1,845.8,88.1z"/>
				<path d="M865.6,88.1c-3.5,0-6.3,2.8-6.3,6.3c0,3.5,2.8,6.3,6.3,6.3c3.5,0,6.3-2.8,6.3-6.3C871.9,91,869,88.1,865.6,88.1z"/>
				<path d="M15.6,68.3c-3.5,0-6.3,2.8-6.3,6.3c0,3.5,2.8,6.3,6.3,6.3c3.5,0,6.3-2.8,6.3-6.3C21.9,71.1,19.1,68.3,15.6,68.3z"/>
				<path d="M35.4,68.3c-3.5,0-6.3,2.8-6.3,6.3c0,3.5,2.8,6.3,6.3,6.3c3.5,0,6.3-2.8,6.3-6.3C41.7,71.1,38.9,68.3,35.4,68.3z"/>
				<path d="M55.2,68.3c-3.5,0-6.3,2.8-6.3,6.3c0,3.5,2.8,6.3,6.3,6.3c3.5,0,6.3-2.8,6.3-6.3C61.5,71.1,58.6,68.3,55.2,68.3z"/>
				<path d="M94.7,68.3c-3.5,0-6.3,2.8-6.3,6.3c0,3.5,2.8,6.3,6.3,6.3c3.5,0,6.3-2.8,6.3-6.3C101,71.1,98.2,68.3,94.7,68.3z"/>
				<path d="M114.5,68.3c-3.5,0-6.3,2.8-6.3,6.3c0,3.5,2.8,6.3,6.3,6.3c3.5,0,6.3-2.8,6.3-6.3C120.8,71.1,117.9,68.3,114.5,68.3z"/>
				<path d="M134.2,68.3c-3.5,0-6.3,2.8-6.3,6.3c0,3.5,2.8,6.3,6.3,6.3c3.5,0,6.3-2.8,6.3-6.3C140.5,71.1,137.7,68.3,134.2,68.3z"/>
				<path d="M154,68.3c-3.5,0-6.3,2.8-6.3,6.3c0,3.5,2.8,6.3,6.3,6.3c3.5,0,6.3-2.8,6.3-6.3C160.3,71.1,157.5,68.3,154,68.3z"/>
				<path d="M173.8,68.3c-3.5,0-6.3,2.8-6.3,6.3c0,3.5,2.8,6.3,6.3,6.3c3.5,0,6.3-2.8,6.3-6.3C180.1,71.1,177.2,68.3,173.8,68.3z"/>
				<path d="M193.5,68.3c-3.5,0-6.3,2.8-6.3,6.3c0,3.5,2.8,6.3,6.3,6.3c3.5,0,6.3-2.8,6.3-6.3C199.8,71.1,197,68.3,193.5,68.3z"/>
				<path d="M213.3,68.3c-3.5,0-6.3,2.8-6.3,6.3c0,3.5,2.8,6.3,6.3,6.3c3.5,0,6.3-2.8,6.3-6.3C219.6,71.1,216.8,68.3,213.3,68.3z"/>
				<path d="M233.1,68.3c-3.5,0-6.3,2.8-6.3,6.3c0,3.5,2.8,6.3,6.3,6.3c3.5,0,6.3-2.8,6.3-6.3C239.4,71.1,236.5,68.3,233.1,68.3z"/>
				<path d="M292.3,68.3c-3.5,0-6.3,2.8-6.3,6.3c0,3.5,2.8,6.3,6.3,6.3s6.3-2.8,6.3-6.3C298.6,71.1,295.8,68.3,292.3,68.3z"/>
				<path d="M312.1,68.3c-3.5,0-6.3,2.8-6.3,6.3c0,3.5,2.8,6.3,6.3,6.3c3.5,0,6.3-2.8,6.3-6.3C318.4,71.1,315.6,68.3,312.1,68.3z"/>
				<path d="M331.9,68.3c-3.5,0-6.3,2.8-6.3,6.3c0,3.5,2.8,6.3,6.3,6.3s6.3-2.8,6.3-6.3C338.2,71.1,335.4,68.3,331.9,68.3z"/>
				<path d="M351.6,68.3c-3.5,0-6.3,2.8-6.3,6.3c0,3.5,2.8,6.3,6.3,6.3c3.5,0,6.3-2.8,6.3-6.3C357.9,71.1,355.1,68.3,351.6,68.3z"/>
				<path d="M470.2,68.3c-3.5,0-6.3,2.8-6.3,6.3c0,3.5,2.8,6.3,6.3,6.3c3.5,0,6.3-2.8,6.3-6.3C476.5,71.1,473.7,68.3,470.2,68.3z"/>
				<path d="M490,68.3c-3.5,0-6.3,2.8-6.3,6.3c0,3.5,2.8,6.3,6.3,6.3c3.5,0,6.3-2.8,6.3-6.3C496.3,71.1,493.5,68.3,490,68.3z"/>
				<path d="M549.3,68.3c-3.5,0-6.3,2.8-6.3,6.3c0,3.5,2.8,6.3,6.3,6.3s6.3-2.8,6.3-6.3C555.6,71.1,552.8,68.3,549.3,68.3z"/>
				<path d="M588.8,68.3c-3.5,0-6.3,2.8-6.3,6.3c0,3.5,2.8,6.3,6.3,6.3c3.5,0,6.3-2.8,6.3-6.3C595.1,71.1,592.3,68.3,588.8,68.3z"/>
				<path d="M608.6,68.3c-3.5,0-6.3,2.8-6.3,6.3c0,3.5,2.8,6.3,6.3,6.3s6.3-2.8,6.3-6.3C614.9,71.1,612.1,68.3,608.6,68.3z"/>
				<path d="M628.4,68.3c-3.5,0-6.3,2.8-6.3,6.3c0,3.5,2.8,6.3,6.3,6.3s6.3-2.8,6.3-6.3C634.7,71.1,631.8,68.3,628.4,68.3z"/>
				<path d="M648.1,68.3c-3.5,0-6.3,2.8-6.3,6.3c0,3.5,2.8,6.3,6.3,6.3c3.5,0,6.3-2.8,6.3-6.3C654.4,71.1,651.6,68.3,648.1,68.3z"/>
				<path d="M667.9,68.3c-3.5,0-6.3,2.8-6.3,6.3c0,3.5,2.8,6.3,6.3,6.3c3.5,0,6.3-2.8,6.3-6.3C674.2,71.1,671.4,68.3,667.9,68.3z"/>
				<path d="M687.7,68.3c-3.5,0-6.3,2.8-6.3,6.3c0,3.5,2.8,6.3,6.3,6.3c3.5,0,6.3-2.8,6.3-6.3C694,71.1,691.1,68.3,687.7,68.3z"/>
				<path d="M707.4,68.3c-3.5,0-6.3,2.8-6.3,6.3c0,3.5,2.8,6.3,6.3,6.3c3.5,0,6.3-2.8,6.3-6.3C713.7,71.1,710.9,68.3,707.4,68.3z"/>
				<path d="M727.2,68.3c-3.5,0-6.3,2.8-6.3,6.3c0,3.5,2.8,6.3,6.3,6.3c3.5,0,6.3-2.8,6.3-6.3C733.5,71.1,730.7,68.3,727.2,68.3z"/>
				<path d="M747,68.3c-3.5,0-6.3,2.8-6.3,6.3c0,3.5,2.8,6.3,6.3,6.3s6.3-2.8,6.3-6.3C753.3,71.1,750.4,68.3,747,68.3z"/>
				<path d="M766.7,68.3c-3.5,0-6.3,2.8-6.3,6.3c0,3.5,2.8,6.3,6.3,6.3c3.5,0,6.3-2.8,6.3-6.3C773,71.1,770.2,68.3,766.7,68.3z"/>
				<path d="M786.5,68.3c-3.5,0-6.3,2.8-6.3,6.3c0,3.5,2.8,6.3,6.3,6.3c3.5,0,6.3-2.8,6.3-6.3C792.8,71.1,790,68.3,786.5,68.3z"/>
				<path d="M806.3,68.3c-3.5,0-6.3,2.8-6.3,6.3c0,3.5,2.8,6.3,6.3,6.3c3.5,0,6.3-2.8,6.3-6.3C812.6,71.1,809.7,68.3,806.3,68.3z"/>
				<path d="M826,68.3c-3.5,0-6.3,2.8-6.3,6.3c0,3.5,2.8,6.3,6.3,6.3c3.5,0,6.3-2.8,6.3-6.3C832.3,71.1,829.5,68.3,826,68.3z"/>
				<path d="M114.5,48.4c-3.5,0-6.3,2.8-6.3,6.3c0,3.5,2.8,6.3,6.3,6.3c3.5,0,6.3-2.8,6.3-6.3C120.8,51.2,117.9,48.4,114.5,48.4z"/>
				<path d="M134.2,48.4c-3.5,0-6.3,2.8-6.3,6.3c0,3.5,2.8,6.3,6.3,6.3c3.5,0,6.3-2.8,6.3-6.3C140.5,51.2,137.7,48.4,134.2,48.4z"/>
				<path d="M173.8,48.4c-3.5,0-6.3,2.8-6.3,6.3c0,3.5,2.8,6.3,6.3,6.3c3.5,0,6.3-2.8,6.3-6.3C180.1,51.2,177.2,48.4,173.8,48.4z"/>
				<path d="M213.3,48.4c-3.5,0-6.3,2.8-6.3,6.3c0,3.5,2.8,6.3,6.3,6.3c3.5,0,6.3-2.8,6.3-6.3C219.6,51.2,216.8,48.4,213.3,48.4z"/>
				<path d="M272.6,48.4c-3.5,0-6.3,2.8-6.3,6.3c0,3.5,2.8,6.3,6.3,6.3c3.5,0,6.3-2.8,6.3-6.3C278.9,51.2,276.1,48.4,272.6,48.4z"/>
				<path d="M292.3,48.4c-3.5,0-6.3,2.8-6.3,6.3c0,3.5,2.8,6.3,6.3,6.3s6.3-2.8,6.3-6.3C298.6,51.2,295.8,48.4,292.3,48.4z"/>
				<path d="M312.1,48.4c-3.5,0-6.3,2.8-6.3,6.3c0,3.5,2.8,6.3,6.3,6.3c3.5,0,6.3-2.8,6.3-6.3C318.4,51.2,315.6,48.4,312.1,48.4z"/>
				<path d="M331.9,48.4c-3.5,0-6.3,2.8-6.3,6.3c0,3.5,2.8,6.3,6.3,6.3s6.3-2.8,6.3-6.3C338.2,51.2,335.4,48.4,331.9,48.4z"/>
				<path d="M351.6,48.4c-3.5,0-6.3,2.8-6.3,6.3c0,3.5,2.8,6.3,6.3,6.3c3.5,0,6.3-2.8,6.3-6.3C357.9,51.2,355.1,48.4,351.6,48.4z"/>
				<path d="M529.5,48.4c-3.5,0-6.3,2.8-6.3,6.3c0,3.5,2.8,6.3,6.3,6.3c3.5,0,6.3-2.8,6.3-6.3C535.8,51.2,533,48.4,529.5,48.4z"/>
				<path d="M549.3,48.4c-3.5,0-6.3,2.8-6.3,6.3c0,3.5,2.8,6.3,6.3,6.3s6.3-2.8,6.3-6.3C555.6,51.2,552.8,48.4,549.3,48.4z"/>
				<path d="M569.1,48.4c-3.5,0-6.3,2.8-6.3,6.3c0,3.5,2.8,6.3,6.3,6.3c3.5,0,6.3-2.8,6.3-6.3C575.4,51.2,572.5,48.4,569.1,48.4z"/>
				<path d="M588.8,48.4c-3.5,0-6.3,2.8-6.3,6.3c0,3.5,2.8,6.3,6.3,6.3c3.5,0,6.3-2.8,6.3-6.3C595.1,51.2,592.3,48.4,588.8,48.4z"/>
				<path d="M628.4,48.4c-3.5,0-6.3,2.8-6.3,6.3c0,3.5,2.8,6.3,6.3,6.3s6.3-2.8,6.3-6.3C634.7,51.2,631.8,48.4,628.4,48.4z"/>
				<path d="M648.1,48.4c-3.5,0-6.3,2.8-6.3,6.3c0,3.5,2.8,6.3,6.3,6.3c3.5,0,6.3-2.8,6.3-6.3C654.4,51.2,651.6,48.4,648.1,48.4z"/>
				<path d="M667.9,48.4c-3.5,0-6.3,2.8-6.3,6.3c0,3.5,2.8,6.3,6.3,6.3c3.5,0,6.3-2.8,6.3-6.3C674.2,51.2,671.4,48.4,667.9,48.4z"/>
				<path d="M687.7,48.4c-3.5,0-6.3,2.8-6.3,6.3c0,3.5,2.8,6.3,6.3,6.3c3.5,0,6.3-2.8,6.3-6.3C694,51.2,691.1,48.4,687.7,48.4z"/>
				<path d="M707.4,48.4c-3.5,0-6.3,2.8-6.3,6.3c0,3.5,2.8,6.3,6.3,6.3c3.5,0,6.3-2.8,6.3-6.3C713.7,51.2,710.9,48.4,707.4,48.4z"/>
				<path d="M747,48.4c-3.5,0-6.3,2.8-6.3,6.3c0,3.5,2.8,6.3,6.3,6.3s6.3-2.8,6.3-6.3C753.3,51.2,750.4,48.4,747,48.4z"/>
				<path d="M134.2,28.5c-3.5,0-6.3,2.8-6.3,6.3c0,3.5,2.8,6.3,6.3,6.3c3.5,0,6.3-2.8,6.3-6.3C140.5,31.3,137.7,28.5,134.2,28.5z"/>
				<path d="M173.8,28.5c-3.5,0-6.3,2.8-6.3,6.3c0,3.5,2.8,6.3,6.3,6.3c3.5,0,6.3-2.8,6.3-6.3C180.1,31.3,177.2,28.5,173.8,28.5z"/>
				<path d="M193.5,28.5c-3.5,0-6.3,2.8-6.3,6.3c0,3.5,2.8,6.3,6.3,6.3c3.5,0,6.3-2.8,6.3-6.3C199.8,31.3,197,28.5,193.5,28.5z"/>
				<path d="M213.3,28.5c-3.5,0-6.3,2.8-6.3,6.3c0,3.5,2.8,6.3,6.3,6.3c3.5,0,6.3-2.8,6.3-6.3C219.6,31.3,216.8,28.5,213.3,28.5z"/>
				<path d="M252.8,28.5c-3.5,0-6.3,2.8-6.3,6.3c0,3.5,2.8,6.3,6.3,6.3c3.5,0,6.3-2.8,6.3-6.3C259.1,31.3,256.3,28.5,252.8,28.5z"/>
				<path d="M272.6,28.5c-3.5,0-6.3,2.8-6.3,6.3c0,3.5,2.8,6.3,6.3,6.3c3.5,0,6.3-2.8,6.3-6.3C278.9,31.3,276.1,28.5,272.6,28.5z"/>
				<path d="M292.3,28.5c-3.5,0-6.3,2.8-6.3,6.3c0,3.5,2.8,6.3,6.3,6.3s6.3-2.8,6.3-6.3C298.6,31.3,295.8,28.5,292.3,28.5z"/>
				<path d="M312.1,28.5c-3.5,0-6.3,2.8-6.3,6.3c0,3.5,2.8,6.3,6.3,6.3c3.5,0,6.3-2.8,6.3-6.3C318.4,31.3,315.6,28.5,312.1,28.5z"/>
				<path d="M331.9,28.5c-3.5,0-6.3,2.8-6.3,6.3c0,3.5,2.8,6.3,6.3,6.3s6.3-2.8,6.3-6.3C338.2,31.3,335.4,28.5,331.9,28.5z"/>
				<path d="M351.6,28.5c-3.5,0-6.3,2.8-6.3,6.3c0,3.5,2.8,6.3,6.3,6.3c3.5,0,6.3-2.8,6.3-6.3C357.9,31.3,355.1,28.5,351.6,28.5z"/>
				<path d="M430.7,28.5c-3.5,0-6.3,2.8-6.3,6.3c0,3.5,2.8,6.3,6.3,6.3c3.5,0,6.3-2.8,6.3-6.3C437,31.3,434.2,28.5,430.7,28.5z"/>
				<path d="M450.5,28.5c-3.5,0-6.3,2.8-6.3,6.3c0,3.5,2.8,6.3,6.3,6.3c3.5,0,6.3-2.8,6.3-6.3C456.8,31.3,454,28.5,450.5,28.5z"/>
				<path d="M569.1,28.5c-3.5,0-6.3,2.8-6.3,6.3c0,3.5,2.8,6.3,6.3,6.3c3.5,0,6.3-2.8,6.3-6.3C575.4,31.3,572.5,28.5,569.1,28.5z"/>
				<path d="M648.1,28.5c-3.5,0-6.3,2.8-6.3,6.3c0,3.5,2.8,6.3,6.3,6.3c3.5,0,6.3-2.8,6.3-6.3C654.4,31.3,651.6,28.5,648.1,28.5z"/>
				<path d="M667.9,28.5c-3.5,0-6.3,2.8-6.3,6.3c0,3.5,2.8,6.3,6.3,6.3c3.5,0,6.3-2.8,6.3-6.3C674.2,31.3,671.4,28.5,667.9,28.5z"/>
				<path d="M193.5,8.6c-3.5,0-6.3,2.8-6.3,6.3c0,3.5,2.8,6.3,6.3,6.3c3.5,0,6.3-2.8,6.3-6.3C199.8,11.5,197,8.6,193.5,8.6z"/>
				<path d="M213.3,8.6c-3.5,0-6.3,2.8-6.3,6.3c0,3.5,2.8,6.3,6.3,6.3c3.5,0,6.3-2.8,6.3-6.3C219.6,11.5,216.8,8.6,213.3,8.6z"/>
				<path d="M233.1,8.6c-3.5,0-6.3,2.8-6.3,6.3c0,3.5,2.8,6.3,6.3,6.3c3.5,0,6.3-2.8,6.3-6.3C239.4,11.5,236.5,8.6,233.1,8.6z"/>
				<path d="M252.8,8.6c-3.5,0-6.3,2.8-6.3,6.3c0,3.5,2.8,6.3,6.3,6.3c3.5,0,6.3-2.8,6.3-6.3C259.1,11.5,256.3,8.6,252.8,8.6z"/>
				<path d="M292.3,8.6c-3.5,0-6.3,2.8-6.3,6.3c0,3.5,2.8,6.3,6.3,6.3s6.3-2.8,6.3-6.3C298.6,11.5,295.8,8.6,292.3,8.6z"/>
				<path d="M312.1,8.6c-3.5,0-6.3,2.8-6.3,6.3c0,3.5,2.8,6.3,6.3,6.3c3.5,0,6.3-2.8,6.3-6.3C318.4,11.5,315.6,8.6,312.1,8.6z"/>
				<path d="M331.9,8.6c-3.5,0-6.3,2.8-6.3,6.3c0,3.5,2.8,6.3,6.3,6.3s6.3-2.8,6.3-6.3C338.2,11.5,335.4,8.6,331.9,8.6z"/>
				<path d="M351.6,8.6c-3.5,0-6.3,2.8-6.3,6.3c0,3.5,2.8,6.3,6.3,6.3c3.5,0,6.3-2.8,6.3-6.3C357.9,11.5,355.1,8.6,351.6,8.6z"/>
				<path d="M371.4,8.6c-3.5,0-6.3,2.8-6.3,6.3c0,3.5,2.8,6.3,6.3,6.3c3.5,0,6.3-2.8,6.3-6.3C377.7,11.5,374.9,8.6,371.4,8.6z"/>
				<path d="M430.7,8.6c-3.5,0-6.3,2.8-6.3,6.3c0,3.5,2.8,6.3,6.3,6.3c3.5,0,6.3-2.8,6.3-6.3C437,11.5,434.2,8.6,430.7,8.6z"/>
				<path d="M549.3,8.6c-3.5,0-6.3,2.8-6.3,6.3c0,3.5,2.8,6.3,6.3,6.3s6.3-2.8,6.3-6.3C555.6,11.5,552.8,8.6,549.3,8.6z"/>
				<path d="M628.4,8.6c-3.5,0-6.3,2.8-6.3,6.3c0,3.5,2.8,6.3,6.3,6.3s6.3-2.8,6.3-6.3C634.7,11.5,631.8,8.6,628.4,8.6z"/>
				<path d="M648.1,8.6c-3.5,0-6.3,2.8-6.3,6.3c0,3.5,2.8,6.3,6.3,6.3c3.5,0,6.3-2.8,6.3-6.3C654.4,11.5,651.6,8.6,648.1,8.6z"/>
				<path d="M114.5,187.5c-3.5,0-6.3,2.8-6.3,6.3c0,3.5,2.8,6.3,6.3,6.3c3.5,0,6.3-2.8,6.3-6.3C120.8,190.4,117.9,187.5,114.5,187.5
					z"/>
				<path d="M134.2,187.5c-3.5,0-6.3,2.8-6.3,6.3c0,3.5,2.8,6.3,6.3,6.3c3.5,0,6.3-2.8,6.3-6.3C140.5,190.4,137.7,187.5,134.2,187.5
					z"/>
				<path d="M154,187.5c-3.5,0-6.3,2.8-6.3,6.3c0,3.5,2.8,6.3,6.3,6.3c3.5,0,6.3-2.8,6.3-6.3C160.3,190.4,157.5,187.5,154,187.5z"/>
				<path d="M173.8,187.5c-3.5,0-6.3,2.8-6.3,6.3c0,3.5,2.8,6.3,6.3,6.3c3.5,0,6.3-2.8,6.3-6.3C180.1,190.4,177.2,187.5,173.8,187.5
					z"/>
				<path d="M193.5,187.5c-3.5,0-6.3,2.8-6.3,6.3c0,3.5,2.8,6.3,6.3,6.3c3.5,0,6.3-2.8,6.3-6.3C199.8,190.4,197,187.5,193.5,187.5z"
					/>
				<path d="M213.3,187.5c-3.5,0-6.3,2.8-6.3,6.3c0,3.5,2.8,6.3,6.3,6.3c3.5,0,6.3-2.8,6.3-6.3C219.6,190.4,216.8,187.5,213.3,187.5
					z"/>
				<path d="M391.2,187.5c-3.5,0-6.3,2.8-6.3,6.3c0,3.5,2.8,6.3,6.3,6.3c3.5,0,6.3-2.8,6.3-6.3C397.5,190.4,394.7,187.5,391.2,187.5
					z"/>
				<path d="M490,187.5c-3.5,0-6.3,2.8-6.3,6.3c0,3.5,2.8,6.3,6.3,6.3c3.5,0,6.3-2.8,6.3-6.3C496.3,190.4,493.5,187.5,490,187.5z"/>
				<path d="M509.8,187.5c-3.5,0-6.3,2.8-6.3,6.3c0,3.5,2.8,6.3,6.3,6.3c3.5,0,6.3-2.8,6.3-6.3C516.1,190.4,513.2,187.5,509.8,187.5
					z"/>
				<path d="M529.5,187.5c-3.5,0-6.3,2.8-6.3,6.3c0,3.5,2.8,6.3,6.3,6.3c3.5,0,6.3-2.8,6.3-6.3C535.8,190.4,533,187.5,529.5,187.5z"
					/>
				<path d="M549.3,187.5c-3.5,0-6.3,2.8-6.3,6.3c0,3.5,2.8,6.3,6.3,6.3s6.3-2.8,6.3-6.3C555.6,190.4,552.8,187.5,549.3,187.5z"/>
				<path d="M569.1,187.5c-3.5,0-6.3,2.8-6.3,6.3c0,3.5,2.8,6.3,6.3,6.3c3.5,0,6.3-2.8,6.3-6.3C575.4,190.4,572.5,187.5,569.1,187.5
					z"/>
				<path d="M588.8,187.5c-3.5,0-6.3,2.8-6.3,6.3c0,3.5,2.8,6.3,6.3,6.3c3.5,0,6.3-2.8,6.3-6.3C595.1,190.4,592.3,187.5,588.8,187.5
					z"/>
				<path d="M608.6,187.5c-3.5,0-6.3,2.8-6.3,6.3c0,3.5,2.8,6.3,6.3,6.3s6.3-2.8,6.3-6.3C614.9,190.4,612.1,187.5,608.6,187.5z"/>
				<path d="M628.4,187.5c-3.5,0-6.3,2.8-6.3,6.3c0,3.5,2.8,6.3,6.3,6.3s6.3-2.8,6.3-6.3C634.7,190.4,631.8,187.5,628.4,187.5z"/>
				<path d="M648.1,187.5c-3.5,0-6.3,2.8-6.3,6.3c0,3.5,2.8,6.3,6.3,6.3c3.5,0,6.3-2.8,6.3-6.3C654.4,190.4,651.6,187.5,648.1,187.5
					z"/>
				<path d="M667.9,187.5c-3.5,0-6.3,2.8-6.3,6.3c0,3.5,2.8,6.3,6.3,6.3c3.5,0,6.3-2.8,6.3-6.3C674.2,190.4,671.4,187.5,667.9,187.5
					z"/>
				<path d="M687.7,187.5c-3.5,0-6.3,2.8-6.3,6.3c0,3.5,2.8,6.3,6.3,6.3c3.5,0,6.3-2.8,6.3-6.3C694,190.4,691.1,187.5,687.7,187.5z"
					/>
				<path d="M707.4,187.5c-3.5,0-6.3,2.8-6.3,6.3c0,3.5,2.8,6.3,6.3,6.3c3.5,0,6.3-2.8,6.3-6.3C713.7,190.4,710.9,187.5,707.4,187.5
					z"/>
				<path d="M727.2,187.5c-3.5,0-6.3,2.8-6.3,6.3c0,3.5,2.8,6.3,6.3,6.3c3.5,0,6.3-2.8,6.3-6.3C733.5,190.4,730.7,187.5,727.2,187.5
					z"/>
				<path d="M747,187.5c-3.5,0-6.3,2.8-6.3,6.3c0,3.5,2.8,6.3,6.3,6.3s6.3-2.8,6.3-6.3C753.3,190.4,750.4,187.5,747,187.5z"/>
				<path d="M134.2,207.4c-3.5,0-6.3,2.8-6.3,6.3c0,3.5,2.8,6.3,6.3,6.3c3.5,0,6.3-2.8,6.3-6.3C140.5,210.2,137.7,207.4,134.2,207.4
					z"/>
				<path d="M154,207.4c-3.5,0-6.3,2.8-6.3,6.3c0,3.5,2.8,6.3,6.3,6.3c3.5,0,6.3-2.8,6.3-6.3C160.3,210.2,157.5,207.4,154,207.4z"/>
				<path d="M173.8,207.4c-3.5,0-6.3,2.8-6.3,6.3c0,3.5,2.8,6.3,6.3,6.3c3.5,0,6.3-2.8,6.3-6.3C180.1,210.2,177.2,207.4,173.8,207.4
					z"/>
				<path d="M213.3,207.4c-3.5,0-6.3,2.8-6.3,6.3c0,3.5,2.8,6.3,6.3,6.3c3.5,0,6.3-2.8,6.3-6.3C219.6,210.2,216.8,207.4,213.3,207.4
					z"/>
				<path d="M391.2,207.4c-3.5,0-6.3,2.8-6.3,6.3c0,3.5,2.8,6.3,6.3,6.3c3.5,0,6.3-2.8,6.3-6.3C397.5,210.2,394.7,207.4,391.2,207.4
					z"/>
				<path d="M410.9,207.4c-3.5,0-6.3,2.8-6.3,6.3c0,3.5,2.8,6.3,6.3,6.3c3.5,0,6.3-2.8,6.3-6.3C417.2,210.2,414.4,207.4,410.9,207.4
					z"/>
				<path d="M430.7,207.4c-3.5,0-6.3,2.8-6.3,6.3c0,3.5,2.8,6.3,6.3,6.3c3.5,0,6.3-2.8,6.3-6.3C437,210.2,434.2,207.4,430.7,207.4z"
					/>
				<path d="M450.5,207.4c-3.5,0-6.3,2.8-6.3,6.3c0,3.5,2.8,6.3,6.3,6.3c3.5,0,6.3-2.8,6.3-6.3C456.8,210.2,454,207.4,450.5,207.4z"
					/>
				<path d="M470.2,207.4c-3.5,0-6.3,2.8-6.3,6.3c0,3.5,2.8,6.3,6.3,6.3c3.5,0,6.3-2.8,6.3-6.3C476.5,210.2,473.7,207.4,470.2,207.4
					z"/>
				<path d="M490,207.4c-3.5,0-6.3,2.8-6.3,6.3c0,3.5,2.8,6.3,6.3,6.3c3.5,0,6.3-2.8,6.3-6.3C496.3,210.2,493.5,207.4,490,207.4z"/>
				<path d="M509.8,207.4c-3.5,0-6.3,2.8-6.3,6.3c0,3.5,2.8,6.3,6.3,6.3c3.5,0,6.3-2.8,6.3-6.3C516.1,210.2,513.2,207.4,509.8,207.4
					z"/>
				<path d="M529.5,207.4c-3.5,0-6.3,2.8-6.3,6.3c0,3.5,2.8,6.3,6.3,6.3c3.5,0,6.3-2.8,6.3-6.3C535.8,210.2,533,207.4,529.5,207.4z"
					/>
				<path d="M549.3,207.4c-3.5,0-6.3,2.8-6.3,6.3c0,3.5,2.8,6.3,6.3,6.3s6.3-2.8,6.3-6.3C555.6,210.2,552.8,207.4,549.3,207.4z"/>
				<path d="M569.1,207.4c-3.5,0-6.3,2.8-6.3,6.3c0,3.5,2.8,6.3,6.3,6.3c3.5,0,6.3-2.8,6.3-6.3C575.4,210.2,572.5,207.4,569.1,207.4
					z"/>
				<path d="M588.8,207.4c-3.5,0-6.3,2.8-6.3,6.3c0,3.5,2.8,6.3,6.3,6.3c3.5,0,6.3-2.8,6.3-6.3C595.1,210.2,592.3,207.4,588.8,207.4
					z"/>
				<path d="M608.6,207.4c-3.5,0-6.3,2.8-6.3,6.3c0,3.5,2.8,6.3,6.3,6.3s6.3-2.8,6.3-6.3C614.9,210.2,612.1,207.4,608.6,207.4z"/>
				<path d="M628.4,207.4c-3.5,0-6.3,2.8-6.3,6.3c0,3.5,2.8,6.3,6.3,6.3s6.3-2.8,6.3-6.3C634.7,210.2,631.8,207.4,628.4,207.4z"/>
				<path d="M648.1,207.4c-3.5,0-6.3,2.8-6.3,6.3c0,3.5,2.8,6.3,6.3,6.3c3.5,0,6.3-2.8,6.3-6.3C654.4,210.2,651.6,207.4,648.1,207.4
					z"/>
				<path d="M667.9,207.4c-3.5,0-6.3,2.8-6.3,6.3c0,3.5,2.8,6.3,6.3,6.3c3.5,0,6.3-2.8,6.3-6.3C674.2,210.2,671.4,207.4,667.9,207.4
					z"/>
				<path d="M687.7,207.4c-3.5,0-6.3,2.8-6.3,6.3c0,3.5,2.8,6.3,6.3,6.3c3.5,0,6.3-2.8,6.3-6.3C694,210.2,691.1,207.4,687.7,207.4z"
					/>
				<path d="M707.4,207.4c-3.5,0-6.3,2.8-6.3,6.3c0,3.5,2.8,6.3,6.3,6.3c3.5,0,6.3-2.8,6.3-6.3C713.7,210.2,710.9,207.4,707.4,207.4
					z"/>
				<path d="M154,227.3c-3.5,0-6.3,2.8-6.3,6.3s2.8,6.3,6.3,6.3c3.5,0,6.3-2.8,6.3-6.3S157.5,227.3,154,227.3z"/>
				<path d="M173.8,227.3c-3.5,0-6.3,2.8-6.3,6.3s2.8,6.3,6.3,6.3c3.5,0,6.3-2.8,6.3-6.3S177.2,227.3,173.8,227.3z"/>
				<path d="M213.3,227.3c-3.5,0-6.3,2.8-6.3,6.3s2.8,6.3,6.3,6.3c3.5,0,6.3-2.8,6.3-6.3S216.8,227.3,213.3,227.3z"/>
				<path d="M233.1,227.3c-3.5,0-6.3,2.8-6.3,6.3s2.8,6.3,6.3,6.3c3.5,0,6.3-2.8,6.3-6.3S236.5,227.3,233.1,227.3z"/>
				<path d="M371.4,227.3c-3.5,0-6.3,2.8-6.3,6.3s2.8,6.3,6.3,6.3c3.5,0,6.3-2.8,6.3-6.3S374.9,227.3,371.4,227.3z"/>
				<path d="M391.2,227.3c-3.5,0-6.3,2.8-6.3,6.3s2.8,6.3,6.3,6.3c3.5,0,6.3-2.8,6.3-6.3S394.7,227.3,391.2,227.3z"/>
				<path d="M410.9,227.3c-3.5,0-6.3,2.8-6.3,6.3s2.8,6.3,6.3,6.3c3.5,0,6.3-2.8,6.3-6.3S414.4,227.3,410.9,227.3z"/>
				<path d="M430.7,227.3c-3.5,0-6.3,2.8-6.3,6.3s2.8,6.3,6.3,6.3c3.5,0,6.3-2.8,6.3-6.3S434.2,227.3,430.7,227.3z"/>
				<path d="M450.5,227.3c-3.5,0-6.3,2.8-6.3,6.3s2.8,6.3,6.3,6.3c3.5,0,6.3-2.8,6.3-6.3S454,227.3,450.5,227.3z"/>
				<path d="M470.2,227.3c-3.5,0-6.3,2.8-6.3,6.3s2.8,6.3,6.3,6.3c3.5,0,6.3-2.8,6.3-6.3S473.7,227.3,470.2,227.3z"/>
				<path d="M490,227.3c-3.5,0-6.3,2.8-6.3,6.3s2.8,6.3,6.3,6.3c3.5,0,6.3-2.8,6.3-6.3S493.5,227.3,490,227.3z"/>
				<path d="M509.8,227.3c-3.5,0-6.3,2.8-6.3,6.3s2.8,6.3,6.3,6.3c3.5,0,6.3-2.8,6.3-6.3S513.2,227.3,509.8,227.3z"/>
				<path d="M529.5,227.3c-3.5,0-6.3,2.8-6.3,6.3s2.8,6.3,6.3,6.3c3.5,0,6.3-2.8,6.3-6.3S533,227.3,529.5,227.3z"/>
				<path d="M549.3,227.3c-3.5,0-6.3,2.8-6.3,6.3s2.8,6.3,6.3,6.3s6.3-2.8,6.3-6.3S552.8,227.3,549.3,227.3z"/>
				<path d="M588.8,227.3c-3.5,0-6.3,2.8-6.3,6.3s2.8,6.3,6.3,6.3c3.5,0,6.3-2.8,6.3-6.3S592.3,227.3,588.8,227.3z"/>
				<path d="M608.6,227.3c-3.5,0-6.3,2.8-6.3,6.3s2.8,6.3,6.3,6.3s6.3-2.8,6.3-6.3S612.1,227.3,608.6,227.3z"/>
				<path d="M628.4,227.3c-3.5,0-6.3,2.8-6.3,6.3s2.8,6.3,6.3,6.3s6.3-2.8,6.3-6.3S631.8,227.3,628.4,227.3z"/>
				<path d="M648.1,227.3c-3.5,0-6.3,2.8-6.3,6.3s2.8,6.3,6.3,6.3c3.5,0,6.3-2.8,6.3-6.3S651.6,227.3,648.1,227.3z"/>
				<path d="M667.9,227.3c-3.5,0-6.3,2.8-6.3,6.3s2.8,6.3,6.3,6.3c3.5,0,6.3-2.8,6.3-6.3S671.4,227.3,667.9,227.3z"/>
				<path d="M687.7,227.3c-3.5,0-6.3,2.8-6.3,6.3s2.8,6.3,6.3,6.3c3.5,0,6.3-2.8,6.3-6.3S691.1,227.3,687.7,227.3z"/>
				<path d="M193.5,247.2c-3.5,0-6.3,2.8-6.3,6.3s2.8,6.3,6.3,6.3c3.5,0,6.3-2.8,6.3-6.3S197,247.2,193.5,247.2z"/>
				<path d="M233.1,247.2c-3.5,0-6.3,2.8-6.3,6.3s2.8,6.3,6.3,6.3c3.5,0,6.3-2.8,6.3-6.3S236.5,247.2,233.1,247.2z"/>
				<path d="M371.4,247.2c-3.5,0-6.3,2.8-6.3,6.3s2.8,6.3,6.3,6.3c3.5,0,6.3-2.8,6.3-6.3S374.9,247.2,371.4,247.2z"/>
				<path d="M391.2,247.2c-3.5,0-6.3,2.8-6.3,6.3s2.8,6.3,6.3,6.3c3.5,0,6.3-2.8,6.3-6.3S394.7,247.2,391.2,247.2z"/>
				<path d="M410.9,247.2c-3.5,0-6.3,2.8-6.3,6.3s2.8,6.3,6.3,6.3c3.5,0,6.3-2.8,6.3-6.3S414.4,247.2,410.9,247.2z"/>
				<path d="M430.7,247.2c-3.5,0-6.3,2.8-6.3,6.3s2.8,6.3,6.3,6.3c3.5,0,6.3-2.8,6.3-6.3S434.2,247.2,430.7,247.2z"/>
				<path d="M450.5,247.2c-3.5,0-6.3,2.8-6.3,6.3s2.8,6.3,6.3,6.3c3.5,0,6.3-2.8,6.3-6.3S454,247.2,450.5,247.2z"/>
				<path d="M470.2,247.2c-3.5,0-6.3,2.8-6.3,6.3s2.8,6.3,6.3,6.3c3.5,0,6.3-2.8,6.3-6.3S473.7,247.2,470.2,247.2z"/>
				<path d="M490,247.2c-3.5,0-6.3,2.8-6.3,6.3s2.8,6.3,6.3,6.3c3.5,0,6.3-2.8,6.3-6.3S493.5,247.2,490,247.2z"/>
				<path d="M509.8,247.2c-3.5,0-6.3,2.8-6.3,6.3s2.8,6.3,6.3,6.3c3.5,0,6.3-2.8,6.3-6.3S513.2,247.2,509.8,247.2z"/>
				<path d="M529.5,247.2c-3.5,0-6.3,2.8-6.3,6.3s2.8,6.3,6.3,6.3c3.5,0,6.3-2.8,6.3-6.3S533,247.2,529.5,247.2z"/>
				<path d="M588.8,247.2c-3.5,0-6.3,2.8-6.3,6.3s2.8,6.3,6.3,6.3c3.5,0,6.3-2.8,6.3-6.3S592.3,247.2,588.8,247.2z"/>
				<path d="M608.6,247.2c-3.5,0-6.3,2.8-6.3,6.3s2.8,6.3,6.3,6.3s6.3-2.8,6.3-6.3S612.1,247.2,608.6,247.2z"/>
				<path d="M648.1,247.2c-3.5,0-6.3,2.8-6.3,6.3s2.8,6.3,6.3,6.3c3.5,0,6.3-2.8,6.3-6.3S651.6,247.2,648.1,247.2z"/>
				<path d="M667.9,247.2c-3.5,0-6.3,2.8-6.3,6.3s2.8,6.3,6.3,6.3c3.5,0,6.3-2.8,6.3-6.3S671.4,247.2,667.9,247.2z"/>
				<path d="M707.4,247.2c-3.5,0-6.3,2.8-6.3,6.3s2.8,6.3,6.3,6.3c3.5,0,6.3-2.8,6.3-6.3S710.9,247.2,707.4,247.2z"/>
				<path d="M213.3,267c-3.5,0-6.3,2.8-6.3,6.3s2.8,6.3,6.3,6.3c3.5,0,6.3-2.8,6.3-6.3S216.8,267,213.3,267z"/>
				<path d="M233.1,267c-3.5,0-6.3,2.8-6.3,6.3s2.8,6.3,6.3,6.3c3.5,0,6.3-2.8,6.3-6.3S236.5,267,233.1,267z"/>
				<path d="M252.8,267c-3.5,0-6.3,2.8-6.3,6.3s2.8,6.3,6.3,6.3c3.5,0,6.3-2.8,6.3-6.3S256.3,267,252.8,267z"/>
				<path d="M272.6,267c-3.5,0-6.3,2.8-6.3,6.3s2.8,6.3,6.3,6.3c3.5,0,6.3-2.8,6.3-6.3S276.1,267,272.6,267z"/>
				<path d="M391.2,267c-3.5,0-6.3,2.8-6.3,6.3s2.8,6.3,6.3,6.3c3.5,0,6.3-2.8,6.3-6.3S394.7,267,391.2,267z"/>
				<path d="M410.9,267c-3.5,0-6.3,2.8-6.3,6.3s2.8,6.3,6.3,6.3c3.5,0,6.3-2.8,6.3-6.3S414.4,267,410.9,267z"/>
				<path d="M430.7,267c-3.5,0-6.3,2.8-6.3,6.3s2.8,6.3,6.3,6.3c3.5,0,6.3-2.8,6.3-6.3S434.2,267,430.7,267z"/>
				<path d="M450.5,267c-3.5,0-6.3,2.8-6.3,6.3s2.8,6.3,6.3,6.3c3.5,0,6.3-2.8,6.3-6.3S454,267,450.5,267z"/>
				<path d="M470.2,267c-3.5,0-6.3,2.8-6.3,6.3s2.8,6.3,6.3,6.3c3.5,0,6.3-2.8,6.3-6.3S473.7,267,470.2,267z"/>
				<path d="M490,267c-3.5,0-6.3,2.8-6.3,6.3s2.8,6.3,6.3,6.3c3.5,0,6.3-2.8,6.3-6.3S493.5,267,490,267z"/>
				<path d="M509.8,267c-3.5,0-6.3,2.8-6.3,6.3s2.8,6.3,6.3,6.3c3.5,0,6.3-2.8,6.3-6.3S513.2,267,509.8,267z"/>
				<path d="M529.5,267c-3.5,0-6.3,2.8-6.3,6.3s2.8,6.3,6.3,6.3c3.5,0,6.3-2.8,6.3-6.3S533,267,529.5,267z"/>
				<path d="M608.6,267c-3.5,0-6.3,2.8-6.3,6.3s2.8,6.3,6.3,6.3s6.3-2.8,6.3-6.3S612.1,267,608.6,267z"/>
				<path d="M648.1,267c-3.5,0-6.3,2.8-6.3,6.3s2.8,6.3,6.3,6.3c3.5,0,6.3-2.8,6.3-6.3S651.6,267,648.1,267z"/>
				<path d="M213.3,286.9c-3.5,0-6.3,2.8-6.3,6.3c0,3.5,2.8,6.3,6.3,6.3c3.5,0,6.3-2.8,6.3-6.3C219.6,289.7,216.8,286.9,213.3,286.9
					z"/>
				<path d="M233.1,286.9c-3.5,0-6.3,2.8-6.3,6.3c0,3.5,2.8,6.3,6.3,6.3c3.5,0,6.3-2.8,6.3-6.3C239.4,289.7,236.5,286.9,233.1,286.9
					z"/>
				<path d="M252.8,286.9c-3.5,0-6.3,2.8-6.3,6.3c0,3.5,2.8,6.3,6.3,6.3c3.5,0,6.3-2.8,6.3-6.3C259.1,289.7,256.3,286.9,252.8,286.9
					z"/>
				<path d="M272.6,286.9c-3.5,0-6.3,2.8-6.3,6.3c0,3.5,2.8,6.3,6.3,6.3c3.5,0,6.3-2.8,6.3-6.3C278.9,289.7,276.1,286.9,272.6,286.9
					z"/>
				<path d="M292.3,286.9c-3.5,0-6.3,2.8-6.3,6.3c0,3.5,2.8,6.3,6.3,6.3s6.3-2.8,6.3-6.3C298.6,289.7,295.8,286.9,292.3,286.9z"/>
				<path d="M312.1,286.9c-3.5,0-6.3,2.8-6.3,6.3c0,3.5,2.8,6.3,6.3,6.3c3.5,0,6.3-2.8,6.3-6.3C318.4,289.7,315.6,286.9,312.1,286.9
					z"/>
				<path d="M430.7,286.9c-3.5,0-6.3,2.8-6.3,6.3c0,3.5,2.8,6.3,6.3,6.3c3.5,0,6.3-2.8,6.3-6.3C437,289.7,434.2,286.9,430.7,286.9z"
					/>
				<path d="M450.5,286.9c-3.5,0-6.3,2.8-6.3,6.3c0,3.5,2.8,6.3,6.3,6.3c3.5,0,6.3-2.8,6.3-6.3C456.8,289.7,454,286.9,450.5,286.9z"
					/>
				<path d="M470.2,286.9c-3.5,0-6.3,2.8-6.3,6.3c0,3.5,2.8,6.3,6.3,6.3c3.5,0,6.3-2.8,6.3-6.3C476.5,289.7,473.7,286.9,470.2,286.9
					z"/>
				<path d="M490,286.9c-3.5,0-6.3,2.8-6.3,6.3c0,3.5,2.8,6.3,6.3,6.3c3.5,0,6.3-2.8,6.3-6.3C496.3,289.7,493.5,286.9,490,286.9z"/>
				<path d="M509.8,286.9c-3.5,0-6.3,2.8-6.3,6.3c0,3.5,2.8,6.3,6.3,6.3c3.5,0,6.3-2.8,6.3-6.3C516.1,289.7,513.2,286.9,509.8,286.9
					z"/>
				<path d="M667.9,286.9c-3.5,0-6.3,2.8-6.3,6.3c0,3.5,2.8,6.3,6.3,6.3c3.5,0,6.3-2.8,6.3-6.3C674.2,289.7,671.4,286.9,667.9,286.9
					z"/>
				<path d="M687.7,286.9c-3.5,0-6.3,2.8-6.3,6.3c0,3.5,2.8,6.3,6.3,6.3c3.5,0,6.3-2.8,6.3-6.3C694,289.7,691.1,286.9,687.7,286.9z"
					/>
				<path d="M707.4,286.9c-3.5,0-6.3,2.8-6.3,6.3c0,3.5,2.8,6.3,6.3,6.3c3.5,0,6.3-2.8,6.3-6.3C713.7,289.7,710.9,286.9,707.4,286.9
					z"/>
				<path d="M747,286.9c-3.5,0-6.3,2.8-6.3,6.3c0,3.5,2.8,6.3,6.3,6.3s6.3-2.8,6.3-6.3C753.3,289.7,750.4,286.9,747,286.9z"/>
				<path d="M766.7,286.9c-3.5,0-6.3,2.8-6.3,6.3c0,3.5,2.8,6.3,6.3,6.3c3.5,0,6.3-2.8,6.3-6.3C773,289.7,770.2,286.9,766.7,286.9z"
					/>
				<path d="M213.3,306.8c-3.5,0-6.3,2.8-6.3,6.3c0,3.5,2.8,6.3,6.3,6.3c3.5,0,6.3-2.8,6.3-6.3C219.6,309.6,216.8,306.8,213.3,306.8
					z"/>
				<path d="M233.1,306.8c-3.5,0-6.3,2.8-6.3,6.3c0,3.5,2.8,6.3,6.3,6.3c3.5,0,6.3-2.8,6.3-6.3C239.4,309.6,236.5,306.8,233.1,306.8
					z"/>
				<path d="M252.8,306.8c-3.5,0-6.3,2.8-6.3,6.3c0,3.5,2.8,6.3,6.3,6.3c3.5,0,6.3-2.8,6.3-6.3C259.1,309.6,256.3,306.8,252.8,306.8
					z"/>
				<path d="M272.6,306.8c-3.5,0-6.3,2.8-6.3,6.3c0,3.5,2.8,6.3,6.3,6.3c3.5,0,6.3-2.8,6.3-6.3C278.9,309.6,276.1,306.8,272.6,306.8
					z"/>
				<path d="M292.3,306.8c-3.5,0-6.3,2.8-6.3,6.3c0,3.5,2.8,6.3,6.3,6.3s6.3-2.8,6.3-6.3C298.6,309.6,295.8,306.8,292.3,306.8z"/>
				<path d="M312.1,306.8c-3.5,0-6.3,2.8-6.3,6.3c0,3.5,2.8,6.3,6.3,6.3c3.5,0,6.3-2.8,6.3-6.3C318.4,309.6,315.6,306.8,312.1,306.8
					z"/>
				<path d="M450.5,306.8c-3.5,0-6.3,2.8-6.3,6.3c0,3.5,2.8,6.3,6.3,6.3c3.5,0,6.3-2.8,6.3-6.3C456.8,309.6,454,306.8,450.5,306.8z"
					/>
				<path d="M470.2,306.8c-3.5,0-6.3,2.8-6.3,6.3c0,3.5,2.8,6.3,6.3,6.3c3.5,0,6.3-2.8,6.3-6.3C476.5,309.6,473.7,306.8,470.2,306.8
					z"/>
				<path d="M490,306.8c-3.5,0-6.3,2.8-6.3,6.3c0,3.5,2.8,6.3,6.3,6.3c3.5,0,6.3-2.8,6.3-6.3C496.3,309.6,493.5,306.8,490,306.8z"/>
				<path d="M509.8,306.8c-3.5,0-6.3,2.8-6.3,6.3c0,3.5,2.8,6.3,6.3,6.3c3.5,0,6.3-2.8,6.3-6.3C516.1,309.6,513.2,306.8,509.8,306.8
					z"/>
				<path d="M747,306.8c-3.5,0-6.3,2.8-6.3,6.3c0,3.5,2.8,6.3,6.3,6.3s6.3-2.8,6.3-6.3C753.3,309.6,750.4,306.8,747,306.8z"/>
				<path d="M233.1,326.7c-3.5,0-6.3,2.8-6.3,6.3c0,3.5,2.8,6.3,6.3,6.3c3.5,0,6.3-2.8,6.3-6.3C239.4,329.5,236.5,326.7,233.1,326.7
					z"/>
				<path d="M252.8,326.7c-3.5,0-6.3,2.8-6.3,6.3c0,3.5,2.8,6.3,6.3,6.3c3.5,0,6.3-2.8,6.3-6.3C259.1,329.5,256.3,326.7,252.8,326.7
					z"/>
				<path d="M272.6,326.7c-3.5,0-6.3,2.8-6.3,6.3c0,3.5,2.8,6.3,6.3,6.3c3.5,0,6.3-2.8,6.3-6.3C278.9,329.5,276.1,326.7,272.6,326.7
					z"/>
				<path d="M292.3,326.7c-3.5,0-6.3,2.8-6.3,6.3c0,3.5,2.8,6.3,6.3,6.3s6.3-2.8,6.3-6.3C298.6,329.5,295.8,326.7,292.3,326.7z"/>
				<path d="M312.1,326.7c-3.5,0-6.3,2.8-6.3,6.3c0,3.5,2.8,6.3,6.3,6.3c3.5,0,6.3-2.8,6.3-6.3C318.4,329.5,315.6,326.7,312.1,326.7
					z"/>
				<path d="M450.5,326.7c-3.5,0-6.3,2.8-6.3,6.3c0,3.5,2.8,6.3,6.3,6.3c3.5,0,6.3-2.8,6.3-6.3C456.8,329.5,454,326.7,450.5,326.7z"
					/>
				<path d="M470.2,326.7c-3.5,0-6.3,2.8-6.3,6.3c0,3.5,2.8,6.3,6.3,6.3c3.5,0,6.3-2.8,6.3-6.3C476.5,329.5,473.7,326.7,470.2,326.7
					z"/>
				<path d="M490,326.7c-3.5,0-6.3,2.8-6.3,6.3c0,3.5,2.8,6.3,6.3,6.3c3.5,0,6.3-2.8,6.3-6.3C496.3,329.5,493.5,326.7,490,326.7z"/>
				<path d="M529.5,326.7c-3.5,0-6.3,2.8-6.3,6.3c0,3.5,2.8,6.3,6.3,6.3c3.5,0,6.3-2.8,6.3-6.3C535.8,329.5,533,326.7,529.5,326.7z"
					/>
				<path d="M707.4,326.7c-3.5,0-6.3,2.8-6.3,6.3c0,3.5,2.8,6.3,6.3,6.3c3.5,0,6.3-2.8,6.3-6.3C713.7,329.5,710.9,326.7,707.4,326.7
					z"/>
				<path d="M727.2,326.7c-3.5,0-6.3,2.8-6.3,6.3c0,3.5,2.8,6.3,6.3,6.3c3.5,0,6.3-2.8,6.3-6.3C733.5,329.5,730.7,326.7,727.2,326.7
					z"/>
				<path d="M747,326.7c-3.5,0-6.3,2.8-6.3,6.3c0,3.5,2.8,6.3,6.3,6.3s6.3-2.8,6.3-6.3C753.3,329.5,750.4,326.7,747,326.7z"/>
				<path d="M766.7,326.7c-3.5,0-6.3,2.8-6.3,6.3c0,3.5,2.8,6.3,6.3,6.3c3.5,0,6.3-2.8,6.3-6.3C773,329.5,770.2,326.7,766.7,326.7z"
					/>
				<path d="M252.8,346.6c-3.5,0-6.3,2.8-6.3,6.3c0,3.5,2.8,6.3,6.3,6.3c3.5,0,6.3-2.8,6.3-6.3C259.1,349.4,256.3,346.6,252.8,346.6
					z"/>
				<path d="M272.6,346.6c-3.5,0-6.3,2.8-6.3,6.3c0,3.5,2.8,6.3,6.3,6.3c3.5,0,6.3-2.8,6.3-6.3C278.9,349.4,276.1,346.6,272.6,346.6
					z"/>
				<path d="M292.3,346.6c-3.5,0-6.3,2.8-6.3,6.3c0,3.5,2.8,6.3,6.3,6.3s6.3-2.8,6.3-6.3C298.6,349.4,295.8,346.6,292.3,346.6z"/>
				<path d="M450.5,346.6c-3.5,0-6.3,2.8-6.3,6.3c0,3.5,2.8,6.3,6.3,6.3c3.5,0,6.3-2.8,6.3-6.3C456.8,349.4,454,346.6,450.5,346.6z"
					/>
				<path d="M470.2,346.6c-3.5,0-6.3,2.8-6.3,6.3c0,3.5,2.8,6.3,6.3,6.3c3.5,0,6.3-2.8,6.3-6.3C476.5,349.4,473.7,346.6,470.2,346.6
					z"/>
				<path d="M490,346.6c-3.5,0-6.3,2.8-6.3,6.3c0,3.5,2.8,6.3,6.3,6.3c3.5,0,6.3-2.8,6.3-6.3C496.3,349.4,493.5,346.6,490,346.6z"/>
				<path d="M509.8,346.6c-3.5,0-6.3,2.8-6.3,6.3c0,3.5,2.8,6.3,6.3,6.3c3.5,0,6.3-2.8,6.3-6.3C516.1,349.4,513.2,346.6,509.8,346.6
					z"/>
				<path d="M687.7,346.6c-3.5,0-6.3,2.8-6.3,6.3c0,3.5,2.8,6.3,6.3,6.3c3.5,0,6.3-2.8,6.3-6.3C694,349.4,691.1,346.6,687.7,346.6z"
					/>
				<path d="M707.4,346.6c-3.5,0-6.3,2.8-6.3,6.3c0,3.5,2.8,6.3,6.3,6.3c3.5,0,6.3-2.8,6.3-6.3C713.7,349.4,710.9,346.6,707.4,346.6
					z"/>
				<path d="M727.2,346.6c-3.5,0-6.3,2.8-6.3,6.3c0,3.5,2.8,6.3,6.3,6.3c3.5,0,6.3-2.8,6.3-6.3C733.5,349.4,730.7,346.6,727.2,346.6
					z"/>
				<path d="M747,346.6c-3.5,0-6.3,2.8-6.3,6.3c0,3.5,2.8,6.3,6.3,6.3s6.3-2.8,6.3-6.3C753.3,349.4,750.4,346.6,747,346.6z"/>
				<path d="M766.7,346.6c-3.5,0-6.3,2.8-6.3,6.3c0,3.5,2.8,6.3,6.3,6.3c3.5,0,6.3-2.8,6.3-6.3C773,349.4,770.2,346.6,766.7,346.6z"
					/>
				<path d="M786.5,346.6c-3.5,0-6.3,2.8-6.3,6.3c0,3.5,2.8,6.3,6.3,6.3c3.5,0,6.3-2.8,6.3-6.3C792.8,349.4,790,346.6,786.5,346.6z"
					/>
				<path d="M252.8,366.4c-3.5,0-6.3,2.8-6.3,6.3c0,3.5,2.8,6.3,6.3,6.3c3.5,0,6.3-2.8,6.3-6.3C259.1,369.3,256.3,366.4,252.8,366.4
					z"/>
				<path d="M272.6,366.4c-3.5,0-6.3,2.8-6.3,6.3c0,3.5,2.8,6.3,6.3,6.3c3.5,0,6.3-2.8,6.3-6.3C278.9,369.3,276.1,366.4,272.6,366.4
					z"/>
				<path d="M450.5,366.4c-3.5,0-6.3,2.8-6.3,6.3c0,3.5,2.8,6.3,6.3,6.3c3.5,0,6.3-2.8,6.3-6.3C456.8,369.3,454,366.4,450.5,366.4z"
					/>
				<path d="M470.2,366.4c-3.5,0-6.3,2.8-6.3,6.3c0,3.5,2.8,6.3,6.3,6.3c3.5,0,6.3-2.8,6.3-6.3C476.5,369.3,473.7,366.4,470.2,366.4
					z"/>
				<path d="M687.7,366.4c-3.5,0-6.3,2.8-6.3,6.3c0,3.5,2.8,6.3,6.3,6.3c3.5,0,6.3-2.8,6.3-6.3C694,369.3,691.1,366.4,687.7,366.4z"
					/>
				<path d="M707.4,366.4c-3.5,0-6.3,2.8-6.3,6.3c0,3.5,2.8,6.3,6.3,6.3c3.5,0,6.3-2.8,6.3-6.3C713.7,369.3,710.9,366.4,707.4,366.4
					z"/>
				<path d="M727.2,366.4c-3.5,0-6.3,2.8-6.3,6.3c0,3.5,2.8,6.3,6.3,6.3c3.5,0,6.3-2.8,6.3-6.3C733.5,369.3,730.7,366.4,727.2,366.4
					z"/>
				<path d="M747,366.4c-3.5,0-6.3,2.8-6.3,6.3c0,3.5,2.8,6.3,6.3,6.3s6.3-2.8,6.3-6.3C753.3,369.3,750.4,366.4,747,366.4z"/>
				<path d="M766.7,366.4c-3.5,0-6.3,2.8-6.3,6.3c0,3.5,2.8,6.3,6.3,6.3c3.5,0,6.3-2.8,6.3-6.3C773,369.3,770.2,366.4,766.7,366.4z"
					/>
				<path d="M826,366.4c-3.5,0-6.3,2.8-6.3,6.3c0,3.5,2.8,6.3,6.3,6.3c3.5,0,6.3-2.8,6.3-6.3C832.3,369.3,829.5,366.4,826,366.4z"/>
				<path d="M233.1,386.3c-3.5,0-6.3,2.8-6.3,6.3c0,3.5,2.8,6.3,6.3,6.3c3.5,0,6.3-2.8,6.3-6.3C239.4,389.1,236.5,386.3,233.1,386.3
					z"/>
				<path d="M252.8,386.3c-3.5,0-6.3,2.8-6.3,6.3c0,3.5,2.8,6.3,6.3,6.3c3.5,0,6.3-2.8,6.3-6.3C259.1,389.1,256.3,386.3,252.8,386.3
					z"/>
				<path d="M747,386.3c-3.5,0-6.3,2.8-6.3,6.3c0,3.5,2.8,6.3,6.3,6.3s6.3-2.8,6.3-6.3C753.3,389.1,750.4,386.3,747,386.3z"/>
				<path d="M766.7,386.3c-3.5,0-6.3,2.8-6.3,6.3c0,3.5,2.8,6.3,6.3,6.3c3.5,0,6.3-2.8,6.3-6.3C773,389.1,770.2,386.3,766.7,386.3z"
					/>
				<path d="M826,386.3c-3.5,0-6.3,2.8-6.3,6.3c0,3.5,2.8,6.3,6.3,6.3c3.5,0,6.3-2.8,6.3-6.3C832.3,389.1,829.5,386.3,826,386.3z"/>
				<path d="M233.1,406.2c-3.5,0-6.3,2.8-6.3,6.3c0,3.5,2.8,6.3,6.3,6.3c3.5,0,6.3-2.8,6.3-6.3C239.4,409,236.5,406.2,233.1,406.2z"
					/>
				<path d="M252.8,406.2c-3.5,0-6.3,2.8-6.3,6.3c0,3.5,2.8,6.3,6.3,6.3c3.5,0,6.3-2.8,6.3-6.3C259.1,409,256.3,406.2,252.8,406.2z"
					/>
				<path d="M806.3,406.2c-3.5,0-6.3,2.8-6.3,6.3c0,3.5,2.8,6.3,6.3,6.3c3.5,0,6.3-2.8,6.3-6.3C812.6,409,809.7,406.2,806.3,406.2z"
					/>
				<path d="M233.1,426.1c-3.5,0-6.3,2.8-6.3,6.3c0,3.5,2.8,6.3,6.3,6.3c3.5,0,6.3-2.8,6.3-6.3C239.4,428.9,236.5,426.1,233.1,426.1
					z"/>
				<path d="M114.5,167.7c-3.5,0-6.3,2.8-6.3,6.3c0,3.5,2.8,6.3,6.3,6.3c3.5,0,6.3-2.8,6.3-6.3C120.8,170.5,117.9,167.7,114.5,167.7
					z"/>
				<path d="M134.2,167.7c-3.5,0-6.3,2.8-6.3,6.3c0,3.5,2.8,6.3,6.3,6.3c3.5,0,6.3-2.8,6.3-6.3C140.5,170.5,137.7,167.7,134.2,167.7
					z"/>
				<path d="M154,167.7c-3.5,0-6.3,2.8-6.3,6.3c0,3.5,2.8,6.3,6.3,6.3c3.5,0,6.3-2.8,6.3-6.3C160.3,170.5,157.5,167.7,154,167.7z"/>
				<path d="M173.8,167.7c-3.5,0-6.3,2.8-6.3,6.3c0,3.5,2.8,6.3,6.3,6.3c3.5,0,6.3-2.8,6.3-6.3C180.1,170.5,177.2,167.7,173.8,167.7
					z"/>
				<path d="M193.5,167.7c-3.5,0-6.3,2.8-6.3,6.3c0,3.5,2.8,6.3,6.3,6.3c3.5,0,6.3-2.8,6.3-6.3C199.8,170.5,197,167.7,193.5,167.7z"
					/>
				<path d="M213.3,167.7c-3.5,0-6.3,2.8-6.3,6.3c0,3.5,2.8,6.3,6.3,6.3c3.5,0,6.3-2.8,6.3-6.3C219.6,170.5,216.8,167.7,213.3,167.7
					z"/>
				<path d="M233.1,167.7c-3.5,0-6.3,2.8-6.3,6.3c0,3.5,2.8,6.3,6.3,6.3c3.5,0,6.3-2.8,6.3-6.3C239.4,170.5,236.5,167.7,233.1,167.7
					z"/>
				<path d="M391.2,167.7c-3.5,0-6.3,2.8-6.3,6.3c0,3.5,2.8,6.3,6.3,6.3c3.5,0,6.3-2.8,6.3-6.3C397.5,170.5,394.7,167.7,391.2,167.7
					z"/>
				<path d="M410.9,167.7c-3.5,0-6.3,2.8-6.3,6.3c0,3.5,2.8,6.3,6.3,6.3c3.5,0,6.3-2.8,6.3-6.3C417.2,170.5,414.4,167.7,410.9,167.7
					z"/>
				<path d="M430.7,167.7c-3.5,0-6.3,2.8-6.3,6.3c0,3.5,2.8,6.3,6.3,6.3c3.5,0,6.3-2.8,6.3-6.3C437,170.5,434.2,167.7,430.7,167.7z"
					/>
				<path d="M450.5,167.7c-3.5,0-6.3,2.8-6.3,6.3c0,3.5,2.8,6.3,6.3,6.3c3.5,0,6.3-2.8,6.3-6.3C456.8,170.5,454,167.7,450.5,167.7z"
					/>
				<path d="M470.2,167.7c-3.5,0-6.3,2.8-6.3,6.3c0,3.5,2.8,6.3,6.3,6.3c3.5,0,6.3-2.8,6.3-6.3C476.5,170.5,473.7,167.7,470.2,167.7
					z"/>
				<path d="M509.8,167.7c-3.5,0-6.3,2.8-6.3,6.3c0,3.5,2.8,6.3,6.3,6.3c3.5,0,6.3-2.8,6.3-6.3C516.1,170.5,513.2,167.7,509.8,167.7
					z"/>
				<path d="M549.3,167.7c-3.5,0-6.3,2.8-6.3,6.3c0,3.5,2.8,6.3,6.3,6.3s6.3-2.8,6.3-6.3C555.6,170.5,552.8,167.7,549.3,167.7z"/>
				<path d="M569.1,167.7c-3.5,0-6.3,2.8-6.3,6.3c0,3.5,2.8,6.3,6.3,6.3c3.5,0,6.3-2.8,6.3-6.3C575.4,170.5,572.5,167.7,569.1,167.7
					z"/>
				<path d="M588.8,167.7c-3.5,0-6.3,2.8-6.3,6.3c0,3.5,2.8,6.3,6.3,6.3c3.5,0,6.3-2.8,6.3-6.3C595.1,170.5,592.3,167.7,588.8,167.7
					z"/>
				<path d="M608.6,167.7c-3.5,0-6.3,2.8-6.3,6.3c0,3.5,2.8,6.3,6.3,6.3s6.3-2.8,6.3-6.3C614.9,170.5,612.1,167.7,608.6,167.7z"/>
				<path d="M628.4,167.7c-3.5,0-6.3,2.8-6.3,6.3c0,3.5,2.8,6.3,6.3,6.3s6.3-2.8,6.3-6.3C634.7,170.5,631.8,167.7,628.4,167.7z"/>
				<path d="M648.1,167.7c-3.5,0-6.3,2.8-6.3,6.3c0,3.5,2.8,6.3,6.3,6.3c3.5,0,6.3-2.8,6.3-6.3C654.4,170.5,651.6,167.7,648.1,167.7
					z"/>
				<path d="M667.9,167.7c-3.5,0-6.3,2.8-6.3,6.3c0,3.5,2.8,6.3,6.3,6.3c3.5,0,6.3-2.8,6.3-6.3C674.2,170.5,671.4,167.7,667.9,167.7
					z"/>
				<path d="M687.7,167.7c-3.5,0-6.3,2.8-6.3,6.3c0,3.5,2.8,6.3,6.3,6.3c3.5,0,6.3-2.8,6.3-6.3C694,170.5,691.1,167.7,687.7,167.7z"
					/>
				<path d="M707.4,167.7c-3.5,0-6.3,2.8-6.3,6.3c0,3.5,2.8,6.3,6.3,6.3c3.5,0,6.3-2.8,6.3-6.3C713.7,170.5,710.9,167.7,707.4,167.7
					z"/>
				<path d="M727.2,167.7c-3.5,0-6.3,2.8-6.3,6.3c0,3.5,2.8,6.3,6.3,6.3c3.5,0,6.3-2.8,6.3-6.3C733.5,170.5,730.7,167.7,727.2,167.7
					z"/>
				<path d="M766.7,167.7c-3.5,0-6.3,2.8-6.3,6.3c0,3.5,2.8,6.3,6.3,6.3c3.5,0,6.3-2.8,6.3-6.3C773,170.5,770.2,167.7,766.7,167.7z"
					/>
				<path d="M114.5,147.8c-3.5,0-6.3,2.8-6.3,6.3c0,3.5,2.8,6.3,6.3,6.3c3.5,0,6.3-2.8,6.3-6.3C120.8,150.6,117.9,147.8,114.5,147.8
					z"/>
				<path d="M134.2,147.8c-3.5,0-6.3,2.8-6.3,6.3c0,3.5,2.8,6.3,6.3,6.3c3.5,0,6.3-2.8,6.3-6.3C140.5,150.6,137.7,147.8,134.2,147.8
					z"/>
				<path d="M154,147.8c-3.5,0-6.3,2.8-6.3,6.3c0,3.5,2.8,6.3,6.3,6.3c3.5,0,6.3-2.8,6.3-6.3C160.3,150.6,157.5,147.8,154,147.8z"/>
				<path d="M173.8,147.8c-3.5,0-6.3,2.8-6.3,6.3c0,3.5,2.8,6.3,6.3,6.3c3.5,0,6.3-2.8,6.3-6.3C180.1,150.6,177.2,147.8,173.8,147.8
					z"/>
				<path d="M193.5,147.8c-3.5,0-6.3,2.8-6.3,6.3c0,3.5,2.8,6.3,6.3,6.3c3.5,0,6.3-2.8,6.3-6.3C199.8,150.6,197,147.8,193.5,147.8z"
					/>
				<path d="M213.3,147.8c-3.5,0-6.3,2.8-6.3,6.3c0,3.5,2.8,6.3,6.3,6.3c3.5,0,6.3-2.8,6.3-6.3C219.6,150.6,216.8,147.8,213.3,147.8
					z"/>
				<path d="M233.1,147.8c-3.5,0-6.3,2.8-6.3,6.3c0,3.5,2.8,6.3,6.3,6.3c3.5,0,6.3-2.8,6.3-6.3C239.4,150.6,236.5,147.8,233.1,147.8
					z"/>
				<path d="M252.8,147.8c-3.5,0-6.3,2.8-6.3,6.3c0,3.5,2.8,6.3,6.3,6.3c3.5,0,6.3-2.8,6.3-6.3C259.1,150.6,256.3,147.8,252.8,147.8
					z"/>
				<path d="M272.6,147.8c-3.5,0-6.3,2.8-6.3,6.3c0,3.5,2.8,6.3,6.3,6.3c3.5,0,6.3-2.8,6.3-6.3C278.9,150.6,276.1,147.8,272.6,147.8
					z"/>
				<path d="M410.9,147.8c-3.5,0-6.3,2.8-6.3,6.3c0,3.5,2.8,6.3,6.3,6.3c3.5,0,6.3-2.8,6.3-6.3C417.2,150.6,414.4,147.8,410.9,147.8
					z"/>
				<path d="M430.7,147.8c-3.5,0-6.3,2.8-6.3,6.3c0,3.5,2.8,6.3,6.3,6.3c3.5,0,6.3-2.8,6.3-6.3C437,150.6,434.2,147.8,430.7,147.8z"
					/>
				<path d="M450.5,147.8c-3.5,0-6.3,2.8-6.3,6.3c0,3.5,2.8,6.3,6.3,6.3c3.5,0,6.3-2.8,6.3-6.3C456.8,150.6,454,147.8,450.5,147.8z"
					/>
				<path d="M470.2,147.8c-3.5,0-6.3,2.8-6.3,6.3c0,3.5,2.8,6.3,6.3,6.3c3.5,0,6.3-2.8,6.3-6.3C476.5,150.6,473.7,147.8,470.2,147.8
					z"/>
				<path d="M490,147.8c-3.5,0-6.3,2.8-6.3,6.3c0,3.5,2.8,6.3,6.3,6.3c3.5,0,6.3-2.8,6.3-6.3C496.3,150.6,493.5,147.8,490,147.8z"/>
				<path d="M509.8,147.8c-3.5,0-6.3,2.8-6.3,6.3c0,3.5,2.8,6.3,6.3,6.3c3.5,0,6.3-2.8,6.3-6.3C516.1,150.6,513.2,147.8,509.8,147.8
					z"/>
				<path d="M529.5,147.8c-3.5,0-6.3,2.8-6.3,6.3c0,3.5,2.8,6.3,6.3,6.3c3.5,0,6.3-2.8,6.3-6.3C535.8,150.6,533,147.8,529.5,147.8z"
					/>
				<path d="M549.3,147.8c-3.5,0-6.3,2.8-6.3,6.3c0,3.5,2.8,6.3,6.3,6.3s6.3-2.8,6.3-6.3C555.6,150.6,552.8,147.8,549.3,147.8z"/>
				<path d="M569.1,147.8c-3.5,0-6.3,2.8-6.3,6.3c0,3.5,2.8,6.3,6.3,6.3c3.5,0,6.3-2.8,6.3-6.3C575.4,150.6,572.5,147.8,569.1,147.8
					z"/>
				<path d="M588.8,147.8c-3.5,0-6.3,2.8-6.3,6.3c0,3.5,2.8,6.3,6.3,6.3c3.5,0,6.3-2.8,6.3-6.3C595.1,150.6,592.3,147.8,588.8,147.8
					z"/>
				<path d="M608.6,147.8c-3.5,0-6.3,2.8-6.3,6.3c0,3.5,2.8,6.3,6.3,6.3s6.3-2.8,6.3-6.3C614.9,150.6,612.1,147.8,608.6,147.8z"/>
				<path d="M628.4,147.8c-3.5,0-6.3,2.8-6.3,6.3c0,3.5,2.8,6.3,6.3,6.3s6.3-2.8,6.3-6.3C634.7,150.6,631.8,147.8,628.4,147.8z"/>
				<path d="M648.1,147.8c-3.5,0-6.3,2.8-6.3,6.3c0,3.5,2.8,6.3,6.3,6.3c3.5,0,6.3-2.8,6.3-6.3C654.4,150.6,651.6,147.8,648.1,147.8
					z"/>
				<path d="M667.9,147.8c-3.5,0-6.3,2.8-6.3,6.3c0,3.5,2.8,6.3,6.3,6.3c3.5,0,6.3-2.8,6.3-6.3C674.2,150.6,671.4,147.8,667.9,147.8
					z"/>
				<path d="M687.7,147.8c-3.5,0-6.3,2.8-6.3,6.3c0,3.5,2.8,6.3,6.3,6.3c3.5,0,6.3-2.8,6.3-6.3C694,150.6,691.1,147.8,687.7,147.8z"
					/>
				<path d="M707.4,147.8c-3.5,0-6.3,2.8-6.3,6.3c0,3.5,2.8,6.3,6.3,6.3c3.5,0,6.3-2.8,6.3-6.3C713.7,150.6,710.9,147.8,707.4,147.8
					z"/>
				<path d="M727.2,147.8c-3.5,0-6.3,2.8-6.3,6.3c0,3.5,2.8,6.3,6.3,6.3c3.5,0,6.3-2.8,6.3-6.3C733.5,150.6,730.7,147.8,727.2,147.8
					z"/>
				<path d="M747,147.8c-3.5,0-6.3,2.8-6.3,6.3c0,3.5,2.8,6.3,6.3,6.3s6.3-2.8,6.3-6.3C753.3,150.6,750.4,147.8,747,147.8z"/>
				<path d="M786.5,147.8c-3.5,0-6.3,2.8-6.3,6.3c0,3.5,2.8,6.3,6.3,6.3c3.5,0,6.3-2.8,6.3-6.3C792.8,150.6,790,147.8,786.5,147.8z"
					/>
				<path d="M15.6,127.9c-3.5,0-6.3,2.8-6.3,6.3c0,3.5,2.8,6.3,6.3,6.3c3.5,0,6.3-2.8,6.3-6.3C21.9,130.7,19.1,127.9,15.6,127.9z"/>
				<path d="M94.7,127.9c-3.5,0-6.3,2.8-6.3,6.3c0,3.5,2.8,6.3,6.3,6.3c3.5,0,6.3-2.8,6.3-6.3C101,130.7,98.2,127.9,94.7,127.9z"/>
				<path d="M114.5,127.9c-3.5,0-6.3,2.8-6.3,6.3c0,3.5,2.8,6.3,6.3,6.3c3.5,0,6.3-2.8,6.3-6.3C120.8,130.7,117.9,127.9,114.5,127.9
					z"/>
				<path d="M134.2,127.9c-3.5,0-6.3,2.8-6.3,6.3c0,3.5,2.8,6.3,6.3,6.3c3.5,0,6.3-2.8,6.3-6.3C140.5,130.7,137.7,127.9,134.2,127.9
					z"/>
				<path d="M154,127.9c-3.5,0-6.3,2.8-6.3,6.3c0,3.5,2.8,6.3,6.3,6.3c3.5,0,6.3-2.8,6.3-6.3C160.3,130.7,157.5,127.9,154,127.9z"/>
				<path d="M173.8,127.9c-3.5,0-6.3,2.8-6.3,6.3c0,3.5,2.8,6.3,6.3,6.3c3.5,0,6.3-2.8,6.3-6.3C180.1,130.7,177.2,127.9,173.8,127.9
					z"/>
				<path d="M193.5,127.9c-3.5,0-6.3,2.8-6.3,6.3c0,3.5,2.8,6.3,6.3,6.3c3.5,0,6.3-2.8,6.3-6.3C199.8,130.7,197,127.9,193.5,127.9z"
					/>
				<path d="M213.3,127.9c-3.5,0-6.3,2.8-6.3,6.3c0,3.5,2.8,6.3,6.3,6.3c3.5,0,6.3-2.8,6.3-6.3C219.6,130.7,216.8,127.9,213.3,127.9
					z"/>
				<path d="M233.1,127.9c-3.5,0-6.3,2.8-6.3,6.3c0,3.5,2.8,6.3,6.3,6.3c3.5,0,6.3-2.8,6.3-6.3C239.4,130.7,236.5,127.9,233.1,127.9
					z"/>
				<path d="M252.8,127.9c-3.5,0-6.3,2.8-6.3,6.3c0,3.5,2.8,6.3,6.3,6.3c3.5,0,6.3-2.8,6.3-6.3C259.1,130.7,256.3,127.9,252.8,127.9
					z"/>
				<path d="M272.6,127.9c-3.5,0-6.3,2.8-6.3,6.3c0,3.5,2.8,6.3,6.3,6.3c3.5,0,6.3-2.8,6.3-6.3C278.9,130.7,276.1,127.9,272.6,127.9
					z"/>
				<path d="M391.2,127.9c-3.5,0-6.3,2.8-6.3,6.3c0,3.5,2.8,6.3,6.3,6.3c3.5,0,6.3-2.8,6.3-6.3C397.5,130.7,394.7,127.9,391.2,127.9
					z"/>
				<path d="M410.9,127.9c-3.5,0-6.3,2.8-6.3,6.3c0,3.5,2.8,6.3,6.3,6.3c3.5,0,6.3-2.8,6.3-6.3C417.2,130.7,414.4,127.9,410.9,127.9
					z"/>
				<path d="M430.7,127.9c-3.5,0-6.3,2.8-6.3,6.3c0,3.5,2.8,6.3,6.3,6.3c3.5,0,6.3-2.8,6.3-6.3C437,130.7,434.2,127.9,430.7,127.9z"
					/>
				<path d="M450.5,127.9c-3.5,0-6.3,2.8-6.3,6.3c0,3.5,2.8,6.3,6.3,6.3c3.5,0,6.3-2.8,6.3-6.3C456.8,130.7,454,127.9,450.5,127.9z"
					/>
				<path d="M470.2,127.9c-3.5,0-6.3,2.8-6.3,6.3c0,3.5,2.8,6.3,6.3,6.3c3.5,0,6.3-2.8,6.3-6.3C476.5,130.7,473.7,127.9,470.2,127.9
					z"/>
				<path d="M490,127.9c-3.5,0-6.3,2.8-6.3,6.3c0,3.5,2.8,6.3,6.3,6.3c3.5,0,6.3-2.8,6.3-6.3C496.3,130.7,493.5,127.9,490,127.9z"/>
				<path d="M509.8,127.9c-3.5,0-6.3,2.8-6.3,6.3c0,3.5,2.8,6.3,6.3,6.3c3.5,0,6.3-2.8,6.3-6.3C516.1,130.7,513.2,127.9,509.8,127.9
					z"/>
				<path d="M529.5,127.9c-3.5,0-6.3,2.8-6.3,6.3c0,3.5,2.8,6.3,6.3,6.3c3.5,0,6.3-2.8,6.3-6.3C535.8,130.7,533,127.9,529.5,127.9z"
					/>
				<path d="M549.3,127.9c-3.5,0-6.3,2.8-6.3,6.3c0,3.5,2.8,6.3,6.3,6.3s6.3-2.8,6.3-6.3C555.6,130.7,552.8,127.9,549.3,127.9z"/>
				<path d="M569.1,127.9c-3.5,0-6.3,2.8-6.3,6.3c0,3.5,2.8,6.3,6.3,6.3c3.5,0,6.3-2.8,6.3-6.3C575.4,130.7,572.5,127.9,569.1,127.9
					z"/>
				<path d="M588.8,127.9c-3.5,0-6.3,2.8-6.3,6.3c0,3.5,2.8,6.3,6.3,6.3c3.5,0,6.3-2.8,6.3-6.3C595.1,130.7,592.3,127.9,588.8,127.9
					z"/>
				<path d="M608.6,127.9c-3.5,0-6.3,2.8-6.3,6.3c0,3.5,2.8,6.3,6.3,6.3s6.3-2.8,6.3-6.3C614.9,130.7,612.1,127.9,608.6,127.9z"/>
				<path d="M628.4,127.9c-3.5,0-6.3,2.8-6.3,6.3c0,3.5,2.8,6.3,6.3,6.3s6.3-2.8,6.3-6.3C634.7,130.7,631.8,127.9,628.4,127.9z"/>
				<path d="M648.1,127.9c-3.5,0-6.3,2.8-6.3,6.3c0,3.5,2.8,6.3,6.3,6.3c3.5,0,6.3-2.8,6.3-6.3C654.4,130.7,651.6,127.9,648.1,127.9
					z"/>
				<path d="M667.9,127.9c-3.5,0-6.3,2.8-6.3,6.3c0,3.5,2.8,6.3,6.3,6.3c3.5,0,6.3-2.8,6.3-6.3C674.2,130.7,671.4,127.9,667.9,127.9
					z"/>
				<path d="M687.7,127.9c-3.5,0-6.3,2.8-6.3,6.3c0,3.5,2.8,6.3,6.3,6.3c3.5,0,6.3-2.8,6.3-6.3C694,130.7,691.1,127.9,687.7,127.9z"
					/>
				<path d="M707.4,127.9c-3.5,0-6.3,2.8-6.3,6.3c0,3.5,2.8,6.3,6.3,6.3c3.5,0,6.3-2.8,6.3-6.3C713.7,130.7,710.9,127.9,707.4,127.9
					z"/>
				<path d="M727.2,127.9c-3.5,0-6.3,2.8-6.3,6.3c0,3.5,2.8,6.3,6.3,6.3c3.5,0,6.3-2.8,6.3-6.3C733.5,130.7,730.7,127.9,727.2,127.9
					z"/>
				<path d="M747,127.9c-3.5,0-6.3,2.8-6.3,6.3c0,3.5,2.8,6.3,6.3,6.3s6.3-2.8,6.3-6.3C753.3,130.7,750.4,127.9,747,127.9z"/>
				<path d="M786.5,127.9c-3.5,0-6.3,2.8-6.3,6.3c0,3.5,2.8,6.3,6.3,6.3c3.5,0,6.3-2.8,6.3-6.3C792.8,130.7,790,127.9,786.5,127.9z"
					/>
				<path d="M806.3,127.9c-3.5,0-6.3,2.8-6.3,6.3c0,3.5,2.8,6.3,6.3,6.3c3.5,0,6.3-2.8,6.3-6.3C812.6,130.7,809.7,127.9,806.3,127.9
					z"/>
				<path d="M15.6,108c-3.5,0-6.3,2.8-6.3,6.3c0,3.5,2.8,6.3,6.3,6.3c3.5,0,6.3-2.8,6.3-6.3C21.9,110.8,19.1,108,15.6,108z"/>
				<path d="M35.4,108c-3.5,0-6.3,2.8-6.3,6.3c0,3.5,2.8,6.3,6.3,6.3c3.5,0,6.3-2.8,6.3-6.3C41.7,110.8,38.9,108,35.4,108z"/>
				<path d="M55.2,108c-3.5,0-6.3,2.8-6.3,6.3c0,3.5,2.8,6.3,6.3,6.3c3.5,0,6.3-2.8,6.3-6.3C61.5,110.8,58.6,108,55.2,108z"/>
				<path d="M74.9,108c-3.5,0-6.3,2.8-6.3,6.3c0,3.5,2.8,6.3,6.3,6.3c3.5,0,6.3-2.8,6.3-6.3C81.2,110.8,78.4,108,74.9,108z"/>
				<path d="M94.7,108c-3.5,0-6.3,2.8-6.3,6.3c0,3.5,2.8,6.3,6.3,6.3c3.5,0,6.3-2.8,6.3-6.3C101,110.8,98.2,108,94.7,108z"/>
				<path d="M114.5,108c-3.5,0-6.3,2.8-6.3,6.3c0,3.5,2.8,6.3,6.3,6.3c3.5,0,6.3-2.8,6.3-6.3C120.8,110.8,117.9,108,114.5,108z"/>
				<path d="M134.2,108c-3.5,0-6.3,2.8-6.3,6.3c0,3.5,2.8,6.3,6.3,6.3c3.5,0,6.3-2.8,6.3-6.3C140.5,110.8,137.7,108,134.2,108z"/>
				<path d="M154,108c-3.5,0-6.3,2.8-6.3,6.3c0,3.5,2.8,6.3,6.3,6.3c3.5,0,6.3-2.8,6.3-6.3C160.3,110.8,157.5,108,154,108z"/>
				<path d="M173.8,108c-3.5,0-6.3,2.8-6.3,6.3c0,3.5,2.8,6.3,6.3,6.3c3.5,0,6.3-2.8,6.3-6.3C180.1,110.8,177.2,108,173.8,108z"/>
				<path d="M233.1,108c-3.5,0-6.3,2.8-6.3,6.3c0,3.5,2.8,6.3,6.3,6.3c3.5,0,6.3-2.8,6.3-6.3C239.4,110.8,236.5,108,233.1,108z"/>
				<path d="M252.8,108c-3.5,0-6.3,2.8-6.3,6.3c0,3.5,2.8,6.3,6.3,6.3c3.5,0,6.3-2.8,6.3-6.3C259.1,110.8,256.3,108,252.8,108z"/>
				<path d="M292.3,108c-3.5,0-6.3,2.8-6.3,6.3c0,3.5,2.8,6.3,6.3,6.3s6.3-2.8,6.3-6.3C298.6,110.8,295.8,108,292.3,108z"/>
				<path d="M312.1,108c-3.5,0-6.3,2.8-6.3,6.3c0,3.5,2.8,6.3,6.3,6.3c3.5,0,6.3-2.8,6.3-6.3C318.4,110.8,315.6,108,312.1,108z"/>
				<path d="M430.7,108c-3.5,0-6.3,2.8-6.3,6.3c0,3.5,2.8,6.3,6.3,6.3c3.5,0,6.3-2.8,6.3-6.3C437,110.8,434.2,108,430.7,108z"/>
				<path d="M450.5,108c-3.5,0-6.3,2.8-6.3,6.3c0,3.5,2.8,6.3,6.3,6.3c3.5,0,6.3-2.8,6.3-6.3C456.8,110.8,454,108,450.5,108z"/>
				<path d="M490,108c-3.5,0-6.3,2.8-6.3,6.3c0,3.5,2.8,6.3,6.3,6.3c3.5,0,6.3-2.8,6.3-6.3C496.3,110.8,493.5,108,490,108z"/>
				<path d="M509.8,108c-3.5,0-6.3,2.8-6.3,6.3c0,3.5,2.8,6.3,6.3,6.3c3.5,0,6.3-2.8,6.3-6.3C516.1,110.8,513.2,108,509.8,108z"/>
				<path d="M529.5,108c-3.5,0-6.3,2.8-6.3,6.3c0,3.5,2.8,6.3,6.3,6.3c3.5,0,6.3-2.8,6.3-6.3C535.8,110.8,533,108,529.5,108z"/>
				<path d="M549.3,108c-3.5,0-6.3,2.8-6.3,6.3c0,3.5,2.8,6.3,6.3,6.3s6.3-2.8,6.3-6.3C555.6,110.8,552.8,108,549.3,108z"/>
				<path d="M569.1,108c-3.5,0-6.3,2.8-6.3,6.3c0,3.5,2.8,6.3,6.3,6.3c3.5,0,6.3-2.8,6.3-6.3C575.4,110.8,572.5,108,569.1,108z"/>
				<path d="M588.8,108c-3.5,0-6.3,2.8-6.3,6.3c0,3.5,2.8,6.3,6.3,6.3c3.5,0,6.3-2.8,6.3-6.3C595.1,110.8,592.3,108,588.8,108z"/>
				<path d="M608.6,108c-3.5,0-6.3,2.8-6.3,6.3c0,3.5,2.8,6.3,6.3,6.3s6.3-2.8,6.3-6.3C614.9,110.8,612.1,108,608.6,108z"/>
				<path d="M628.4,108c-3.5,0-6.3,2.8-6.3,6.3c0,3.5,2.8,6.3,6.3,6.3s6.3-2.8,6.3-6.3C634.7,110.8,631.8,108,628.4,108z"/>
				<path d="M648.1,108c-3.5,0-6.3,2.8-6.3,6.3c0,3.5,2.8,6.3,6.3,6.3c3.5,0,6.3-2.8,6.3-6.3C654.4,110.8,651.6,108,648.1,108z"/>
				<path d="M667.9,108c-3.5,0-6.3,2.8-6.3,6.3c0,3.5,2.8,6.3,6.3,6.3c3.5,0,6.3-2.8,6.3-6.3C674.2,110.8,671.4,108,667.9,108z"/>
				<path d="M687.7,108c-3.5,0-6.3,2.8-6.3,6.3c0,3.5,2.8,6.3,6.3,6.3c3.5,0,6.3-2.8,6.3-6.3C694,110.8,691.1,108,687.7,108z"/>
				<path d="M707.4,108c-3.5,0-6.3,2.8-6.3,6.3c0,3.5,2.8,6.3,6.3,6.3c3.5,0,6.3-2.8,6.3-6.3C713.7,110.8,710.9,108,707.4,108z"/>
				<path d="M727.2,108c-3.5,0-6.3,2.8-6.3,6.3c0,3.5,2.8,6.3,6.3,6.3c3.5,0,6.3-2.8,6.3-6.3C733.5,110.8,730.7,108,727.2,108z"/>
				<path d="M747,108c-3.5,0-6.3,2.8-6.3,6.3c0,3.5,2.8,6.3,6.3,6.3s6.3-2.8,6.3-6.3C753.3,110.8,750.4,108,747,108z"/>
				<path d="M766.7,108c-3.5,0-6.3,2.8-6.3,6.3c0,3.5,2.8,6.3,6.3,6.3c3.5,0,6.3-2.8,6.3-6.3C773,110.8,770.2,108,766.7,108z"/>
				<path d="M786.5,108c-3.5,0-6.3,2.8-6.3,6.3c0,3.5,2.8,6.3,6.3,6.3c3.5,0,6.3-2.8,6.3-6.3C792.8,110.8,790,108,786.5,108z"/>
				<path d="M806.3,108c-3.5,0-6.3,2.8-6.3,6.3c0,3.5,2.8,6.3,6.3,6.3c3.5,0,6.3-2.8,6.3-6.3C812.6,110.8,809.7,108,806.3,108z"/>
				<path d="M826,108c-3.5,0-6.3,2.8-6.3,6.3c0,3.5,2.8,6.3,6.3,6.3c3.5,0,6.3-2.8,6.3-6.3C832.3,110.8,829.5,108,826,108z"/>
			</g>
		</g>
	</g>
</g>
</svg>