<?xml version="1.0" encoding="utf-8"?>
<!-- Generator: Adobe Illustrator 22.0.1, SVG Export Plug-In . SVG Version: 6.00 Build 0)  -->
<svg version="1.1" id="Layer_1" xmlns="http://www.w3.org/2000/svg" xmlns:xlink="http://www.w3.org/1999/xlink" x="0px" y="0px"
	 viewBox="0 0 3967 2008.3" style="enable-background:new 0 0 3967 2008.3;" xml:space="preserve">
<style type="text/css">
	.st0{opacity:7.000730e-02;}
</style>
<g>
	<g>
		<g class="st0">
			<g>
				<path d="M54.8,390c-15.8,0-28.6,12.8-28.6,28.6c0,15.8,12.8,28.6,28.6,28.6c15.8,0,28.6-12.8,28.6-28.6
					C83.4,402.8,70.6,390,54.8,390z"/>
				<path d="M144.6,390c-15.8,0-28.6,12.8-28.6,28.6c0,15.8,12.8,28.6,28.6,28.6c15.8,0,28.6-12.8,28.6-28.6
					C173.2,402.8,160.3,390,144.6,390z"/>
				<path d="M234.3,390c-15.8,0-28.6,12.8-28.6,28.6c0,15.8,12.8,28.6,28.6,28.6c15.8,0,28.6-12.8,28.6-28.6
					C262.9,402.8,250.1,390,234.3,390z"/>
				<path d="M324.1,390c-15.8,0-28.6,12.8-28.6,28.6c0,15.8,12.8,28.6,28.6,28.6c15.8,0,28.6-12.8,28.6-28.6
					C352.7,402.8,339.8,390,324.1,390z"/>
				<path d="M413.8,390c-15.8,0-28.6,12.8-28.6,28.6c0,15.8,12.8,28.6,28.6,28.6c15.8,0,28.6-12.8,28.6-28.6
					C442.4,402.8,429.6,390,413.8,390z"/>
				<path d="M503.6,390c-15.8,0-28.6,12.8-28.6,28.6c0,15.8,12.8,28.6,28.6,28.6c15.8,0,28.6-12.8,28.6-28.6
					C532.2,402.8,519.4,390,503.6,390z"/>
				<path d="M593.4,390c-15.8,0-28.6,12.8-28.6,28.6c0,15.8,12.8,28.6,28.6,28.6c15.8,0,28.6-12.8,28.6-28.6
					C621.9,402.8,609.1,390,593.4,390z"/>
				<path d="M683.1,390c-15.8,0-28.6,12.8-28.6,28.6c0,15.8,12.8,28.6,28.6,28.6c15.8,0,28.6-12.8,28.6-28.6
					C711.7,402.8,698.9,390,683.1,390z"/>
				<path d="M772.9,390c-15.8,0-28.6,12.8-28.6,28.6c0,15.8,12.8,28.6,28.6,28.6c15.8,0,28.6-12.8,28.6-28.6
					C801.5,402.8,788.6,390,772.9,390z"/>
				<path d="M862.6,390c-15.8,0-28.6,12.8-28.6,28.6c0,15.8,12.8,28.6,28.6,28.6c15.8,0,28.6-12.8,28.6-28.6
					C891.2,402.8,878.4,390,862.6,390z"/>
				<path d="M952.4,390c-15.8,0-28.6,12.8-28.6,28.6c0,15.8,12.8,28.6,28.6,28.6c15.8,0,28.6-12.8,28.6-28.6
					C981,402.8,968.1,390,952.4,390z"/>
				<path d="M1042.2,390c-15.8,0-28.6,12.8-28.6,28.6c0,15.8,12.8,28.6,28.6,28.6c15.8,0,28.6-12.8,28.6-28.6
					C1070.7,402.8,1057.9,390,1042.2,390z"/>
				<path d="M1131.9,390c-15.8,0-28.6,12.8-28.6,28.6c0,15.8,12.8,28.6,28.6,28.6c15.8,0,28.6-12.8,28.6-28.6
					C1160.5,402.8,1147.7,390,1131.9,390z"/>
				<path d="M1311.4,390c-15.8,0-28.6,12.8-28.6,28.6c0,15.8,12.8,28.6,28.6,28.6c15.8,0,28.6-12.8,28.6-28.6
					C1340,402.8,1327.2,390,1311.4,390z"/>
				<path d="M1401.2,390c-15.8,0-28.6,12.8-28.6,28.6c0,15.8,12.8,28.6,28.6,28.6c15.8,0,28.6-12.8,28.6-28.6
					C1429.8,402.8,1417,390,1401.2,390z"/>
				<path d="M1490.9,390c-15.8,0-28.6,12.8-28.6,28.6c0,15.8,12.8,28.6,28.6,28.6s28.6-12.8,28.6-28.6
					C1519.5,402.8,1506.7,390,1490.9,390z"/>
				<path d="M1580.7,390c-15.8,0-28.6,12.8-28.6,28.6c0,15.8,12.8,28.6,28.6,28.6c15.8,0,28.6-12.8,28.6-28.6
					C1609.3,402.8,1596.5,390,1580.7,390z"/>
				<path d="M1670.5,390c-15.8,0-28.6,12.8-28.6,28.6c0,15.8,12.8,28.6,28.6,28.6c15.8,0,28.6-12.8,28.6-28.6
					C1699.1,402.8,1686.2,390,1670.5,390z"/>
				<path d="M2029.5,390c-15.8,0-28.6,12.8-28.6,28.6c0,15.8,12.8,28.6,28.6,28.6c15.8,0,28.6-12.8,28.6-28.6
					C2058.1,402.8,2045.3,390,2029.5,390z"/>
				<path d="M2119.3,390c-15.8,0-28.6,12.8-28.6,28.6c0,15.8,12.8,28.6,28.6,28.6c15.8,0,28.6-12.8,28.6-28.6
					C2147.9,402.8,2135,390,2119.3,390z"/>
				<path d="M2209,390c-15.8,0-28.6,12.8-28.6,28.6c0,15.8,12.8,28.6,28.6,28.6c15.8,0,28.6-12.8,28.6-28.6
					C2237.6,402.8,2224.8,390,2209,390z"/>
				<path d="M2298.8,390c-15.8,0-28.6,12.8-28.6,28.6c0,15.8,12.8,28.6,28.6,28.6c15.8,0,28.6-12.8,28.6-28.6
					C2327.4,402.8,2314.5,390,2298.8,390z"/>
				<path d="M2388.5,390c-15.8,0-28.6,12.8-28.6,28.6c0,15.8,12.8,28.6,28.6,28.6c15.8,0,28.6-12.8,28.6-28.6
					C2417.1,402.8,2404.3,390,2388.5,390z"/>
				<path d="M2478.3,390c-15.8,0-28.6,12.8-28.6,28.6c0,15.8,12.8,28.6,28.6,28.6c15.8,0,28.6-12.8,28.6-28.6
					C2506.9,402.8,2494.1,390,2478.3,390z"/>
				<path d="M2568.1,390c-15.8,0-28.6,12.8-28.6,28.6c0,15.8,12.8,28.6,28.6,28.6c15.8,0,28.6-12.8,28.6-28.6
					C2596.6,402.8,2583.8,390,2568.1,390z"/>
				<path d="M2657.8,390c-15.8,0-28.6,12.8-28.6,28.6c0,15.8,12.8,28.6,28.6,28.6c15.8,0,28.6-12.8,28.6-28.6
					C2686.4,402.8,2673.6,390,2657.8,390z"/>
				<path d="M2747.6,390c-15.8,0-28.6,12.8-28.6,28.6c0,15.8,12.8,28.6,28.6,28.6s28.6-12.8,28.6-28.6
					C2776.2,402.8,2763.3,390,2747.6,390z"/>
				<path d="M2837.3,390c-15.8,0-28.6,12.8-28.6,28.6c0,15.8,12.8,28.6,28.6,28.6s28.6-12.8,28.6-28.6
					C2865.9,402.8,2853.1,390,2837.3,390z"/>
				<path d="M2927.1,390c-15.8,0-28.6,12.8-28.6,28.6c0,15.8,12.8,28.6,28.6,28.6c15.8,0,28.6-12.8,28.6-28.6
					C2955.7,402.8,2942.9,390,2927.1,390z"/>
				<path d="M3016.8,390c-15.8,0-28.6,12.8-28.6,28.6c0,15.8,12.8,28.6,28.6,28.6c15.8,0,28.6-12.8,28.6-28.6
					C3045.4,402.8,3032.6,390,3016.8,390z"/>
				<path d="M3106.6,390c-15.8,0-28.6,12.8-28.6,28.6c0,15.8,12.8,28.6,28.6,28.6c15.8,0,28.6-12.8,28.6-28.6
					C3135.2,402.8,3122.4,390,3106.6,390z"/>
				<path d="M3196.3,390c-15.8,0-28.6,12.8-28.6,28.6c0,15.8,12.8,28.6,28.6,28.6c15.8,0,28.6-12.8,28.6-28.6
					C3225,402.8,3212.1,390,3196.3,390z"/>
				<path d="M3286.1,390c-15.8,0-28.6,12.8-28.6,28.6c0,15.8,12.8,28.6,28.6,28.6c15.8,0,28.6-12.8,28.6-28.6
					C3314.7,402.8,3301.9,390,3286.1,390z"/>
				<path d="M3375.9,390c-15.8,0-28.6,12.8-28.6,28.6c0,15.8,12.8,28.6,28.6,28.6s28.6-12.8,28.6-28.6
					C3404.5,402.8,3391.7,390,3375.9,390z"/>
				<path d="M3465.6,390c-15.8,0-28.6,12.8-28.6,28.6c0,15.8,12.8,28.6,28.6,28.6c15.8,0,28.6-12.8,28.6-28.6
					C3494.3,402.8,3481.4,390,3465.6,390z"/>
				<path d="M3555.4,390c-15.8,0-28.6,12.8-28.6,28.6c0,15.8,12.8,28.6,28.6,28.6c15.8,0,28.6-12.8,28.6-28.6
					C3584,402.8,3571.2,390,3555.4,390z"/>
				<path d="M3645.2,390c-15.8,0-28.6,12.8-28.6,28.6c0,15.8,12.8,28.6,28.6,28.6c15.8,0,28.6-12.8,28.6-28.6
					C3673.8,402.8,3660.9,390,3645.2,390z"/>
				<path d="M3734.9,390c-15.8,0-28.6,12.8-28.6,28.6c0,15.8,12.8,28.6,28.6,28.6c15.8,0,28.6-12.8,28.6-28.6
					C3763.5,402.8,3750.7,390,3734.9,390z"/>
				<path d="M3824.7,390c-15.8,0-28.6,12.8-28.6,28.6c0,15.8,12.8,28.6,28.6,28.6c15.8,0,28.6-12.8,28.6-28.6
					C3853.3,402.8,3840.4,390,3824.7,390z"/>
				<path d="M3914.4,390c-15.8,0-28.6,12.8-28.6,28.6c0,15.8,12.8,28.6,28.6,28.6c15.8,0,28.6-12.8,28.6-28.6
					C3943,402.8,3930.2,390,3914.4,390z"/>
				<path d="M54.8,299.7c-15.8,0-28.6,12.8-28.6,28.6c0,15.8,12.8,28.6,28.6,28.6c15.8,0,28.6-12.8,28.6-28.6
					C83.4,312.5,70.6,299.7,54.8,299.7z"/>
				<path d="M144.6,299.7c-15.8,0-28.6,12.8-28.6,28.6c0,15.8,12.8,28.6,28.6,28.6c15.8,0,28.6-12.8,28.6-28.6
					C173.2,312.5,160.3,299.7,144.6,299.7z"/>
				<path d="M234.3,299.7c-15.8,0-28.6,12.8-28.6,28.6c0,15.8,12.8,28.6,28.6,28.6c15.8,0,28.6-12.8,28.6-28.6
					C262.9,312.5,250.1,299.7,234.3,299.7z"/>
				<path d="M413.8,299.7c-15.8,0-28.6,12.8-28.6,28.6c0,15.8,12.8,28.6,28.6,28.6c15.8,0,28.6-12.8,28.6-28.6
					C442.4,312.5,429.6,299.7,413.8,299.7z"/>
				<path d="M503.6,299.7c-15.8,0-28.6,12.8-28.6,28.6c0,15.8,12.8,28.6,28.6,28.6c15.8,0,28.6-12.8,28.6-28.6
					C532.2,312.5,519.4,299.7,503.6,299.7z"/>
				<path d="M593.4,299.7c-15.8,0-28.6,12.8-28.6,28.6c0,15.8,12.8,28.6,28.6,28.6c15.8,0,28.6-12.8,28.6-28.6
					C621.9,312.5,609.1,299.7,593.4,299.7z"/>
				<path d="M683.1,299.7c-15.8,0-28.6,12.8-28.6,28.6c0,15.8,12.8,28.6,28.6,28.6c15.8,0,28.6-12.8,28.6-28.6
					C711.7,312.5,698.9,299.7,683.1,299.7z"/>
				<path d="M772.9,299.7c-15.8,0-28.6,12.8-28.6,28.6c0,15.8,12.8,28.6,28.6,28.6c15.8,0,28.6-12.8,28.6-28.6
					C801.5,312.5,788.6,299.7,772.9,299.7z"/>
				<path d="M862.6,299.7c-15.8,0-28.6,12.8-28.6,28.6c0,15.8,12.8,28.6,28.6,28.6c15.8,0,28.6-12.8,28.6-28.6
					C891.2,312.5,878.4,299.7,862.6,299.7z"/>
				<path d="M952.4,299.7c-15.8,0-28.6,12.8-28.6,28.6c0,15.8,12.8,28.6,28.6,28.6c15.8,0,28.6-12.8,28.6-28.6
					C981,312.5,968.1,299.7,952.4,299.7z"/>
				<path d="M1042.2,299.7c-15.8,0-28.6,12.8-28.6,28.6c0,15.8,12.8,28.6,28.6,28.6c15.8,0,28.6-12.8,28.6-28.6
					C1070.7,312.5,1057.9,299.7,1042.2,299.7z"/>
				<path d="M1311.4,299.7c-15.8,0-28.6,12.8-28.6,28.6c0,15.8,12.8,28.6,28.6,28.6c15.8,0,28.6-12.8,28.6-28.6
					C1340,312.5,1327.2,299.7,1311.4,299.7z"/>
				<path d="M1401.2,299.7c-15.8,0-28.6,12.8-28.6,28.6c0,15.8,12.8,28.6,28.6,28.6c15.8,0,28.6-12.8,28.6-28.6
					C1429.8,312.5,1417,299.7,1401.2,299.7z"/>
				<path d="M1490.9,299.7c-15.8,0-28.6,12.8-28.6,28.6c0,15.8,12.8,28.6,28.6,28.6s28.6-12.8,28.6-28.6
					C1519.5,312.5,1506.7,299.7,1490.9,299.7z"/>
				<path d="M1580.7,299.7c-15.8,0-28.6,12.8-28.6,28.6c0,15.8,12.8,28.6,28.6,28.6c15.8,0,28.6-12.8,28.6-28.6
					C1609.3,312.5,1596.5,299.7,1580.7,299.7z"/>
				<path d="M2119.3,299.7c-15.8,0-28.6,12.8-28.6,28.6c0,15.8,12.8,28.6,28.6,28.6c15.8,0,28.6-12.8,28.6-28.6
					C2147.9,312.5,2135,299.7,2119.3,299.7z"/>
				<path d="M2209,299.7c-15.8,0-28.6,12.8-28.6,28.6c0,15.8,12.8,28.6,28.6,28.6c15.8,0,28.6-12.8,28.6-28.6
					C2237.6,312.5,2224.8,299.7,2209,299.7z"/>
				<path d="M2478.3,299.7c-15.8,0-28.6,12.8-28.6,28.6c0,15.8,12.8,28.6,28.6,28.6c15.8,0,28.6-12.8,28.6-28.6
					C2506.9,312.5,2494.1,299.7,2478.3,299.7z"/>
				<path d="M2657.8,299.7c-15.8,0-28.6,12.8-28.6,28.6c0,15.8,12.8,28.6,28.6,28.6c15.8,0,28.6-12.8,28.6-28.6
					C2686.4,312.5,2673.6,299.7,2657.8,299.7z"/>
				<path d="M2747.6,299.7c-15.8,0-28.6,12.8-28.6,28.6c0,15.8,12.8,28.6,28.6,28.6s28.6-12.8,28.6-28.6
					C2776.2,312.5,2763.3,299.7,2747.6,299.7z"/>
				<path d="M2837.3,299.7c-15.8,0-28.6,12.8-28.6,28.6c0,15.8,12.8,28.6,28.6,28.6s28.6-12.8,28.6-28.6
					C2865.9,312.5,2853.1,299.7,2837.3,299.7z"/>
				<path d="M2927.1,299.7c-15.8,0-28.6,12.8-28.6,28.6c0,15.8,12.8,28.6,28.6,28.6c15.8,0,28.6-12.8,28.6-28.6
					C2955.7,312.5,2942.9,299.7,2927.1,299.7z"/>
				<path d="M3016.8,299.7c-15.8,0-28.6,12.8-28.6,28.6c0,15.8,12.8,28.6,28.6,28.6c15.8,0,28.6-12.8,28.6-28.6
					C3045.4,312.5,3032.6,299.7,3016.8,299.7z"/>
				<path d="M3106.6,299.7c-15.8,0-28.6,12.8-28.6,28.6c0,15.8,12.8,28.6,28.6,28.6c15.8,0,28.6-12.8,28.6-28.6
					C3135.2,312.5,3122.4,299.7,3106.6,299.7z"/>
				<path d="M3196.3,299.7c-15.8,0-28.6,12.8-28.6,28.6c0,15.8,12.8,28.6,28.6,28.6c15.8,0,28.6-12.8,28.6-28.6
					C3225,312.5,3212.1,299.7,3196.3,299.7z"/>
				<path d="M3286.1,299.7c-15.8,0-28.6,12.8-28.6,28.6c0,15.8,12.8,28.6,28.6,28.6c15.8,0,28.6-12.8,28.6-28.6
					C3314.7,312.5,3301.9,299.7,3286.1,299.7z"/>
				<path d="M3375.9,299.7c-15.8,0-28.6,12.8-28.6,28.6c0,15.8,12.8,28.6,28.6,28.6s28.6-12.8,28.6-28.6
					C3404.5,312.5,3391.7,299.7,3375.9,299.7z"/>
				<path d="M3465.6,299.7c-15.8,0-28.6,12.8-28.6,28.6c0,15.8,12.8,28.6,28.6,28.6c15.8,0,28.6-12.8,28.6-28.6
					C3494.3,312.5,3481.4,299.7,3465.6,299.7z"/>
				<path d="M3555.4,299.7c-15.8,0-28.6,12.8-28.6,28.6c0,15.8,12.8,28.6,28.6,28.6c15.8,0,28.6-12.8,28.6-28.6
					C3584,312.5,3571.2,299.7,3555.4,299.7z"/>
				<path d="M3645.2,299.7c-15.8,0-28.6,12.8-28.6,28.6c0,15.8,12.8,28.6,28.6,28.6c15.8,0,28.6-12.8,28.6-28.6
					C3673.8,312.5,3660.9,299.7,3645.2,299.7z"/>
				<path d="M3734.9,299.7c-15.8,0-28.6,12.8-28.6,28.6c0,15.8,12.8,28.6,28.6,28.6c15.8,0,28.6-12.8,28.6-28.6
					C3763.5,312.5,3750.7,299.7,3734.9,299.7z"/>
				<path d="M503.6,209.4c-15.8,0-28.6,12.8-28.6,28.6c0,15.8,12.8,28.6,28.6,28.6c15.8,0,28.6-12.8,28.6-28.6
					C532.2,222.3,519.4,209.4,503.6,209.4z"/>
				<path d="M593.4,209.4c-15.8,0-28.6,12.8-28.6,28.6c0,15.8,12.8,28.6,28.6,28.6c15.8,0,28.6-12.8,28.6-28.6
					C621.9,222.3,609.1,209.4,593.4,209.4z"/>
				<path d="M772.9,209.4c-15.8,0-28.6,12.8-28.6,28.6c0,15.8,12.8,28.6,28.6,28.6c15.8,0,28.6-12.8,28.6-28.6
					C801.5,222.3,788.6,209.4,772.9,209.4z"/>
				<path d="M952.4,209.4c-15.8,0-28.6,12.8-28.6,28.6c0,15.8,12.8,28.6,28.6,28.6c15.8,0,28.6-12.8,28.6-28.6
					C981,222.3,968.1,209.4,952.4,209.4z"/>
				<path d="M1221.7,209.4c-15.8,0-28.6,12.8-28.6,28.6c0,15.8,12.8,28.6,28.6,28.6c15.8,0,28.6-12.8,28.6-28.6
					C1250.3,222.3,1237.4,209.4,1221.7,209.4z"/>
				<path d="M1311.4,209.4c-15.8,0-28.6,12.8-28.6,28.6c0,15.8,12.8,28.6,28.6,28.6c15.8,0,28.6-12.8,28.6-28.6
					C1340,222.3,1327.2,209.4,1311.4,209.4z"/>
				<path d="M1401.2,209.4c-15.8,0-28.6,12.8-28.6,28.6c0,15.8,12.8,28.6,28.6,28.6c15.8,0,28.6-12.8,28.6-28.6
					C1429.8,222.3,1417,209.4,1401.2,209.4z"/>
				<path d="M1490.9,209.4c-15.8,0-28.6,12.8-28.6,28.6c0,15.8,12.8,28.6,28.6,28.6s28.6-12.8,28.6-28.6
					C1519.5,222.3,1506.7,209.4,1490.9,209.4z"/>
				<path d="M1580.7,209.4c-15.8,0-28.6,12.8-28.6,28.6c0,15.8,12.8,28.6,28.6,28.6c15.8,0,28.6-12.8,28.6-28.6
					C1609.3,222.3,1596.5,209.4,1580.7,209.4z"/>
				<path d="M2388.5,209.4c-15.8,0-28.6,12.8-28.6,28.6c0,15.8,12.8,28.6,28.6,28.6c15.8,0,28.6-12.8,28.6-28.6
					C2417.1,222.3,2404.3,209.4,2388.5,209.4z"/>
				<path d="M2478.3,209.4c-15.8,0-28.6,12.8-28.6,28.6c0,15.8,12.8,28.6,28.6,28.6c15.8,0,28.6-12.8,28.6-28.6
					C2506.9,222.3,2494.1,209.4,2478.3,209.4z"/>
				<path d="M2568.1,209.4c-15.8,0-28.6,12.8-28.6,28.6c0,15.8,12.8,28.6,28.6,28.6c15.8,0,28.6-12.8,28.6-28.6
					C2596.6,222.3,2583.8,209.4,2568.1,209.4z"/>
				<path d="M2657.8,209.4c-15.8,0-28.6,12.8-28.6,28.6c0,15.8,12.8,28.6,28.6,28.6c15.8,0,28.6-12.8,28.6-28.6
					C2686.4,222.3,2673.6,209.4,2657.8,209.4z"/>
				<path d="M2837.3,209.4c-15.8,0-28.6,12.8-28.6,28.6c0,15.8,12.8,28.6,28.6,28.6s28.6-12.8,28.6-28.6
					C2865.9,222.3,2853.1,209.4,2837.3,209.4z"/>
				<path d="M2927.1,209.4c-15.8,0-28.6,12.8-28.6,28.6c0,15.8,12.8,28.6,28.6,28.6c15.8,0,28.6-12.8,28.6-28.6
					C2955.7,222.3,2942.9,209.4,2927.1,209.4z"/>
				<path d="M3016.8,209.4c-15.8,0-28.6,12.8-28.6,28.6c0,15.8,12.8,28.6,28.6,28.6c15.8,0,28.6-12.8,28.6-28.6
					C3045.4,222.3,3032.6,209.4,3016.8,209.4z"/>
				<path d="M3106.6,209.4c-15.8,0-28.6,12.8-28.6,28.6c0,15.8,12.8,28.6,28.6,28.6c15.8,0,28.6-12.8,28.6-28.6
					C3135.2,222.3,3122.4,209.4,3106.6,209.4z"/>
				<path d="M3196.3,209.4c-15.8,0-28.6,12.8-28.6,28.6c0,15.8,12.8,28.6,28.6,28.6c15.8,0,28.6-12.8,28.6-28.6
					C3225,222.3,3212.1,209.4,3196.3,209.4z"/>
				<path d="M3375.9,209.4c-15.8,0-28.6,12.8-28.6,28.6c0,15.8,12.8,28.6,28.6,28.6s28.6-12.8,28.6-28.6
					C3404.5,222.3,3391.7,209.4,3375.9,209.4z"/>
				<path d="M593.4,119.2c-15.8,0-28.6,12.8-28.6,28.6c0,15.8,12.8,28.6,28.6,28.6c15.8,0,28.6-12.8,28.6-28.6
					C621.9,132,609.1,119.2,593.4,119.2z"/>
				<path d="M772.9,119.2c-15.8,0-28.6,12.8-28.6,28.6c0,15.8,12.8,28.6,28.6,28.6c15.8,0,28.6-12.8,28.6-28.6
					C801.5,132,788.6,119.2,772.9,119.2z"/>
				<path d="M862.6,119.2c-15.8,0-28.6,12.8-28.6,28.6c0,15.8,12.8,28.6,28.6,28.6c15.8,0,28.6-12.8,28.6-28.6
					C891.2,132,878.4,119.2,862.6,119.2z"/>
				<path d="M952.4,119.2c-15.8,0-28.6,12.8-28.6,28.6c0,15.8,12.8,28.6,28.6,28.6c15.8,0,28.6-12.8,28.6-28.6
					C981,132,968.1,119.2,952.4,119.2z"/>
				<path d="M1131.9,119.2c-15.8,0-28.6,12.8-28.6,28.6c0,15.8,12.8,28.6,28.6,28.6c15.8,0,28.6-12.8,28.6-28.6
					C1160.5,132,1147.7,119.2,1131.9,119.2z"/>
				<path d="M1221.7,119.2c-15.8,0-28.6,12.8-28.6,28.6c0,15.8,12.8,28.6,28.6,28.6c15.8,0,28.6-12.8,28.6-28.6
					C1250.3,132,1237.4,119.2,1221.7,119.2z"/>
				<path d="M1311.4,119.2c-15.8,0-28.6,12.8-28.6,28.6c0,15.8,12.8,28.6,28.6,28.6c15.8,0,28.6-12.8,28.6-28.6
					C1340,132,1327.2,119.2,1311.4,119.2z"/>
				<path d="M1401.2,119.2c-15.8,0-28.6,12.8-28.6,28.6c0,15.8,12.8,28.6,28.6,28.6c15.8,0,28.6-12.8,28.6-28.6
					C1429.8,132,1417,119.2,1401.2,119.2z"/>
				<path d="M1490.9,119.2c-15.8,0-28.6,12.8-28.6,28.6c0,15.8,12.8,28.6,28.6,28.6s28.6-12.8,28.6-28.6
					C1519.5,132,1506.7,119.2,1490.9,119.2z"/>
				<path d="M1580.7,119.2c-15.8,0-28.6,12.8-28.6,28.6c0,15.8,12.8,28.6,28.6,28.6c15.8,0,28.6-12.8,28.6-28.6
					C1609.3,132,1596.5,119.2,1580.7,119.2z"/>
				<path d="M1939.7,119.2c-15.8,0-28.6,12.8-28.6,28.6c0,15.8,12.8,28.6,28.6,28.6c15.8,0,28.6-12.8,28.6-28.6
					C1968.3,132,1955.5,119.2,1939.7,119.2z"/>
				<path d="M2029.5,119.2c-15.8,0-28.6,12.8-28.6,28.6c0,15.8,12.8,28.6,28.6,28.6c15.8,0,28.6-12.8,28.6-28.6
					C2058.1,132,2045.3,119.2,2029.5,119.2z"/>
				<path d="M2568.1,119.2c-15.8,0-28.6,12.8-28.6,28.6c0,15.8,12.8,28.6,28.6,28.6c15.8,0,28.6-12.8,28.6-28.6
					C2596.6,132,2583.8,119.2,2568.1,119.2z"/>
				<path d="M2927.1,119.2c-15.8,0-28.6,12.8-28.6,28.6c0,15.8,12.8,28.6,28.6,28.6c15.8,0,28.6-12.8,28.6-28.6
					C2955.7,132,2942.9,119.2,2927.1,119.2z"/>
				<path d="M3016.8,119.2c-15.8,0-28.6,12.8-28.6,28.6c0,15.8,12.8,28.6,28.6,28.6c15.8,0,28.6-12.8,28.6-28.6
					C3045.4,132,3032.6,119.2,3016.8,119.2z"/>
				<path d="M862.6,28.9c-15.8,0-28.6,12.8-28.6,28.6c0,15.8,12.8,28.6,28.6,28.6c15.8,0,28.6-12.8,28.6-28.6
					C891.2,41.7,878.4,28.9,862.6,28.9z"/>
				<path d="M952.4,28.9c-15.8,0-28.6,12.8-28.6,28.6c0,15.8,12.8,28.6,28.6,28.6c15.8,0,28.6-12.8,28.6-28.6
					C981,41.7,968.1,28.9,952.4,28.9z"/>
				<path d="M1042.2,28.9c-15.8,0-28.6,12.8-28.6,28.6c0,15.8,12.8,28.6,28.6,28.6c15.8,0,28.6-12.8,28.6-28.6
					C1070.7,41.7,1057.9,28.9,1042.2,28.9z"/>
				<path d="M1131.9,28.9c-15.8,0-28.6,12.8-28.6,28.6c0,15.8,12.8,28.6,28.6,28.6c15.8,0,28.6-12.8,28.6-28.6
					C1160.5,41.7,1147.7,28.9,1131.9,28.9z"/>
				<path d="M1311.4,28.9c-15.8,0-28.6,12.8-28.6,28.6c0,15.8,12.8,28.6,28.6,28.6c15.8,0,28.6-12.8,28.6-28.6
					C1340,41.7,1327.2,28.9,1311.4,28.9z"/>
				<path d="M1401.2,28.9c-15.8,0-28.6,12.8-28.6,28.6c0,15.8,12.8,28.6,28.6,28.6c15.8,0,28.6-12.8,28.6-28.6
					C1429.8,41.7,1417,28.9,1401.2,28.9z"/>
				<path d="M1490.9,28.9c-15.8,0-28.6,12.8-28.6,28.6c0,15.8,12.8,28.6,28.6,28.6s28.6-12.8,28.6-28.6
					C1519.5,41.7,1506.7,28.9,1490.9,28.9z"/>
				<path d="M1580.7,28.9c-15.8,0-28.6,12.8-28.6,28.6c0,15.8,12.8,28.6,28.6,28.6c15.8,0,28.6-12.8,28.6-28.6
					C1609.3,41.7,1596.5,28.9,1580.7,28.9z"/>
				<path d="M1670.5,28.9c-15.8,0-28.6,12.8-28.6,28.6c0,15.8,12.8,28.6,28.6,28.6c15.8,0,28.6-12.8,28.6-28.6
					C1699.1,41.7,1686.2,28.9,1670.5,28.9z"/>
				<path d="M1939.7,28.9c-15.8,0-28.6,12.8-28.6,28.6c0,15.8,12.8,28.6,28.6,28.6c15.8,0,28.6-12.8,28.6-28.6
					C1968.3,41.7,1955.5,28.9,1939.7,28.9z"/>
				<path d="M2478.3,28.9c-15.8,0-28.6,12.8-28.6,28.6c0,15.8,12.8,28.6,28.6,28.6c15.8,0,28.6-12.8,28.6-28.6
					C2506.9,41.7,2494.1,28.9,2478.3,28.9z"/>
				<path d="M2837.3,28.9c-15.8,0-28.6,12.8-28.6,28.6c0,15.8,12.8,28.6,28.6,28.6s28.6-12.8,28.6-28.6
					C2865.9,41.7,2853.1,28.9,2837.3,28.9z"/>
				<path d="M2927.1,28.9c-15.8,0-28.6,12.8-28.6,28.6c0,15.8,12.8,28.6,28.6,28.6c15.8,0,28.6-12.8,28.6-28.6
					C2955.7,41.7,2942.9,28.9,2927.1,28.9z"/>
				<path d="M503.6,841.3c-15.8,0-28.6,12.8-28.6,28.6c0,15.8,12.8,28.6,28.6,28.6c15.8,0,28.6-12.8,28.6-28.6
					C532.2,854.1,519.4,841.3,503.6,841.3z"/>
				<path d="M593.4,841.3c-15.8,0-28.6,12.8-28.6,28.6c0,15.8,12.8,28.6,28.6,28.6c15.8,0,28.6-12.8,28.6-28.6
					C621.9,854.1,609.1,841.3,593.4,841.3z"/>
				<path d="M683.1,841.3c-15.8,0-28.6,12.8-28.6,28.6c0,15.8,12.8,28.6,28.6,28.6c15.8,0,28.6-12.8,28.6-28.6
					C711.7,854.1,698.9,841.3,683.1,841.3z"/>
				<path d="M772.9,841.3c-15.8,0-28.6,12.8-28.6,28.6c0,15.8,12.8,28.6,28.6,28.6c15.8,0,28.6-12.8,28.6-28.6
					C801.5,854.1,788.6,841.3,772.9,841.3z"/>
				<path d="M862.6,841.3c-15.8,0-28.6,12.8-28.6,28.6c0,15.8,12.8,28.6,28.6,28.6c15.8,0,28.6-12.8,28.6-28.6
					C891.2,854.1,878.4,841.3,862.6,841.3z"/>
				<path d="M952.4,841.3c-15.8,0-28.6,12.8-28.6,28.6c0,15.8,12.8,28.6,28.6,28.6c15.8,0,28.6-12.8,28.6-28.6
					C981,854.1,968.1,841.3,952.4,841.3z"/>
				<path d="M1760.2,841.3c-15.8,0-28.6,12.8-28.6,28.6c0,15.8,12.8,28.6,28.6,28.6c15.8,0,28.6-12.8,28.6-28.6
					C1788.8,854.1,1776,841.3,1760.2,841.3z"/>
				<path d="M2209,841.3c-15.8,0-28.6,12.8-28.6,28.6c0,15.8,12.8,28.6,28.6,28.6c15.8,0,28.6-12.8,28.6-28.6
					C2237.6,854.1,2224.8,841.3,2209,841.3z"/>
				<path d="M2298.8,841.3c-15.8,0-28.6,12.8-28.6,28.6c0,15.8,12.8,28.6,28.6,28.6c15.8,0,28.6-12.8,28.6-28.6
					C2327.4,854.1,2314.5,841.3,2298.8,841.3z"/>
				<path d="M2388.5,841.3c-15.8,0-28.6,12.8-28.6,28.6c0,15.8,12.8,28.6,28.6,28.6c15.8,0,28.6-12.8,28.6-28.6
					C2417.1,854.1,2404.3,841.3,2388.5,841.3z"/>
				<path d="M2478.3,841.3c-15.8,0-28.6,12.8-28.6,28.6c0,15.8,12.8,28.6,28.6,28.6c15.8,0,28.6-12.8,28.6-28.6
					C2506.9,854.1,2494.1,841.3,2478.3,841.3z"/>
				<path d="M2568.1,841.3c-15.8,0-28.6,12.8-28.6,28.6c0,15.8,12.8,28.6,28.6,28.6c15.8,0,28.6-12.8,28.6-28.6
					C2596.6,854.1,2583.8,841.3,2568.1,841.3z"/>
				<path d="M2657.8,841.3c-15.8,0-28.6,12.8-28.6,28.6c0,15.8,12.8,28.6,28.6,28.6c15.8,0,28.6-12.8,28.6-28.6
					C2686.4,854.1,2673.6,841.3,2657.8,841.3z"/>
				<path d="M2747.6,841.3c-15.8,0-28.6,12.8-28.6,28.6c0,15.8,12.8,28.6,28.6,28.6s28.6-12.8,28.6-28.6
					C2776.2,854.1,2763.3,841.3,2747.6,841.3z"/>
				<path d="M2837.3,841.3c-15.8,0-28.6,12.8-28.6,28.6c0,15.8,12.8,28.6,28.6,28.6s28.6-12.8,28.6-28.6
					C2865.9,854.1,2853.1,841.3,2837.3,841.3z"/>
				<path d="M2927.1,841.3c-15.8,0-28.6,12.8-28.6,28.6c0,15.8,12.8,28.6,28.6,28.6c15.8,0,28.6-12.8,28.6-28.6
					C2955.7,854.1,2942.9,841.3,2927.1,841.3z"/>
				<path d="M3016.8,841.3c-15.8,0-28.6,12.8-28.6,28.6c0,15.8,12.8,28.6,28.6,28.6c15.8,0,28.6-12.8,28.6-28.6
					C3045.4,854.1,3032.6,841.3,3016.8,841.3z"/>
				<path d="M3106.6,841.3c-15.8,0-28.6,12.8-28.6,28.6c0,15.8,12.8,28.6,28.6,28.6c15.8,0,28.6-12.8,28.6-28.6
					C3135.2,854.1,3122.4,841.3,3106.6,841.3z"/>
				<path d="M3196.3,841.3c-15.8,0-28.6,12.8-28.6,28.6c0,15.8,12.8,28.6,28.6,28.6c15.8,0,28.6-12.8,28.6-28.6
					C3225,854.1,3212.1,841.3,3196.3,841.3z"/>
				<path d="M3286.1,841.3c-15.8,0-28.6,12.8-28.6,28.6c0,15.8,12.8,28.6,28.6,28.6c15.8,0,28.6-12.8,28.6-28.6
					C3314.7,854.1,3301.9,841.3,3286.1,841.3z"/>
				<path d="M3375.9,841.3c-15.8,0-28.6,12.8-28.6,28.6c0,15.8,12.8,28.6,28.6,28.6s28.6-12.8,28.6-28.6
					C3404.5,854.1,3391.7,841.3,3375.9,841.3z"/>
				<path d="M593.4,931.6c-15.8,0-28.6,12.8-28.6,28.6c0,15.8,12.8,28.6,28.6,28.6c15.8,0,28.6-12.8,28.6-28.6
					C621.9,944.4,609.1,931.6,593.4,931.6z"/>
				<path d="M683.1,931.6c-15.8,0-28.6,12.8-28.6,28.6c0,15.8,12.8,28.6,28.6,28.6c15.8,0,28.6-12.8,28.6-28.6
					C711.7,944.4,698.9,931.6,683.1,931.6z"/>
				<path d="M772.9,931.6c-15.8,0-28.6,12.8-28.6,28.6c0,15.8,12.8,28.6,28.6,28.6c15.8,0,28.6-12.8,28.6-28.6
					C801.5,944.4,788.6,931.6,772.9,931.6z"/>
				<path d="M952.4,931.6c-15.8,0-28.6,12.8-28.6,28.6c0,15.8,12.8,28.6,28.6,28.6c15.8,0,28.6-12.8,28.6-28.6
					C981,944.4,968.1,931.6,952.4,931.6z"/>
				<path d="M1760.2,931.6c-15.8,0-28.6,12.8-28.6,28.6c0,15.8,12.8,28.6,28.6,28.6c15.8,0,28.6-12.8,28.6-28.6
					C1788.8,944.4,1776,931.6,1760.2,931.6z"/>
				<path d="M1850,931.6c-15.8,0-28.6,12.8-28.6,28.6c0,15.8,12.8,28.6,28.6,28.6c15.8,0,28.6-12.8,28.6-28.6
					C1878.6,944.4,1865.8,931.6,1850,931.6z"/>
				<path d="M1939.7,931.6c-15.8,0-28.6,12.8-28.6,28.6c0,15.8,12.8,28.6,28.6,28.6c15.8,0,28.6-12.8,28.6-28.6
					C1968.3,944.4,1955.5,931.6,1939.7,931.6z"/>
				<path d="M2029.5,931.6c-15.8,0-28.6,12.8-28.6,28.6c0,15.8,12.8,28.6,28.6,28.6c15.8,0,28.6-12.8,28.6-28.6
					C2058.1,944.4,2045.3,931.6,2029.5,931.6z"/>
				<path d="M2119.3,931.6c-15.8,0-28.6,12.8-28.6,28.6c0,15.8,12.8,28.6,28.6,28.6c15.8,0,28.6-12.8,28.6-28.6
					C2147.9,944.4,2135,931.6,2119.3,931.6z"/>
				<path d="M2209,931.6c-15.8,0-28.6,12.8-28.6,28.6c0,15.8,12.8,28.6,28.6,28.6c15.8,0,28.6-12.8,28.6-28.6
					C2237.6,944.4,2224.8,931.6,2209,931.6z"/>
				<path d="M2298.8,931.6c-15.8,0-28.6,12.8-28.6,28.6c0,15.8,12.8,28.6,28.6,28.6c15.8,0,28.6-12.8,28.6-28.6
					C2327.4,944.4,2314.5,931.6,2298.8,931.6z"/>
				<path d="M2388.5,931.6c-15.8,0-28.6,12.8-28.6,28.6c0,15.8,12.8,28.6,28.6,28.6c15.8,0,28.6-12.8,28.6-28.6
					C2417.1,944.4,2404.3,931.6,2388.5,931.6z"/>
				<path d="M2478.3,931.6c-15.8,0-28.6,12.8-28.6,28.6c0,15.8,12.8,28.6,28.6,28.6c15.8,0,28.6-12.8,28.6-28.6
					C2506.9,944.4,2494.1,931.6,2478.3,931.6z"/>
				<path d="M2568.1,931.6c-15.8,0-28.6,12.8-28.6,28.6c0,15.8,12.8,28.6,28.6,28.6c15.8,0,28.6-12.8,28.6-28.6
					C2596.6,944.4,2583.8,931.6,2568.1,931.6z"/>
				<path d="M2657.8,931.6c-15.8,0-28.6,12.8-28.6,28.6c0,15.8,12.8,28.6,28.6,28.6c15.8,0,28.6-12.8,28.6-28.6
					C2686.4,944.4,2673.6,931.6,2657.8,931.6z"/>
				<path d="M2747.6,931.6c-15.8,0-28.6,12.8-28.6,28.6c0,15.8,12.8,28.6,28.6,28.6s28.6-12.8,28.6-28.6
					C2776.2,944.4,2763.3,931.6,2747.6,931.6z"/>
				<path d="M2837.3,931.6c-15.8,0-28.6,12.8-28.6,28.6c0,15.8,12.8,28.6,28.6,28.6s28.6-12.8,28.6-28.6
					C2865.9,944.4,2853.1,931.6,2837.3,931.6z"/>
				<path d="M2927.1,931.6c-15.8,0-28.6,12.8-28.6,28.6c0,15.8,12.8,28.6,28.6,28.6c15.8,0,28.6-12.8,28.6-28.6
					C2955.7,944.4,2942.9,931.6,2927.1,931.6z"/>
				<path d="M3016.8,931.6c-15.8,0-28.6,12.8-28.6,28.6c0,15.8,12.8,28.6,28.6,28.6c15.8,0,28.6-12.8,28.6-28.6
					C3045.4,944.4,3032.6,931.6,3016.8,931.6z"/>
				<path d="M3106.6,931.6c-15.8,0-28.6,12.8-28.6,28.6c0,15.8,12.8,28.6,28.6,28.6c15.8,0,28.6-12.8,28.6-28.6
					C3135.2,944.4,3122.4,931.6,3106.6,931.6z"/>
				<path d="M3196.3,931.6c-15.8,0-28.6,12.8-28.6,28.6c0,15.8,12.8,28.6,28.6,28.6c15.8,0,28.6-12.8,28.6-28.6
					C3225,944.4,3212.1,931.6,3196.3,931.6z"/>
				<path d="M683.1,1021.8c-15.8,0-28.6,12.8-28.6,28.6s12.8,28.6,28.6,28.6c15.8,0,28.6-12.8,28.6-28.6S698.9,1021.8,683.1,1021.8z
					"/>
				<path d="M772.9,1021.8c-15.8,0-28.6,12.8-28.6,28.6s12.8,28.6,28.6,28.6c15.8,0,28.6-12.8,28.6-28.6S788.6,1021.8,772.9,1021.8z
					"/>
				<path d="M952.4,1021.8c-15.8,0-28.6,12.8-28.6,28.6s12.8,28.6,28.6,28.6c15.8,0,28.6-12.8,28.6-28.6S968.1,1021.8,952.4,1021.8z
					"/>
				<path d="M1042.2,1021.8c-15.8,0-28.6,12.8-28.6,28.6s12.8,28.6,28.6,28.6c15.8,0,28.6-12.8,28.6-28.6
					S1057.9,1021.8,1042.2,1021.8z"/>
				<path d="M1670.5,1021.8c-15.8,0-28.6,12.8-28.6,28.6s12.8,28.6,28.6,28.6c15.8,0,28.6-12.8,28.6-28.6
					S1686.2,1021.8,1670.5,1021.8z"/>
				<path d="M1760.2,1021.8c-15.8,0-28.6,12.8-28.6,28.6s12.8,28.6,28.6,28.6c15.8,0,28.6-12.8,28.6-28.6S1776,1021.8,1760.2,1021.8
					z"/>
				<path d="M1850,1021.8c-15.8,0-28.6,12.8-28.6,28.6s12.8,28.6,28.6,28.6c15.8,0,28.6-12.8,28.6-28.6S1865.8,1021.8,1850,1021.8z"
					/>
				<path d="M1939.7,1021.8c-15.8,0-28.6,12.8-28.6,28.6s12.8,28.6,28.6,28.6c15.8,0,28.6-12.8,28.6-28.6
					S1955.5,1021.8,1939.7,1021.8z"/>
				<path d="M2029.5,1021.8c-15.8,0-28.6,12.8-28.6,28.6s12.8,28.6,28.6,28.6c15.8,0,28.6-12.8,28.6-28.6
					S2045.3,1021.8,2029.5,1021.8z"/>
				<path d="M2119.3,1021.8c-15.8,0-28.6,12.8-28.6,28.6s12.8,28.6,28.6,28.6c15.8,0,28.6-12.8,28.6-28.6S2135,1021.8,2119.3,1021.8
					z"/>
				<path d="M2209,1021.8c-15.8,0-28.6,12.8-28.6,28.6s12.8,28.6,28.6,28.6c15.8,0,28.6-12.8,28.6-28.6S2224.8,1021.8,2209,1021.8z"
					/>
				<path d="M2298.8,1021.8c-15.8,0-28.6,12.8-28.6,28.6s12.8,28.6,28.6,28.6c15.8,0,28.6-12.8,28.6-28.6
					S2314.5,1021.8,2298.8,1021.8z"/>
				<path d="M2388.5,1021.8c-15.8,0-28.6,12.8-28.6,28.6s12.8,28.6,28.6,28.6c15.8,0,28.6-12.8,28.6-28.6
					S2404.3,1021.8,2388.5,1021.8z"/>
				<path d="M2478.3,1021.8c-15.8,0-28.6,12.8-28.6,28.6s12.8,28.6,28.6,28.6c15.8,0,28.6-12.8,28.6-28.6
					S2494.1,1021.8,2478.3,1021.8z"/>
				<path d="M2657.8,1021.8c-15.8,0-28.6,12.8-28.6,28.6s12.8,28.6,28.6,28.6c15.8,0,28.6-12.8,28.6-28.6
					S2673.6,1021.8,2657.8,1021.8z"/>
				<path d="M2747.6,1021.8c-15.8,0-28.6,12.8-28.6,28.6s12.8,28.6,28.6,28.6s28.6-12.8,28.6-28.6S2763.3,1021.8,2747.6,1021.8z"/>
				<path d="M2837.3,1021.8c-15.8,0-28.6,12.8-28.6,28.6s12.8,28.6,28.6,28.6s28.6-12.8,28.6-28.6S2853.1,1021.8,2837.3,1021.8z"/>
				<path d="M2927.1,1021.8c-15.8,0-28.6,12.8-28.6,28.6s12.8,28.6,28.6,28.6c15.8,0,28.6-12.8,28.6-28.6
					S2942.9,1021.8,2927.1,1021.8z"/>
				<path d="M3016.8,1021.8c-15.8,0-28.6,12.8-28.6,28.6s12.8,28.6,28.6,28.6c15.8,0,28.6-12.8,28.6-28.6
					S3032.6,1021.8,3016.8,1021.8z"/>
				<path d="M3106.6,1021.8c-15.8,0-28.6,12.8-28.6,28.6s12.8,28.6,28.6,28.6c15.8,0,28.6-12.8,28.6-28.6
					S3122.4,1021.8,3106.6,1021.8z"/>
				<path d="M862.6,1112.1c-15.8,0-28.6,12.8-28.6,28.6s12.8,28.6,28.6,28.6c15.8,0,28.6-12.8,28.6-28.6S878.4,1112.1,862.6,1112.1z
					"/>
				<path d="M1042.2,1112.1c-15.8,0-28.6,12.8-28.6,28.6s12.8,28.6,28.6,28.6c15.8,0,28.6-12.8,28.6-28.6
					S1057.9,1112.1,1042.2,1112.1z"/>
				<path d="M1670.5,1112.1c-15.8,0-28.6,12.8-28.6,28.6s12.8,28.6,28.6,28.6c15.8,0,28.6-12.8,28.6-28.6
					S1686.2,1112.1,1670.5,1112.1z"/>
				<path d="M1760.2,1112.1c-15.8,0-28.6,12.8-28.6,28.6s12.8,28.6,28.6,28.6c15.8,0,28.6-12.8,28.6-28.6S1776,1112.1,1760.2,1112.1
					z"/>
				<path d="M1850,1112.1c-15.8,0-28.6,12.8-28.6,28.6s12.8,28.6,28.6,28.6c15.8,0,28.6-12.8,28.6-28.6S1865.8,1112.1,1850,1112.1z"
					/>
				<path d="M1939.7,1112.1c-15.8,0-28.6,12.8-28.6,28.6s12.8,28.6,28.6,28.6c15.8,0,28.6-12.8,28.6-28.6
					S1955.5,1112.1,1939.7,1112.1z"/>
				<path d="M2029.5,1112.1c-15.8,0-28.6,12.8-28.6,28.6s12.8,28.6,28.6,28.6c15.8,0,28.6-12.8,28.6-28.6
					S2045.3,1112.1,2029.5,1112.1z"/>
				<path d="M2119.3,1112.1c-15.8,0-28.6,12.8-28.6,28.6s12.8,28.6,28.6,28.6c15.8,0,28.6-12.8,28.6-28.6S2135,1112.1,2119.3,1112.1
					z"/>
				<path d="M2209,1112.1c-15.8,0-28.6,12.8-28.6,28.6s12.8,28.6,28.6,28.6c15.8,0,28.6-12.8,28.6-28.6S2224.8,1112.1,2209,1112.1z"
					/>
				<path d="M2298.8,1112.1c-15.8,0-28.6,12.8-28.6,28.6s12.8,28.6,28.6,28.6c15.8,0,28.6-12.8,28.6-28.6
					S2314.5,1112.1,2298.8,1112.1z"/>
				<path d="M2388.5,1112.1c-15.8,0-28.6,12.8-28.6,28.6s12.8,28.6,28.6,28.6c15.8,0,28.6-12.8,28.6-28.6
					S2404.3,1112.1,2388.5,1112.1z"/>
				<path d="M2657.8,1112.1c-15.8,0-28.6,12.8-28.6,28.6s12.8,28.6,28.6,28.6c15.8,0,28.6-12.8,28.6-28.6
					S2673.6,1112.1,2657.8,1112.1z"/>
				<path d="M2747.6,1112.1c-15.8,0-28.6,12.8-28.6,28.6s12.8,28.6,28.6,28.6s28.6-12.8,28.6-28.6S2763.3,1112.1,2747.6,1112.1z"/>
				<path d="M2927.1,1112.1c-15.8,0-28.6,12.8-28.6,28.6s12.8,28.6,28.6,28.6c15.8,0,28.6-12.8,28.6-28.6
					S2942.9,1112.1,2927.1,1112.1z"/>
				<path d="M3016.8,1112.1c-15.8,0-28.6,12.8-28.6,28.6s12.8,28.6,28.6,28.6c15.8,0,28.6-12.8,28.6-28.6
					S3032.6,1112.1,3016.8,1112.1z"/>
				<path d="M3196.3,1112.1c-15.8,0-28.6,12.8-28.6,28.6s12.8,28.6,28.6,28.6c15.8,0,28.6-12.8,28.6-28.6
					S3212.1,1112.1,3196.3,1112.1z"/>
				<path d="M952.4,1202.4c-15.8,0-28.6,12.8-28.6,28.6s12.8,28.6,28.6,28.6c15.8,0,28.6-12.8,28.6-28.6S968.1,1202.4,952.4,1202.4z
					"/>
				<path d="M1042.2,1202.4c-15.8,0-28.6,12.8-28.6,28.6s12.8,28.6,28.6,28.6c15.8,0,28.6-12.8,28.6-28.6
					S1057.9,1202.4,1042.2,1202.4z"/>
				<path d="M1131.9,1202.4c-15.8,0-28.6,12.8-28.6,28.6s12.8,28.6,28.6,28.6c15.8,0,28.6-12.8,28.6-28.6
					S1147.7,1202.4,1131.9,1202.4z"/>
				<path d="M1221.7,1202.4c-15.8,0-28.6,12.8-28.6,28.6s12.8,28.6,28.6,28.6c15.8,0,28.6-12.8,28.6-28.6
					S1237.4,1202.4,1221.7,1202.4z"/>
				<path d="M1760.2,1202.4c-15.8,0-28.6,12.8-28.6,28.6s12.8,28.6,28.6,28.6c15.8,0,28.6-12.8,28.6-28.6S1776,1202.4,1760.2,1202.4
					z"/>
				<path d="M1850,1202.4c-15.8,0-28.6,12.8-28.6,28.6s12.8,28.6,28.6,28.6c15.8,0,28.6-12.8,28.6-28.6S1865.8,1202.4,1850,1202.4z"
					/>
				<path d="M1939.7,1202.4c-15.8,0-28.6,12.8-28.6,28.6s12.8,28.6,28.6,28.6c15.8,0,28.6-12.8,28.6-28.6
					S1955.5,1202.4,1939.7,1202.4z"/>
				<path d="M2029.5,1202.4c-15.8,0-28.6,12.8-28.6,28.6s12.8,28.6,28.6,28.6c15.8,0,28.6-12.8,28.6-28.6
					S2045.3,1202.4,2029.5,1202.4z"/>
				<path d="M2119.3,1202.4c-15.8,0-28.6,12.8-28.6,28.6s12.8,28.6,28.6,28.6c15.8,0,28.6-12.8,28.6-28.6S2135,1202.4,2119.3,1202.4
					z"/>
				<path d="M2209,1202.4c-15.8,0-28.6,12.8-28.6,28.6s12.8,28.6,28.6,28.6c15.8,0,28.6-12.8,28.6-28.6S2224.8,1202.4,2209,1202.4z"
					/>
				<path d="M2298.8,1202.4c-15.8,0-28.6,12.8-28.6,28.6s12.8,28.6,28.6,28.6c15.8,0,28.6-12.8,28.6-28.6
					S2314.5,1202.4,2298.8,1202.4z"/>
				<path d="M2388.5,1202.4c-15.8,0-28.6,12.8-28.6,28.6s12.8,28.6,28.6,28.6c15.8,0,28.6-12.8,28.6-28.6
					S2404.3,1202.4,2388.5,1202.4z"/>
				<path d="M2747.6,1202.4c-15.8,0-28.6,12.8-28.6,28.6s12.8,28.6,28.6,28.6s28.6-12.8,28.6-28.6S2763.3,1202.4,2747.6,1202.4z"/>
				<path d="M2927.1,1202.4c-15.8,0-28.6,12.8-28.6,28.6s12.8,28.6,28.6,28.6c15.8,0,28.6-12.8,28.6-28.6
					S2942.9,1202.4,2927.1,1202.4z"/>
				<path d="M952.4,1292.7c-15.8,0-28.6,12.8-28.6,28.6c0,15.8,12.8,28.6,28.6,28.6c15.8,0,28.6-12.8,28.6-28.6
					C981,1305.5,968.1,1292.7,952.4,1292.7z"/>
				<path d="M1042.2,1292.7c-15.8,0-28.6,12.8-28.6,28.6c0,15.8,12.8,28.6,28.6,28.6c15.8,0,28.6-12.8,28.6-28.6
					C1070.7,1305.5,1057.9,1292.7,1042.2,1292.7z"/>
				<path d="M1131.9,1292.7c-15.8,0-28.6,12.8-28.6,28.6c0,15.8,12.8,28.6,28.6,28.6c15.8,0,28.6-12.8,28.6-28.6
					C1160.5,1305.5,1147.7,1292.7,1131.9,1292.7z"/>
				<path d="M1221.7,1292.7c-15.8,0-28.6,12.8-28.6,28.6c0,15.8,12.8,28.6,28.6,28.6c15.8,0,28.6-12.8,28.6-28.6
					C1250.3,1305.5,1237.4,1292.7,1221.7,1292.7z"/>
				<path d="M1311.4,1292.7c-15.8,0-28.6,12.8-28.6,28.6c0,15.8,12.8,28.6,28.6,28.6c15.8,0,28.6-12.8,28.6-28.6
					C1340,1305.5,1327.2,1292.7,1311.4,1292.7z"/>
				<path d="M1401.2,1292.7c-15.8,0-28.6,12.8-28.6,28.6c0,15.8,12.8,28.6,28.6,28.6c15.8,0,28.6-12.8,28.6-28.6
					C1429.8,1305.5,1417,1292.7,1401.2,1292.7z"/>
				<path d="M1939.7,1292.7c-15.8,0-28.6,12.8-28.6,28.6c0,15.8,12.8,28.6,28.6,28.6c15.8,0,28.6-12.8,28.6-28.6
					C1968.3,1305.5,1955.5,1292.7,1939.7,1292.7z"/>
				<path d="M2029.5,1292.7c-15.8,0-28.6,12.8-28.6,28.6c0,15.8,12.8,28.6,28.6,28.6c15.8,0,28.6-12.8,28.6-28.6
					C2058.1,1305.5,2045.3,1292.7,2029.5,1292.7z"/>
				<path d="M2119.3,1292.7c-15.8,0-28.6,12.8-28.6,28.6c0,15.8,12.8,28.6,28.6,28.6c15.8,0,28.6-12.8,28.6-28.6
					C2147.9,1305.5,2135,1292.7,2119.3,1292.7z"/>
				<path d="M2209,1292.7c-15.8,0-28.6,12.8-28.6,28.6c0,15.8,12.8,28.6,28.6,28.6c15.8,0,28.6-12.8,28.6-28.6
					C2237.6,1305.5,2224.8,1292.7,2209,1292.7z"/>
				<path d="M2298.8,1292.7c-15.8,0-28.6,12.8-28.6,28.6c0,15.8,12.8,28.6,28.6,28.6c15.8,0,28.6-12.8,28.6-28.6
					C2327.4,1305.5,2314.5,1292.7,2298.8,1292.7z"/>
				<path d="M3016.8,1292.7c-15.8,0-28.6,12.8-28.6,28.6c0,15.8,12.8,28.6,28.6,28.6c15.8,0,28.6-12.8,28.6-28.6
					C3045.4,1305.5,3032.6,1292.7,3016.8,1292.7z"/>
				<path d="M3106.6,1292.7c-15.8,0-28.6,12.8-28.6,28.6c0,15.8,12.8,28.6,28.6,28.6c15.8,0,28.6-12.8,28.6-28.6
					C3135.2,1305.5,3122.4,1292.7,3106.6,1292.7z"/>
				<path d="M3196.3,1292.7c-15.8,0-28.6,12.8-28.6,28.6c0,15.8,12.8,28.6,28.6,28.6c15.8,0,28.6-12.8,28.6-28.6
					C3225,1305.5,3212.1,1292.7,3196.3,1292.7z"/>
				<path d="M3375.9,1292.7c-15.8,0-28.6,12.8-28.6,28.6c0,15.8,12.8,28.6,28.6,28.6s28.6-12.8,28.6-28.6
					C3404.5,1305.5,3391.7,1292.7,3375.9,1292.7z"/>
				<path d="M3465.6,1292.7c-15.8,0-28.6,12.8-28.6,28.6c0,15.8,12.8,28.6,28.6,28.6c15.8,0,28.6-12.8,28.6-28.6
					C3494.3,1305.5,3481.4,1292.7,3465.6,1292.7z"/>
				<path d="M952.4,1382.9c-15.8,0-28.6,12.8-28.6,28.6c0,15.8,12.8,28.6,28.6,28.6c15.8,0,28.6-12.8,28.6-28.6
					C981,1395.8,968.1,1382.9,952.4,1382.9z"/>
				<path d="M1042.2,1382.9c-15.8,0-28.6,12.8-28.6,28.6c0,15.8,12.8,28.6,28.6,28.6c15.8,0,28.6-12.8,28.6-28.6
					C1070.7,1395.8,1057.9,1382.9,1042.2,1382.9z"/>
				<path d="M1131.9,1382.9c-15.8,0-28.6,12.8-28.6,28.6c0,15.8,12.8,28.6,28.6,28.6c15.8,0,28.6-12.8,28.6-28.6
					C1160.5,1395.8,1147.7,1382.9,1131.9,1382.9z"/>
				<path d="M1221.7,1382.9c-15.8,0-28.6,12.8-28.6,28.6c0,15.8,12.8,28.6,28.6,28.6c15.8,0,28.6-12.8,28.6-28.6
					C1250.3,1395.8,1237.4,1382.9,1221.7,1382.9z"/>
				<path d="M1311.4,1382.9c-15.8,0-28.6,12.8-28.6,28.6c0,15.8,12.8,28.6,28.6,28.6c15.8,0,28.6-12.8,28.6-28.6
					C1340,1395.8,1327.2,1382.9,1311.4,1382.9z"/>
				<path d="M1401.2,1382.9c-15.8,0-28.6,12.8-28.6,28.6c0,15.8,12.8,28.6,28.6,28.6c15.8,0,28.6-12.8,28.6-28.6
					C1429.8,1395.8,1417,1382.9,1401.2,1382.9z"/>
				<path d="M2029.5,1382.9c-15.8,0-28.6,12.8-28.6,28.6c0,15.8,12.8,28.6,28.6,28.6c15.8,0,28.6-12.8,28.6-28.6
					C2058.1,1395.8,2045.3,1382.9,2029.5,1382.9z"/>
				<path d="M2119.3,1382.9c-15.8,0-28.6,12.8-28.6,28.6c0,15.8,12.8,28.6,28.6,28.6c15.8,0,28.6-12.8,28.6-28.6
					C2147.9,1395.8,2135,1382.9,2119.3,1382.9z"/>
				<path d="M2209,1382.9c-15.8,0-28.6,12.8-28.6,28.6c0,15.8,12.8,28.6,28.6,28.6c15.8,0,28.6-12.8,28.6-28.6
					C2237.6,1395.8,2224.8,1382.9,2209,1382.9z"/>
				<path d="M2298.8,1382.9c-15.8,0-28.6,12.8-28.6,28.6c0,15.8,12.8,28.6,28.6,28.6c15.8,0,28.6-12.8,28.6-28.6
					C2327.4,1395.8,2314.5,1382.9,2298.8,1382.9z"/>
				<path d="M3375.9,1382.9c-15.8,0-28.6,12.8-28.6,28.6c0,15.8,12.8,28.6,28.6,28.6s28.6-12.8,28.6-28.6
					C3404.5,1395.8,3391.7,1382.9,3375.9,1382.9z"/>
				<path d="M1042.2,1473.2c-15.8,0-28.6,12.8-28.6,28.6c0,15.8,12.8,28.6,28.6,28.6c15.8,0,28.6-12.8,28.6-28.6
					C1070.7,1486,1057.9,1473.2,1042.2,1473.2z"/>
				<path d="M1131.9,1473.2c-15.8,0-28.6,12.8-28.6,28.6c0,15.8,12.8,28.6,28.6,28.6c15.8,0,28.6-12.8,28.6-28.6
					C1160.5,1486,1147.7,1473.2,1131.9,1473.2z"/>
				<path d="M1221.7,1473.2c-15.8,0-28.6,12.8-28.6,28.6c0,15.8,12.8,28.6,28.6,28.6c15.8,0,28.6-12.8,28.6-28.6
					C1250.3,1486,1237.4,1473.2,1221.7,1473.2z"/>
				<path d="M1311.4,1473.2c-15.8,0-28.6,12.8-28.6,28.6c0,15.8,12.8,28.6,28.6,28.6c15.8,0,28.6-12.8,28.6-28.6
					C1340,1486,1327.2,1473.2,1311.4,1473.2z"/>
				<path d="M1401.2,1473.2c-15.8,0-28.6,12.8-28.6,28.6c0,15.8,12.8,28.6,28.6,28.6c15.8,0,28.6-12.8,28.6-28.6
					C1429.8,1486,1417,1473.2,1401.2,1473.2z"/>
				<path d="M2029.5,1473.2c-15.8,0-28.6,12.8-28.6,28.6c0,15.8,12.8,28.6,28.6,28.6c15.8,0,28.6-12.8,28.6-28.6
					C2058.1,1486,2045.3,1473.2,2029.5,1473.2z"/>
				<path d="M2119.3,1473.2c-15.8,0-28.6,12.8-28.6,28.6c0,15.8,12.8,28.6,28.6,28.6c15.8,0,28.6-12.8,28.6-28.6
					C2147.9,1486,2135,1473.2,2119.3,1473.2z"/>
				<path d="M2209,1473.2c-15.8,0-28.6,12.8-28.6,28.6c0,15.8,12.8,28.6,28.6,28.6c15.8,0,28.6-12.8,28.6-28.6
					C2237.6,1486,2224.8,1473.2,2209,1473.2z"/>
				<path d="M2388.5,1473.2c-15.8,0-28.6,12.8-28.6,28.6c0,15.8,12.8,28.6,28.6,28.6c15.8,0,28.6-12.8,28.6-28.6
					C2417.1,1486,2404.3,1473.2,2388.5,1473.2z"/>
				<path d="M3196.3,1473.2c-15.8,0-28.6,12.8-28.6,28.6c0,15.8,12.8,28.6,28.6,28.6c15.8,0,28.6-12.8,28.6-28.6
					C3225,1486,3212.1,1473.2,3196.3,1473.2z"/>
				<path d="M3286.1,1473.2c-15.8,0-28.6,12.8-28.6,28.6c0,15.8,12.8,28.6,28.6,28.6c15.8,0,28.6-12.8,28.6-28.6
					C3314.7,1486,3301.9,1473.2,3286.1,1473.2z"/>
				<path d="M3375.9,1473.2c-15.8,0-28.6,12.8-28.6,28.6c0,15.8,12.8,28.6,28.6,28.6s28.6-12.8,28.6-28.6
					C3404.5,1486,3391.7,1473.2,3375.9,1473.2z"/>
				<path d="M3465.6,1473.2c-15.8,0-28.6,12.8-28.6,28.6c0,15.8,12.8,28.6,28.6,28.6c15.8,0,28.6-12.8,28.6-28.6
					C3494.3,1486,3481.4,1473.2,3465.6,1473.2z"/>
				<path d="M1131.9,1563.4c-15.8,0-28.6,12.8-28.6,28.6c0,15.8,12.8,28.6,28.6,28.6c15.8,0,28.6-12.8,28.6-28.6
					C1160.5,1576.3,1147.7,1563.4,1131.9,1563.4z"/>
				<path d="M1221.7,1563.4c-15.8,0-28.6,12.8-28.6,28.6c0,15.8,12.8,28.6,28.6,28.6c15.8,0,28.6-12.8,28.6-28.6
					C1250.3,1576.3,1237.4,1563.4,1221.7,1563.4z"/>
				<path d="M1311.4,1563.4c-15.8,0-28.6,12.8-28.6,28.6c0,15.8,12.8,28.6,28.6,28.6c15.8,0,28.6-12.8,28.6-28.6
					C1340,1576.3,1327.2,1563.4,1311.4,1563.4z"/>
				<path d="M2029.5,1563.4c-15.8,0-28.6,12.8-28.6,28.6c0,15.8,12.8,28.6,28.6,28.6c15.8,0,28.6-12.8,28.6-28.6
					C2058.1,1576.3,2045.3,1563.4,2029.5,1563.4z"/>
				<path d="M2119.3,1563.4c-15.8,0-28.6,12.8-28.6,28.6c0,15.8,12.8,28.6,28.6,28.6c15.8,0,28.6-12.8,28.6-28.6
					C2147.9,1576.3,2135,1563.4,2119.3,1563.4z"/>
				<path d="M2209,1563.4c-15.8,0-28.6,12.8-28.6,28.6c0,15.8,12.8,28.6,28.6,28.6c15.8,0,28.6-12.8,28.6-28.6
					C2237.6,1576.3,2224.8,1563.4,2209,1563.4z"/>
				<path d="M2298.8,1563.4c-15.8,0-28.6,12.8-28.6,28.6c0,15.8,12.8,28.6,28.6,28.6c15.8,0,28.6-12.8,28.6-28.6
					C2327.4,1576.3,2314.5,1563.4,2298.8,1563.4z"/>
				<path d="M3106.6,1563.4c-15.8,0-28.6,12.8-28.6,28.6c0,15.8,12.8,28.6,28.6,28.6c15.8,0,28.6-12.8,28.6-28.6
					C3135.2,1576.3,3122.4,1563.4,3106.6,1563.4z"/>
				<path d="M3196.3,1563.4c-15.8,0-28.6,12.8-28.6,28.6c0,15.8,12.8,28.6,28.6,28.6c15.8,0,28.6-12.8,28.6-28.6
					C3225,1576.3,3212.1,1563.4,3196.3,1563.4z"/>
				<path d="M3286.1,1563.4c-15.8,0-28.6,12.8-28.6,28.6c0,15.8,12.8,28.6,28.6,28.6c15.8,0,28.6-12.8,28.6-28.6
					C3314.7,1576.3,3301.9,1563.4,3286.1,1563.4z"/>
				<path d="M3375.9,1563.4c-15.8,0-28.6,12.8-28.6,28.6c0,15.8,12.8,28.6,28.6,28.6s28.6-12.8,28.6-28.6
					C3404.5,1576.3,3391.7,1563.4,3375.9,1563.4z"/>
				<path d="M3465.6,1563.4c-15.8,0-28.6,12.8-28.6,28.6c0,15.8,12.8,28.6,28.6,28.6c15.8,0,28.6-12.8,28.6-28.6
					C3494.3,1576.3,3481.4,1563.4,3465.6,1563.4z"/>
				<path d="M3555.4,1563.4c-15.8,0-28.6,12.8-28.6,28.6c0,15.8,12.8,28.6,28.6,28.6c15.8,0,28.6-12.8,28.6-28.6
					C3584,1576.3,3571.2,1563.4,3555.4,1563.4z"/>
				<path d="M1131.9,1653.7c-15.8,0-28.6,12.8-28.6,28.6c0,15.8,12.8,28.6,28.6,28.6c15.8,0,28.6-12.8,28.6-28.6
					C1160.5,1666.6,1147.7,1653.7,1131.9,1653.7z"/>
				<path d="M1221.7,1653.7c-15.8,0-28.6,12.8-28.6,28.6c0,15.8,12.8,28.6,28.6,28.6c15.8,0,28.6-12.8,28.6-28.6
					C1250.3,1666.6,1237.4,1653.7,1221.7,1653.7z"/>
				<path d="M2029.5,1653.7c-15.8,0-28.6,12.8-28.6,28.6c0,15.8,12.8,28.6,28.6,28.6c15.8,0,28.6-12.8,28.6-28.6
					C2058.1,1666.6,2045.3,1653.7,2029.5,1653.7z"/>
				<path d="M2119.3,1653.7c-15.8,0-28.6,12.8-28.6,28.6c0,15.8,12.8,28.6,28.6,28.6c15.8,0,28.6-12.8,28.6-28.6
					C2147.9,1666.6,2135,1653.7,2119.3,1653.7z"/>
				<path d="M3106.6,1653.7c-15.8,0-28.6,12.8-28.6,28.6c0,15.8,12.8,28.6,28.6,28.6c15.8,0,28.6-12.8,28.6-28.6
					C3135.2,1666.6,3122.4,1653.7,3106.6,1653.7z"/>
				<path d="M3196.3,1653.7c-15.8,0-28.6,12.8-28.6,28.6c0,15.8,12.8,28.6,28.6,28.6c15.8,0,28.6-12.8,28.6-28.6
					C3225,1666.6,3212.1,1653.7,3196.3,1653.7z"/>
				<path d="M3286.1,1653.7c-15.8,0-28.6,12.8-28.6,28.6c0,15.8,12.8,28.6,28.6,28.6c15.8,0,28.6-12.8,28.6-28.6
					C3314.7,1666.6,3301.9,1653.7,3286.1,1653.7z"/>
				<path d="M3375.9,1653.7c-15.8,0-28.6,12.8-28.6,28.6c0,15.8,12.8,28.6,28.6,28.6s28.6-12.8,28.6-28.6
					C3404.5,1666.6,3391.7,1653.7,3375.9,1653.7z"/>
				<path d="M3465.6,1653.7c-15.8,0-28.6,12.8-28.6,28.6c0,15.8,12.8,28.6,28.6,28.6c15.8,0,28.6-12.8,28.6-28.6
					C3494.3,1666.6,3481.4,1653.7,3465.6,1653.7z"/>
				<path d="M3734.9,1653.7c-15.8,0-28.6,12.8-28.6,28.6c0,15.8,12.8,28.6,28.6,28.6c15.8,0,28.6-12.8,28.6-28.6
					C3763.5,1666.6,3750.7,1653.7,3734.9,1653.7z"/>
				<path d="M1042.2,1744c-15.8,0-28.6,12.8-28.6,28.6c0,15.8,12.8,28.6,28.6,28.6c15.8,0,28.6-12.8,28.6-28.6
					C1070.7,1756.8,1057.9,1744,1042.2,1744z"/>
				<path d="M1131.9,1744c-15.8,0-28.6,12.8-28.6,28.6c0,15.8,12.8,28.6,28.6,28.6c15.8,0,28.6-12.8,28.6-28.6
					C1160.5,1756.8,1147.7,1744,1131.9,1744z"/>
				<path d="M3375.9,1744c-15.8,0-28.6,12.8-28.6,28.6c0,15.8,12.8,28.6,28.6,28.6s28.6-12.8,28.6-28.6
					C3404.5,1756.8,3391.7,1744,3375.9,1744z"/>
				<path d="M3465.6,1744c-15.8,0-28.6,12.8-28.6,28.6c0,15.8,12.8,28.6,28.6,28.6c15.8,0,28.6-12.8,28.6-28.6
					C3494.3,1756.8,3481.4,1744,3465.6,1744z"/>
				<path d="M3734.9,1744c-15.8,0-28.6,12.8-28.6,28.6c0,15.8,12.8,28.6,28.6,28.6c15.8,0,28.6-12.8,28.6-28.6
					C3763.5,1756.8,3750.7,1744,3734.9,1744z"/>
				<path d="M1042.2,1834.3c-15.8,0-28.6,12.8-28.6,28.6c0,15.8,12.8,28.6,28.6,28.6c15.8,0,28.6-12.8,28.6-28.6
					C1070.7,1847.1,1057.9,1834.3,1042.2,1834.3z"/>
				<path d="M1131.9,1834.3c-15.8,0-28.6,12.8-28.6,28.6c0,15.8,12.8,28.6,28.6,28.6c15.8,0,28.6-12.8,28.6-28.6
					C1160.5,1847.1,1147.7,1834.3,1131.9,1834.3z"/>
				<path d="M3645.2,1834.3c-15.8,0-28.6,12.8-28.6,28.6c0,15.8,12.8,28.6,28.6,28.6c15.8,0,28.6-12.8,28.6-28.6
					C3673.8,1847.1,3660.9,1834.3,3645.2,1834.3z"/>
				<path d="M1042.2,1924.6c-15.8,0-28.6,12.8-28.6,28.6c0,15.8,12.8,28.6,28.6,28.6c15.8,0,28.6-12.8,28.6-28.6
					C1070.7,1937.4,1057.9,1924.6,1042.2,1924.6z"/>
				<path d="M503.6,751c-15.8,0-28.6,12.8-28.6,28.6c0,15.8,12.8,28.6,28.6,28.6c15.8,0,28.6-12.8,28.6-28.6
					C532.2,763.9,519.4,751,503.6,751z"/>
				<path d="M593.4,751c-15.8,0-28.6,12.8-28.6,28.6c0,15.8,12.8,28.6,28.6,28.6c15.8,0,28.6-12.8,28.6-28.6
					C621.9,763.9,609.1,751,593.4,751z"/>
				<path d="M683.1,751c-15.8,0-28.6,12.8-28.6,28.6c0,15.8,12.8,28.6,28.6,28.6c15.8,0,28.6-12.8,28.6-28.6
					C711.7,763.9,698.9,751,683.1,751z"/>
				<path d="M772.9,751c-15.8,0-28.6,12.8-28.6,28.6c0,15.8,12.8,28.6,28.6,28.6c15.8,0,28.6-12.8,28.6-28.6
					C801.5,763.9,788.6,751,772.9,751z"/>
				<path d="M862.6,751c-15.8,0-28.6,12.8-28.6,28.6c0,15.8,12.8,28.6,28.6,28.6c15.8,0,28.6-12.8,28.6-28.6
					C891.2,763.9,878.4,751,862.6,751z"/>
				<path d="M952.4,751c-15.8,0-28.6,12.8-28.6,28.6c0,15.8,12.8,28.6,28.6,28.6c15.8,0,28.6-12.8,28.6-28.6
					C981,763.9,968.1,751,952.4,751z"/>
				<path d="M1042.2,751c-15.8,0-28.6,12.8-28.6,28.6c0,15.8,12.8,28.6,28.6,28.6c15.8,0,28.6-12.8,28.6-28.6
					C1070.7,763.9,1057.9,751,1042.2,751z"/>
				<path d="M1760.2,751c-15.8,0-28.6,12.8-28.6,28.6c0,15.8,12.8,28.6,28.6,28.6c15.8,0,28.6-12.8,28.6-28.6
					C1788.8,763.9,1776,751,1760.2,751z"/>
				<path d="M1850,751c-15.8,0-28.6,12.8-28.6,28.6c0,15.8,12.8,28.6,28.6,28.6c15.8,0,28.6-12.8,28.6-28.6
					C1878.6,763.9,1865.8,751,1850,751z"/>
				<path d="M1939.7,751c-15.8,0-28.6,12.8-28.6,28.6c0,15.8,12.8,28.6,28.6,28.6c15.8,0,28.6-12.8,28.6-28.6
					C1968.3,763.9,1955.5,751,1939.7,751z"/>
				<path d="M2029.5,751c-15.8,0-28.6,12.8-28.6,28.6c0,15.8,12.8,28.6,28.6,28.6c15.8,0,28.6-12.8,28.6-28.6
					C2058.1,763.9,2045.3,751,2029.5,751z"/>
				<path d="M2119.3,751c-15.8,0-28.6,12.8-28.6,28.6c0,15.8,12.8,28.6,28.6,28.6c15.8,0,28.6-12.8,28.6-28.6
					C2147.9,763.9,2135,751,2119.3,751z"/>
				<path d="M2298.8,751c-15.8,0-28.6,12.8-28.6,28.6c0,15.8,12.8,28.6,28.6,28.6c15.8,0,28.6-12.8,28.6-28.6
					C2327.4,763.9,2314.5,751,2298.8,751z"/>
				<path d="M2478.3,751c-15.8,0-28.6,12.8-28.6,28.6c0,15.8,12.8,28.6,28.6,28.6c15.8,0,28.6-12.8,28.6-28.6
					C2506.9,763.9,2494.1,751,2478.3,751z"/>
				<path d="M2568.1,751c-15.8,0-28.6,12.8-28.6,28.6c0,15.8,12.8,28.6,28.6,28.6c15.8,0,28.6-12.8,28.6-28.6
					C2596.6,763.9,2583.8,751,2568.1,751z"/>
				<path d="M2657.8,751c-15.8,0-28.6,12.8-28.6,28.6c0,15.8,12.8,28.6,28.6,28.6c15.8,0,28.6-12.8,28.6-28.6
					C2686.4,763.9,2673.6,751,2657.8,751z"/>
				<path d="M2747.6,751c-15.8,0-28.6,12.8-28.6,28.6c0,15.8,12.8,28.6,28.6,28.6s28.6-12.8,28.6-28.6
					C2776.2,763.9,2763.3,751,2747.6,751z"/>
				<path d="M2837.3,751c-15.8,0-28.6,12.8-28.6,28.6c0,15.8,12.8,28.6,28.6,28.6s28.6-12.8,28.6-28.6
					C2865.9,763.9,2853.1,751,2837.3,751z"/>
				<path d="M2927.1,751c-15.8,0-28.6,12.8-28.6,28.6c0,15.8,12.8,28.6,28.6,28.6c15.8,0,28.6-12.8,28.6-28.6
					C2955.7,763.9,2942.9,751,2927.1,751z"/>
				<path d="M3016.8,751c-15.8,0-28.6,12.8-28.6,28.6c0,15.8,12.8,28.6,28.6,28.6c15.8,0,28.6-12.8,28.6-28.6
					C3045.4,763.9,3032.6,751,3016.8,751z"/>
				<path d="M3106.6,751c-15.8,0-28.6,12.8-28.6,28.6c0,15.8,12.8,28.6,28.6,28.6c15.8,0,28.6-12.8,28.6-28.6
					C3135.2,763.9,3122.4,751,3106.6,751z"/>
				<path d="M3196.3,751c-15.8,0-28.6,12.8-28.6,28.6c0,15.8,12.8,28.6,28.6,28.6c15.8,0,28.6-12.8,28.6-28.6
					C3225,763.9,3212.1,751,3196.3,751z"/>
				<path d="M3286.1,751c-15.8,0-28.6,12.8-28.6,28.6c0,15.8,12.8,28.6,28.6,28.6c15.8,0,28.6-12.8,28.6-28.6
					C3314.7,763.9,3301.9,751,3286.1,751z"/>
				<path d="M3465.6,751c-15.8,0-28.6,12.8-28.6,28.6c0,15.8,12.8,28.6,28.6,28.6c15.8,0,28.6-12.8,28.6-28.6
					C3494.3,763.9,3481.4,751,3465.6,751z"/>
				<path d="M503.6,660.8c-15.8,0-28.6,12.8-28.6,28.6c0,15.8,12.8,28.6,28.6,28.6c15.8,0,28.6-12.8,28.6-28.6
					C532.2,673.6,519.4,660.8,503.6,660.8z"/>
				<path d="M593.4,660.8c-15.8,0-28.6,12.8-28.6,28.6c0,15.8,12.8,28.6,28.6,28.6c15.8,0,28.6-12.8,28.6-28.6
					C621.9,673.6,609.1,660.8,593.4,660.8z"/>
				<path d="M683.1,660.8c-15.8,0-28.6,12.8-28.6,28.6c0,15.8,12.8,28.6,28.6,28.6c15.8,0,28.6-12.8,28.6-28.6
					C711.7,673.6,698.9,660.8,683.1,660.8z"/>
				<path d="M772.9,660.8c-15.8,0-28.6,12.8-28.6,28.6c0,15.8,12.8,28.6,28.6,28.6c15.8,0,28.6-12.8,28.6-28.6
					C801.5,673.6,788.6,660.8,772.9,660.8z"/>
				<path d="M862.6,660.8c-15.8,0-28.6,12.8-28.6,28.6c0,15.8,12.8,28.6,28.6,28.6c15.8,0,28.6-12.8,28.6-28.6
					C891.2,673.6,878.4,660.8,862.6,660.8z"/>
				<path d="M952.4,660.8c-15.8,0-28.6,12.8-28.6,28.6c0,15.8,12.8,28.6,28.6,28.6c15.8,0,28.6-12.8,28.6-28.6
					C981,673.6,968.1,660.8,952.4,660.8z"/>
				<path d="M1042.2,660.8c-15.8,0-28.6,12.8-28.6,28.6c0,15.8,12.8,28.6,28.6,28.6c15.8,0,28.6-12.8,28.6-28.6
					C1070.7,673.6,1057.9,660.8,1042.2,660.8z"/>
				<path d="M1131.9,660.8c-15.8,0-28.6,12.8-28.6,28.6c0,15.8,12.8,28.6,28.6,28.6c15.8,0,28.6-12.8,28.6-28.6
					C1160.5,673.6,1147.7,660.8,1131.9,660.8z"/>
				<path d="M1221.7,660.8c-15.8,0-28.6,12.8-28.6,28.6c0,15.8,12.8,28.6,28.6,28.6c15.8,0,28.6-12.8,28.6-28.6
					C1250.3,673.6,1237.4,660.8,1221.7,660.8z"/>
				<path d="M1850,660.8c-15.8,0-28.6,12.8-28.6,28.6c0,15.8,12.8,28.6,28.6,28.6c15.8,0,28.6-12.8,28.6-28.6
					C1878.6,673.6,1865.8,660.8,1850,660.8z"/>
				<path d="M1939.7,660.8c-15.8,0-28.6,12.8-28.6,28.6c0,15.8,12.8,28.6,28.6,28.6c15.8,0,28.6-12.8,28.6-28.6
					C1968.3,673.6,1955.5,660.8,1939.7,660.8z"/>
				<path d="M2029.5,660.8c-15.8,0-28.6,12.8-28.6,28.6c0,15.8,12.8,28.6,28.6,28.6c15.8,0,28.6-12.8,28.6-28.6
					C2058.1,673.6,2045.3,660.8,2029.5,660.8z"/>
				<path d="M2119.3,660.8c-15.8,0-28.6,12.8-28.6,28.6c0,15.8,12.8,28.6,28.6,28.6c15.8,0,28.6-12.8,28.6-28.6
					C2147.9,673.6,2135,660.8,2119.3,660.8z"/>
				<path d="M2209,660.8c-15.8,0-28.6,12.8-28.6,28.6c0,15.8,12.8,28.6,28.6,28.6c15.8,0,28.6-12.8,28.6-28.6
					C2237.6,673.6,2224.8,660.8,2209,660.8z"/>
				<path d="M2298.8,660.8c-15.8,0-28.6,12.8-28.6,28.6c0,15.8,12.8,28.6,28.6,28.6c15.8,0,28.6-12.8,28.6-28.6
					C2327.4,673.6,2314.5,660.8,2298.8,660.8z"/>
				<path d="M2388.5,660.8c-15.8,0-28.6,12.8-28.6,28.6c0,15.8,12.8,28.6,28.6,28.6c15.8,0,28.6-12.8,28.6-28.6
					C2417.1,673.6,2404.3,660.8,2388.5,660.8z"/>
				<path d="M2478.3,660.8c-15.8,0-28.6,12.8-28.6,28.6c0,15.8,12.8,28.6,28.6,28.6c15.8,0,28.6-12.8,28.6-28.6
					C2506.9,673.6,2494.1,660.8,2478.3,660.8z"/>
				<path d="M2568.1,660.8c-15.8,0-28.6,12.8-28.6,28.6c0,15.8,12.8,28.6,28.6,28.6c15.8,0,28.6-12.8,28.6-28.6
					C2596.6,673.6,2583.8,660.8,2568.1,660.8z"/>
				<path d="M2657.8,660.8c-15.8,0-28.6,12.8-28.6,28.6c0,15.8,12.8,28.6,28.6,28.6c15.8,0,28.6-12.8,28.6-28.6
					C2686.4,673.6,2673.6,660.8,2657.8,660.8z"/>
				<path d="M2747.6,660.8c-15.8,0-28.6,12.8-28.6,28.6c0,15.8,12.8,28.6,28.6,28.6s28.6-12.8,28.6-28.6
					C2776.2,673.6,2763.3,660.8,2747.6,660.8z"/>
				<path d="M2837.3,660.8c-15.8,0-28.6,12.8-28.6,28.6c0,15.8,12.8,28.6,28.6,28.6s28.6-12.8,28.6-28.6
					C2865.9,673.6,2853.1,660.8,2837.3,660.8z"/>
				<path d="M2927.1,660.8c-15.8,0-28.6,12.8-28.6,28.6c0,15.8,12.8,28.6,28.6,28.6c15.8,0,28.6-12.8,28.6-28.6
					C2955.7,673.6,2942.9,660.8,2927.1,660.8z"/>
				<path d="M3016.8,660.8c-15.8,0-28.6,12.8-28.6,28.6c0,15.8,12.8,28.6,28.6,28.6c15.8,0,28.6-12.8,28.6-28.6
					C3045.4,673.6,3032.6,660.8,3016.8,660.8z"/>
				<path d="M3106.6,660.8c-15.8,0-28.6,12.8-28.6,28.6c0,15.8,12.8,28.6,28.6,28.6c15.8,0,28.6-12.8,28.6-28.6
					C3135.2,673.6,3122.4,660.8,3106.6,660.8z"/>
				<path d="M3196.3,660.8c-15.8,0-28.6,12.8-28.6,28.6c0,15.8,12.8,28.6,28.6,28.6c15.8,0,28.6-12.8,28.6-28.6
					C3225,673.6,3212.1,660.8,3196.3,660.8z"/>
				<path d="M3286.1,660.8c-15.8,0-28.6,12.8-28.6,28.6c0,15.8,12.8,28.6,28.6,28.6c15.8,0,28.6-12.8,28.6-28.6
					C3314.7,673.6,3301.9,660.8,3286.1,660.8z"/>
				<path d="M3375.9,660.8c-15.8,0-28.6,12.8-28.6,28.6c0,15.8,12.8,28.6,28.6,28.6s28.6-12.8,28.6-28.6
					C3404.5,673.6,3391.7,660.8,3375.9,660.8z"/>
				<path d="M3555.4,660.8c-15.8,0-28.6,12.8-28.6,28.6c0,15.8,12.8,28.6,28.6,28.6c15.8,0,28.6-12.8,28.6-28.6
					C3584,673.6,3571.2,660.8,3555.4,660.8z"/>
				<path d="M54.8,570.5c-15.8,0-28.6,12.8-28.6,28.6c0,15.8,12.8,28.6,28.6,28.6c15.8,0,28.6-12.8,28.6-28.6
					C83.4,583.3,70.6,570.5,54.8,570.5z"/>
				<path d="M413.8,570.5c-15.8,0-28.6,12.8-28.6,28.6c0,15.8,12.8,28.6,28.6,28.6c15.8,0,28.6-12.8,28.6-28.6
					C442.4,583.3,429.6,570.5,413.8,570.5z"/>
				<path d="M503.6,570.5c-15.8,0-28.6,12.8-28.6,28.6c0,15.8,12.8,28.6,28.6,28.6c15.8,0,28.6-12.8,28.6-28.6
					C532.2,583.3,519.4,570.5,503.6,570.5z"/>
				<path d="M593.4,570.5c-15.8,0-28.6,12.8-28.6,28.6c0,15.8,12.8,28.6,28.6,28.6c15.8,0,28.6-12.8,28.6-28.6
					C621.9,583.3,609.1,570.5,593.4,570.5z"/>
				<path d="M683.1,570.5c-15.8,0-28.6,12.8-28.6,28.6c0,15.8,12.8,28.6,28.6,28.6c15.8,0,28.6-12.8,28.6-28.6
					C711.7,583.3,698.9,570.5,683.1,570.5z"/>
				<path d="M772.9,570.5c-15.8,0-28.6,12.8-28.6,28.6c0,15.8,12.8,28.6,28.6,28.6c15.8,0,28.6-12.8,28.6-28.6
					C801.5,583.3,788.6,570.5,772.9,570.5z"/>
				<path d="M862.6,570.5c-15.8,0-28.6,12.8-28.6,28.6c0,15.8,12.8,28.6,28.6,28.6c15.8,0,28.6-12.8,28.6-28.6
					C891.2,583.3,878.4,570.5,862.6,570.5z"/>
				<path d="M952.4,570.5c-15.8,0-28.6,12.8-28.6,28.6c0,15.8,12.8,28.6,28.6,28.6c15.8,0,28.6-12.8,28.6-28.6
					C981,583.3,968.1,570.5,952.4,570.5z"/>
				<path d="M1042.2,570.5c-15.8,0-28.6,12.8-28.6,28.6c0,15.8,12.8,28.6,28.6,28.6c15.8,0,28.6-12.8,28.6-28.6
					C1070.7,583.3,1057.9,570.5,1042.2,570.5z"/>
				<path d="M1131.9,570.5c-15.8,0-28.6,12.8-28.6,28.6c0,15.8,12.8,28.6,28.6,28.6c15.8,0,28.6-12.8,28.6-28.6
					C1160.5,583.3,1147.7,570.5,1131.9,570.5z"/>
				<path d="M1221.7,570.5c-15.8,0-28.6,12.8-28.6,28.6c0,15.8,12.8,28.6,28.6,28.6c15.8,0,28.6-12.8,28.6-28.6
					C1250.3,583.3,1237.4,570.5,1221.7,570.5z"/>
				<path d="M1760.2,570.5c-15.8,0-28.6,12.8-28.6,28.6c0,15.8,12.8,28.6,28.6,28.6c15.8,0,28.6-12.8,28.6-28.6
					C1788.8,583.3,1776,570.5,1760.2,570.5z"/>
				<path d="M1850,570.5c-15.8,0-28.6,12.8-28.6,28.6c0,15.8,12.8,28.6,28.6,28.6c15.8,0,28.6-12.8,28.6-28.6
					C1878.6,583.3,1865.8,570.5,1850,570.5z"/>
				<path d="M1939.7,570.5c-15.8,0-28.6,12.8-28.6,28.6c0,15.8,12.8,28.6,28.6,28.6c15.8,0,28.6-12.8,28.6-28.6
					C1968.3,583.3,1955.5,570.5,1939.7,570.5z"/>
				<path d="M2029.5,570.5c-15.8,0-28.6,12.8-28.6,28.6c0,15.8,12.8,28.6,28.6,28.6c15.8,0,28.6-12.8,28.6-28.6
					C2058.1,583.3,2045.3,570.5,2029.5,570.5z"/>
				<path d="M2119.3,570.5c-15.8,0-28.6,12.8-28.6,28.6c0,15.8,12.8,28.6,28.6,28.6c15.8,0,28.6-12.8,28.6-28.6
					C2147.9,583.3,2135,570.5,2119.3,570.5z"/>
				<path d="M2209,570.5c-15.8,0-28.6,12.8-28.6,28.6c0,15.8,12.8,28.6,28.6,28.6c15.8,0,28.6-12.8,28.6-28.6
					C2237.6,583.3,2224.8,570.5,2209,570.5z"/>
				<path d="M2298.8,570.5c-15.8,0-28.6,12.8-28.6,28.6c0,15.8,12.8,28.6,28.6,28.6c15.8,0,28.6-12.8,28.6-28.6
					C2327.4,583.3,2314.5,570.5,2298.8,570.5z"/>
				<path d="M2388.5,570.5c-15.8,0-28.6,12.8-28.6,28.6c0,15.8,12.8,28.6,28.6,28.6c15.8,0,28.6-12.8,28.6-28.6
					C2417.1,583.3,2404.3,570.5,2388.5,570.5z"/>
				<path d="M2478.3,570.5c-15.8,0-28.6,12.8-28.6,28.6c0,15.8,12.8,28.6,28.6,28.6c15.8,0,28.6-12.8,28.6-28.6
					C2506.9,583.3,2494.1,570.5,2478.3,570.5z"/>
				<path d="M2568.1,570.5c-15.8,0-28.6,12.8-28.6,28.6c0,15.8,12.8,28.6,28.6,28.6c15.8,0,28.6-12.8,28.6-28.6
					C2596.6,583.3,2583.8,570.5,2568.1,570.5z"/>
				<path d="M2657.8,570.5c-15.8,0-28.6,12.8-28.6,28.6c0,15.8,12.8,28.6,28.6,28.6c15.8,0,28.6-12.8,28.6-28.6
					C2686.4,583.3,2673.6,570.5,2657.8,570.5z"/>
				<path d="M2747.6,570.5c-15.8,0-28.6,12.8-28.6,28.6c0,15.8,12.8,28.6,28.6,28.6s28.6-12.8,28.6-28.6
					C2776.2,583.3,2763.3,570.5,2747.6,570.5z"/>
				<path d="M2837.3,570.5c-15.8,0-28.6,12.8-28.6,28.6c0,15.8,12.8,28.6,28.6,28.6s28.6-12.8,28.6-28.6
					C2865.9,583.3,2853.1,570.5,2837.3,570.5z"/>
				<path d="M2927.1,570.5c-15.8,0-28.6,12.8-28.6,28.6c0,15.8,12.8,28.6,28.6,28.6c15.8,0,28.6-12.8,28.6-28.6
					C2955.7,583.3,2942.9,570.5,2927.1,570.5z"/>
				<path d="M3016.8,570.5c-15.8,0-28.6,12.8-28.6,28.6c0,15.8,12.8,28.6,28.6,28.6c15.8,0,28.6-12.8,28.6-28.6
					C3045.4,583.3,3032.6,570.5,3016.8,570.5z"/>
				<path d="M3106.6,570.5c-15.8,0-28.6,12.8-28.6,28.6c0,15.8,12.8,28.6,28.6,28.6c15.8,0,28.6-12.8,28.6-28.6
					C3135.2,583.3,3122.4,570.5,3106.6,570.5z"/>
				<path d="M3196.3,570.5c-15.8,0-28.6,12.8-28.6,28.6c0,15.8,12.8,28.6,28.6,28.6c15.8,0,28.6-12.8,28.6-28.6
					C3225,583.3,3212.1,570.5,3196.3,570.5z"/>
				<path d="M3286.1,570.5c-15.8,0-28.6,12.8-28.6,28.6c0,15.8,12.8,28.6,28.6,28.6c15.8,0,28.6-12.8,28.6-28.6
					C3314.7,583.3,3301.9,570.5,3286.1,570.5z"/>
				<path d="M3375.9,570.5c-15.8,0-28.6,12.8-28.6,28.6c0,15.8,12.8,28.6,28.6,28.6s28.6-12.8,28.6-28.6
					C3404.5,583.3,3391.7,570.5,3375.9,570.5z"/>
				<path d="M3555.4,570.5c-15.8,0-28.6,12.8-28.6,28.6c0,15.8,12.8,28.6,28.6,28.6c15.8,0,28.6-12.8,28.6-28.6
					C3584,583.3,3571.2,570.5,3555.4,570.5z"/>
				<path d="M3645.2,570.5c-15.8,0-28.6,12.8-28.6,28.6c0,15.8,12.8,28.6,28.6,28.6c15.8,0,28.6-12.8,28.6-28.6
					C3673.8,583.3,3660.9,570.5,3645.2,570.5z"/>
				<path d="M54.8,480.2c-15.8,0-28.6,12.8-28.6,28.6c0,15.8,12.8,28.6,28.6,28.6c15.8,0,28.6-12.8,28.6-28.6
					C83.4,493.1,70.6,480.2,54.8,480.2z"/>
				<path d="M144.6,480.2c-15.8,0-28.6,12.8-28.6,28.6c0,15.8,12.8,28.6,28.6,28.6c15.8,0,28.6-12.8,28.6-28.6
					C173.2,493.1,160.3,480.2,144.6,480.2z"/>
				<path d="M234.3,480.2c-15.8,0-28.6,12.8-28.6,28.6c0,15.8,12.8,28.6,28.6,28.6c15.8,0,28.6-12.8,28.6-28.6
					C262.9,493.1,250.1,480.2,234.3,480.2z"/>
				<path d="M324.1,480.2c-15.8,0-28.6,12.8-28.6,28.6c0,15.8,12.8,28.6,28.6,28.6c15.8,0,28.6-12.8,28.6-28.6
					C352.7,493.1,339.8,480.2,324.1,480.2z"/>
				<path d="M413.8,480.2c-15.8,0-28.6,12.8-28.6,28.6c0,15.8,12.8,28.6,28.6,28.6c15.8,0,28.6-12.8,28.6-28.6
					C442.4,493.1,429.6,480.2,413.8,480.2z"/>
				<path d="M503.6,480.2c-15.8,0-28.6,12.8-28.6,28.6c0,15.8,12.8,28.6,28.6,28.6c15.8,0,28.6-12.8,28.6-28.6
					C532.2,493.1,519.4,480.2,503.6,480.2z"/>
				<path d="M593.4,480.2c-15.8,0-28.6,12.8-28.6,28.6c0,15.8,12.8,28.6,28.6,28.6c15.8,0,28.6-12.8,28.6-28.6
					C621.9,493.1,609.1,480.2,593.4,480.2z"/>
				<path d="M683.1,480.2c-15.8,0-28.6,12.8-28.6,28.6c0,15.8,12.8,28.6,28.6,28.6c15.8,0,28.6-12.8,28.6-28.6
					C711.7,493.1,698.9,480.2,683.1,480.2z"/>
				<path d="M772.9,480.2c-15.8,0-28.6,12.8-28.6,28.6c0,15.8,12.8,28.6,28.6,28.6c15.8,0,28.6-12.8,28.6-28.6
					C801.5,493.1,788.6,480.2,772.9,480.2z"/>
				<path d="M1042.2,480.2c-15.8,0-28.6,12.8-28.6,28.6c0,15.8,12.8,28.6,28.6,28.6c15.8,0,28.6-12.8,28.6-28.6
					C1070.7,493.1,1057.9,480.2,1042.2,480.2z"/>
				<path d="M1131.9,480.2c-15.8,0-28.6,12.8-28.6,28.6c0,15.8,12.8,28.6,28.6,28.6c15.8,0,28.6-12.8,28.6-28.6
					C1160.5,493.1,1147.7,480.2,1131.9,480.2z"/>
				<path d="M1311.4,480.2c-15.8,0-28.6,12.8-28.6,28.6c0,15.8,12.8,28.6,28.6,28.6c15.8,0,28.6-12.8,28.6-28.6
					C1340,493.1,1327.2,480.2,1311.4,480.2z"/>
				<path d="M1401.2,480.2c-15.8,0-28.6,12.8-28.6,28.6c0,15.8,12.8,28.6,28.6,28.6c15.8,0,28.6-12.8,28.6-28.6
					C1429.8,493.1,1417,480.2,1401.2,480.2z"/>
				<path d="M1939.7,480.2c-15.8,0-28.6,12.8-28.6,28.6c0,15.8,12.8,28.6,28.6,28.6c15.8,0,28.6-12.8,28.6-28.6
					C1968.3,493.1,1955.5,480.2,1939.7,480.2z"/>
				<path d="M2029.5,480.2c-15.8,0-28.6,12.8-28.6,28.6c0,15.8,12.8,28.6,28.6,28.6c15.8,0,28.6-12.8,28.6-28.6
					C2058.1,493.1,2045.3,480.2,2029.5,480.2z"/>
				<path d="M2209,480.2c-15.8,0-28.6,12.8-28.6,28.6c0,15.8,12.8,28.6,28.6,28.6c15.8,0,28.6-12.8,28.6-28.6
					C2237.6,493.1,2224.8,480.2,2209,480.2z"/>
				<path d="M2298.8,480.2c-15.8,0-28.6,12.8-28.6,28.6c0,15.8,12.8,28.6,28.6,28.6c15.8,0,28.6-12.8,28.6-28.6
					C2327.4,493.1,2314.5,480.2,2298.8,480.2z"/>
				<path d="M2388.5,480.2c-15.8,0-28.6,12.8-28.6,28.6c0,15.8,12.8,28.6,28.6,28.6c15.8,0,28.6-12.8,28.6-28.6
					C2417.1,493.1,2404.3,480.2,2388.5,480.2z"/>
				<path d="M2478.3,480.2c-15.8,0-28.6,12.8-28.6,28.6c0,15.8,12.8,28.6,28.6,28.6c15.8,0,28.6-12.8,28.6-28.6
					C2506.9,493.1,2494.1,480.2,2478.3,480.2z"/>
				<path d="M2568.1,480.2c-15.8,0-28.6,12.8-28.6,28.6c0,15.8,12.8,28.6,28.6,28.6c15.8,0,28.6-12.8,28.6-28.6
					C2596.6,493.1,2583.8,480.2,2568.1,480.2z"/>
				<path d="M2657.8,480.2c-15.8,0-28.6,12.8-28.6,28.6c0,15.8,12.8,28.6,28.6,28.6c15.8,0,28.6-12.8,28.6-28.6
					C2686.4,493.1,2673.6,480.2,2657.8,480.2z"/>
				<path d="M2747.6,480.2c-15.8,0-28.6,12.8-28.6,28.6c0,15.8,12.8,28.6,28.6,28.6s28.6-12.8,28.6-28.6
					C2776.2,493.1,2763.3,480.2,2747.6,480.2z"/>
				<path d="M2837.3,480.2c-15.8,0-28.6,12.8-28.6,28.6c0,15.8,12.8,28.6,28.6,28.6s28.6-12.8,28.6-28.6
					C2865.9,493.1,2853.1,480.2,2837.3,480.2z"/>
				<path d="M2927.1,480.2c-15.8,0-28.6,12.8-28.6,28.6c0,15.8,12.8,28.6,28.6,28.6c15.8,0,28.6-12.8,28.6-28.6
					C2955.7,493.1,2942.9,480.2,2927.1,480.2z"/>
				<path d="M3016.8,480.2c-15.8,0-28.6,12.8-28.6,28.6c0,15.8,12.8,28.6,28.6,28.6c15.8,0,28.6-12.8,28.6-28.6
					C3045.4,493.1,3032.6,480.2,3016.8,480.2z"/>
				<path d="M3106.6,480.2c-15.8,0-28.6,12.8-28.6,28.6c0,15.8,12.8,28.6,28.6,28.6c15.8,0,28.6-12.8,28.6-28.6
					C3135.2,493.1,3122.4,480.2,3106.6,480.2z"/>
				<path d="M3196.3,480.2c-15.8,0-28.6,12.8-28.6,28.6c0,15.8,12.8,28.6,28.6,28.6c15.8,0,28.6-12.8,28.6-28.6
					C3225,493.1,3212.1,480.2,3196.3,480.2z"/>
				<path d="M3286.1,480.2c-15.8,0-28.6,12.8-28.6,28.6c0,15.8,12.8,28.6,28.6,28.6c15.8,0,28.6-12.8,28.6-28.6
					C3314.7,493.1,3301.9,480.2,3286.1,480.2z"/>
				<path d="M3375.9,480.2c-15.8,0-28.6,12.8-28.6,28.6c0,15.8,12.8,28.6,28.6,28.6s28.6-12.8,28.6-28.6
					C3404.5,493.1,3391.7,480.2,3375.9,480.2z"/>
				<path d="M3465.6,480.2c-15.8,0-28.6,12.8-28.6,28.6c0,15.8,12.8,28.6,28.6,28.6c15.8,0,28.6-12.8,28.6-28.6
					C3494.3,493.1,3481.4,480.2,3465.6,480.2z"/>
				<path d="M3555.4,480.2c-15.8,0-28.6,12.8-28.6,28.6c0,15.8,12.8,28.6,28.6,28.6c15.8,0,28.6-12.8,28.6-28.6
					C3584,493.1,3571.2,480.2,3555.4,480.2z"/>
				<path d="M3645.2,480.2c-15.8,0-28.6,12.8-28.6,28.6c0,15.8,12.8,28.6,28.6,28.6c15.8,0,28.6-12.8,28.6-28.6
					C3673.8,493.1,3660.9,480.2,3645.2,480.2z"/>
				<path d="M3734.9,480.2c-15.8,0-28.6,12.8-28.6,28.6c0,15.8,12.8,28.6,28.6,28.6c15.8,0,28.6-12.8,28.6-28.6
					C3763.5,493.1,3750.7,480.2,3734.9,480.2z"/>
			</g>
		</g>
	</g>
</g>
</svg>
